<svg version="1.1" viewBox="0.0 0.0 600.0 371.0" fill="none" stroke="none" stroke-linecap="square" stroke-miterlimit="10" width="600" height="371" xmlns:xlink="http://www.w3.org/1999/xlink" xmlns="http://www.w3.org/2000/svg"><path fill="#ffffff" d="M0 0L600.0 0L600.0 371.0L0 371.0L0 0Z" fill-rule="nonzero"/><path fill="#4285f4" d="M300.0 54.916668C331.41644 54.916668 362.02643 64.86246 387.44284 83.328575L300.0 203.68333Z" fill-rule="nonzero"/><path fill="#ea4335" d="M387.44284 83.328575C431.3433 115.22411 454.39468 168.49269 447.5936 222.32874L300.0 203.68333Z" fill-rule="nonzero"/><path fill="#fbbc04" d="M447.5936 222.32874C445.63702 237.81656 441.2549 252.89992 434.6081 267.0251L300.0 203.68333Z" fill-rule="nonzero"/><path fill="#34a853" d="M434.6081 267.0251C430.62527 275.48904 425.85303 283.55847 420.35477 291.1262L300.0 203.68333Z" fill-rule="nonzero"/><path fill="#ff6d01" d="M420.35477 291.1262C411.1789 303.75568 400.07236 314.8622 387.44284 324.0381L300.0 203.68333Z" fill-rule="nonzero"/><path fill="#46bdc6" d="M387.44284 324.0381C335.302 361.92062 264.698 361.92062 212.55714 324.0381C160.4163 286.15555 138.59846 219.00714 158.5145 157.7119C178.43053 96.416664 235.55037 54.916668 300.0 54.916668L300.0 203.68333Z" fill-rule="nonzero"/><path fill="#1a1a1a" d="M19.440624 242.85619L19.440624 234.26244L21.159374 234.26244L23.190624 240.34056Q23.471874 241.19994 23.596874 241.62181Q23.7375 241.15306 24.05 240.24681L26.1125 234.26244L27.64375 234.26244L27.64375 242.85619L26.55 242.85619L26.55 235.66869L24.05 242.85619L23.01875 242.85619L20.534374 235.54369L20.534374 242.85619L19.440624 242.85619ZM28.346874 235.48119L28.346874 234.26244L29.409374 234.26244L29.409374 235.48119L28.346874 235.48119ZM28.346874 242.85619L28.346874 236.63744L29.409374 236.63744L29.409374 242.85619L28.346874 242.85619ZM31.346874 242.85619L31.346874 236.63744L32.284374 236.63744L32.284374 237.51244Q32.971874 236.49681 34.26875 236.49681Q34.83125 236.49681 35.3 236.69994Q35.784374 236.90306 36.01875 237.23119Q36.253124 237.55931 36.346874 237.99681Q36.39375 238.29369 36.39375 239.02806L36.39375 242.85619L35.346874 242.85619L35.346874 239.07494Q35.346874 238.41869 35.221874 238.10619Q35.096874 237.79369 34.784374 237.60619Q34.471874 237.40306 34.05 237.40306Q33.378124 237.40306 32.878124 237.84056Q32.39375 238.26244 32.39375 239.44994L32.39375 242.85619L31.346874 242.85619ZM38.346874 235.48119L38.346874 234.26244L39.409374 234.26244L39.409374 235.48119L38.346874 235.48119ZM38.346874 242.85619L38.346874 236.63744L39.409374 236.63744L39.409374 242.85619L38.346874 242.85619ZM41.346874 242.85619L41.346874 236.63744L42.284374 236.63744L42.284374 237.51244Q42.971874 236.49681 44.26875 236.49681Q44.83125 236.49681 45.3 236.69994Q45.784374 236.90306 46.01875 237.23119Q46.253124 237.55931 46.346874 237.99681Q46.39375 238.29369 46.39375 239.02806L46.39375 242.85619L45.346874 242.85619L45.346874 239.07494Q45.346874 238.41869 45.221874 238.10619Q45.096874 237.79369 44.784374 237.60619Q44.471874 237.40306 44.05 237.40306Q43.378124 237.40306 42.878124 237.84056Q42.39375 238.26244 42.39375 239.44994L42.39375 242.85619L41.346874 242.85619ZM48.14375 243.37181L49.175 243.52806Q49.2375 243.99681 49.534374 244.21556Q49.925 244.51244 50.596874 244.51244Q51.33125 244.51244 51.721874 244.21556Q52.128124 243.91869 52.26875 243.40306Q52.3625 243.07494 52.346874 242.04369Q51.659374 242.85619 50.628124 242.85619Q49.346874 242.85619 48.64375 241.93431Q47.940624 240.99681 47.940624 239.71556Q47.940624 238.82494 48.253124 238.07494Q48.58125 237.30931 49.190624 236.90306Q49.8 236.49681 50.628124 236.49681Q51.7375 236.49681 52.45625 237.38744L52.45625 236.63744L53.425 236.63744L53.425 242.01244Q53.425 243.46556 53.128124 244.07494Q52.83125 244.68431 52.190624 245.02806Q51.55 245.38744 50.6125 245.38744Q49.503124 245.38744 48.815624 244.88744Q48.128124 244.38744 48.14375 243.37181ZM49.01875 239.63744Q49.01875 240.85619 49.503124 241.41869Q49.9875 241.98119 50.721874 241.98119Q51.45625 241.98119 51.940624 241.41869Q52.440624 240.85619 52.440624 239.66869Q52.440624 238.52806 51.925 237.94994Q51.425 237.37181 50.70625 237.37181Q50.003124 237.37181 49.503124 237.94994Q49.01875 238.51244 49.01875 239.63744Z" fill-rule="nonzero"/><path fill="#9e9e9e" d="M24.51875 253.37183L23.471874 253.44995Q23.33125 252.82495 23.08125 252.5437Q22.64375 252.09058 22.01875 252.09058Q21.51875 252.09058 21.128124 252.37183Q20.64375 252.74683 20.346874 253.44995Q20.065624 254.13745 20.05 255.4187Q20.425 254.84058 20.971874 254.55933Q21.534374 254.27808 22.14375 254.27808Q23.190624 254.27808 23.925 255.05933Q24.675 255.84058 24.675 257.05933Q24.675 257.87183 24.315624 258.57495Q23.971874 259.26245 23.3625 259.63745Q22.753124 259.99683 21.9875 259.99683Q20.659374 259.99683 19.83125 259.02808Q19.003124 258.05933 19.003124 255.84058Q19.003124 253.34058 19.925 252.21558Q20.721874 251.2312 22.08125 251.2312Q23.096874 251.2312 23.7375 251.80933Q24.39375 252.37183 24.51875 253.37183ZM20.221874 257.07495Q20.221874 257.62183 20.440624 258.12183Q20.675 258.6062 21.08125 258.87183Q21.503124 259.13745 21.971874 259.13745Q22.628124 259.13745 23.1125 258.6062Q23.596874 258.05933 23.596874 257.13745Q23.596874 256.24683 23.1125 255.7312Q22.64375 255.21558 21.925 255.21558Q21.20625 255.21558 20.70625 255.7312Q20.221874 256.24683 20.221874 257.07495ZM26.05 255.62183Q26.05 254.09058 26.3625 253.1687Q26.675 252.2312 27.284374 251.7312Q27.909374 251.2312 28.846874 251.2312Q29.534374 251.2312 30.05 251.51245Q30.58125 251.7937 30.925 252.32495Q31.26875 252.84058 31.45625 253.59058Q31.64375 254.34058 31.64375 255.62183Q31.64375 257.13745 31.33125 258.05933Q31.034374 258.9812 30.409374 259.49683Q29.8 259.99683 28.846874 259.99683Q27.6125 259.99683 26.89375 259.1062Q26.05 258.0437 26.05 255.62183ZM27.128124 255.62183Q27.128124 257.7312 27.628124 258.43433Q28.128124 259.13745 28.846874 259.13745Q29.58125 259.13745 30.065624 258.43433Q30.565624 257.7312 30.565624 255.62183Q30.565624 253.49683 30.065624 252.80933Q29.58125 252.1062 28.83125 252.1062Q28.1125 252.1062 27.675 252.71558Q27.128124 253.49683 27.128124 255.62183ZM33.64375 259.8562L33.64375 258.65308L34.846874 258.65308L34.846874 259.8562L33.64375 259.8562ZM36.05 255.62183Q36.05 254.09058 36.3625 253.1687Q36.675 252.2312 37.284374 251.7312Q37.909374 251.2312 38.846874 251.2312Q39.534374 251.2312 40.05 251.51245Q40.58125 251.7937 40.925 252.32495Q41.26875 252.84058 41.45625 253.59058Q41.64375 254.34058 41.64375 255.62183Q41.64375 257.13745 41.33125 258.05933Q41.034374 258.9812 40.409374 259.49683Q39.8 259.99683 38.846874 259.99683Q37.6125 259.99683 36.89375 259.1062Q36.05 258.0437 36.05 255.62183ZM37.128124 255.62183Q37.128124 257.7312 37.628124 258.43433Q38.128124 259.13745 38.846874 259.13745Q39.58125 259.13745 40.065624 258.43433Q40.565624 257.7312 40.565624 255.62183Q40.565624 253.49683 40.065624 252.80933Q39.58125 252.1062 38.83125 252.1062Q38.1125 252.1062 37.675 252.71558Q37.128124 253.49683 37.128124 255.62183ZM43.253124 253.32495Q43.253124 252.40308 43.70625 251.76245Q44.175 251.12183 45.05 251.12183Q45.8625 251.12183 46.39375 251.69995Q46.925 252.27808 46.925 253.38745Q46.925 254.4812 46.378124 255.07495Q45.846874 255.65308 45.065624 255.65308Q44.284374 255.65308 43.76875 255.07495Q43.253124 254.49683 43.253124 253.32495ZM45.08125 251.84058Q44.690624 251.84058 44.425 252.18433Q44.175 252.52808 44.175 253.43433Q44.175 254.26245 44.425 254.6062Q44.690624 254.93433 45.08125 254.93433Q45.4875 254.93433 45.7375 254.59058Q46.003124 254.24683 46.003124 253.3562Q46.003124 252.51245 45.7375 252.18433Q45.471874 251.84058 45.08125 251.84058ZM45.08125 260.1687L49.784374 251.12183L50.64375 251.12183L45.95625 260.1687L45.08125 260.1687ZM48.8 257.84058Q48.8 256.9187 49.253124 256.27808Q49.721874 255.63745 50.6125 255.63745Q51.425 255.63745 51.95625 256.21558Q52.4875 256.77808 52.4875 257.90308Q52.4875 258.99683 51.940624 259.59058Q51.409374 260.1687 50.6125 260.1687Q49.846874 260.1687 49.315624 259.59058Q48.8 259.01245 48.8 257.84058ZM50.64375 256.3562Q50.2375 256.3562 49.971874 256.69995Q49.721874 257.0437 49.721874 257.94995Q49.721874 258.76245 49.9875 259.1062Q50.253124 259.44995 50.64375 259.44995Q51.034374 259.44995 51.3 259.1062Q51.565624 258.76245 51.565624 257.8562Q51.565624 257.02808 51.3 256.69995Q51.034374 256.3562 50.64375 256.3562Z" fill-rule="nonzero"/><path stroke="#757575" stroke-width="1.0" stroke-linecap="butt" d="M18.55 247.35619L145.23334 247.35619L165.58876 247.35619" fill-rule="nonzero"/><path fill="#9e9e9e" d="M167.58876 247.35619C167.58876 246.25162 166.69334 245.35619 165.58876 245.35619C164.48419 245.35619 163.58876 246.25162 163.58876 247.35619C163.58876 248.46075 164.48419 249.35619 165.58876 249.35619C166.69334 249.35619 167.58876 248.46075 167.58876 247.35619" fill-rule="nonzero"/><path fill="#1a1a1a" d="M552.5594 65.916664L552.5594 58.33854L549.73126 58.33854L549.73126 57.322914L556.54376 57.322914L556.54376 58.33854L553.7 58.33854L553.7 65.916664L552.5594 65.916664ZM561.4969 63.916664L562.59064 64.041664Q562.34064 64.99479 561.6375 65.52604Q560.9344 66.05729 559.85626 66.05729Q558.4969 66.05729 557.6844 65.21354Q556.8875 64.36979 556.8875 62.854164Q556.8875 61.291664 557.7 60.43229Q558.5125 59.55729 559.79376 59.55729Q561.04376 59.55729 561.825 60.40104Q562.6219 61.24479 562.6219 62.791664Q562.6219 62.885414 562.6219 63.072914L557.98126 63.072914Q558.04376 64.104164 558.5594 64.65104Q559.075 65.18229 559.85626 65.18229Q560.4344 65.18229 560.84064 64.885414Q561.2625 64.572914 561.4969 63.916664ZM558.04376 62.21354L561.5125 62.21354Q561.45 61.416664 561.1219 61.02604Q560.60626 60.416664 559.8094 60.416664Q559.075 60.416664 558.575 60.90104Q558.09064 61.385414 558.04376 62.21354ZM568.3094 65.15104Q567.71564 65.65104 567.16876 65.854164Q566.6375 66.05729 566.0125 66.05729Q564.98126 66.05729 564.4344 65.55729Q563.8875 65.05729 563.8875 64.27604Q563.8875 63.822914 564.09064 63.447914Q564.29376 63.05729 564.6375 62.83854Q564.98126 62.604164 565.40314 62.49479Q565.7 62.40104 566.34064 62.322914Q567.60626 62.18229 568.21564 61.96354Q568.21564 61.74479 568.21564 61.697914Q568.21564 61.041664 567.91876 60.77604Q567.5125 60.43229 566.71564 60.43229Q565.98126 60.43229 565.6219 60.697914Q565.2625 60.947914 565.09064 61.604164L564.0594 61.46354Q564.2 60.80729 564.52814 60.40104Q564.85626 59.99479 565.46564 59.77604Q566.075 59.55729 566.8719 59.55729Q567.66876 59.55729 568.16876 59.74479Q568.66876 59.93229 568.90314 60.21354Q569.1375 60.49479 569.23126 60.93229Q569.27814 61.197914 569.27814 61.90104L569.27814 63.30729Q569.27814 64.77604 569.34064 65.166664Q569.41876 65.55729 569.6219 65.916664L568.5125 65.916664Q568.35626 65.58854 568.3094 65.15104ZM568.21564 62.791664Q567.6375 63.02604 566.4969 63.197914Q565.84064 63.291664 565.575 63.416664Q565.3094 63.52604 565.15314 63.74479Q565.0125 63.96354 565.0125 64.24479Q565.0125 64.666664 565.325 64.947914Q565.65314 65.229164 566.2625 65.229164Q566.8719 65.229164 567.34064 64.96354Q567.825 64.697914 568.04376 64.229164Q568.21564 63.86979 568.21564 63.18229L568.21564 62.791664ZM571.2469 65.916664L571.2469 59.697914L572.1844 59.697914L572.1844 60.572914Q572.48126 60.104164 572.96564 59.83854Q573.45 59.55729 574.075 59.55729Q574.7625 59.55729 575.2 59.83854Q575.65314 60.11979 575.825 60.635414Q576.575 59.55729 577.7469 59.55729Q578.6844 59.55729 579.16876 60.072914Q579.66876 60.572914 579.66876 61.65104L579.66876 65.916664L578.6219 65.916664L578.6219 61.99479Q578.6219 61.36979 578.5125 61.08854Q578.41876 60.80729 578.15314 60.635414Q577.8875 60.46354 577.5125 60.46354Q576.85626 60.46354 576.41876 60.90104Q575.9969 61.33854 575.9969 62.30729L575.9969 65.916664L574.9344 65.916664L574.9344 61.86979Q574.9344 61.166664 574.66876 60.822914Q574.41876 60.46354 573.84064 60.46354Q573.3875 60.46354 573.0125 60.697914Q572.6375 60.93229 572.46564 61.385414Q572.29376 61.83854 572.29376 62.68229L572.29376 65.916664L571.2469 65.916664Z" fill-rule="nonzero"/><path fill="#9e9e9e" d="M550.91876 82.916664L549.8719 82.916664L549.8719 76.197914Q549.48126 76.55729 548.85626 76.93229Q548.2469 77.291664 547.7625 77.46354L547.7625 76.447914Q548.6375 76.02604 549.29376 75.447914Q549.96564 74.854164 550.2469 74.291664L550.91876 74.291664L550.91876 82.916664ZM553.95 78.68229Q553.95 77.15104 554.2625 76.229164Q554.575 75.291664 555.1844 74.791664Q555.8094 74.291664 556.7469 74.291664Q557.4344 74.291664 557.95 74.572914Q558.48126 74.854164 558.825 75.385414Q559.16876 75.90104 559.35626 76.65104Q559.54376 77.40104 559.54376 78.68229Q559.54376 80.197914 559.23126 81.11979Q558.9344 82.041664 558.3094 82.55729Q557.7 83.05729 556.7469 83.05729Q555.5125 83.05729 554.79376 82.166664Q553.95 81.104164 553.95 78.68229ZM555.02814 78.68229Q555.02814 80.791664 555.52814 81.49479Q556.02814 82.197914 556.7469 82.197914Q557.48126 82.197914 557.96564 81.49479Q558.46564 80.791664 558.46564 78.68229Q558.46564 76.55729 557.96564 75.86979Q557.48126 75.166664 556.73126 75.166664Q556.0125 75.166664 555.575 75.77604Q555.02814 76.55729 555.02814 78.68229ZM561.54376 82.916664L561.54376 81.71354L562.7469 81.71354L562.7469 82.916664L561.54376 82.916664ZM563.95 78.68229Q563.95 77.15104 564.2625 76.229164Q564.575 75.291664 565.1844 74.791664Q565.8094 74.291664 566.7469 74.291664Q567.4344 74.291664 567.95 74.572914Q568.48126 74.854164 568.825 75.385414Q569.16876 75.90104 569.35626 76.65104Q569.54376 77.40104 569.54376 78.68229Q569.54376 80.197914 569.23126 81.11979Q568.9344 82.041664 568.3094 82.55729Q567.7 83.05729 566.7469 83.05729Q565.5125 83.05729 564.79376 82.166664Q563.95 81.104164 563.95 78.68229ZM565.02814 78.68229Q565.02814 80.791664 565.52814 81.49479Q566.02814 82.197914 566.7469 82.197914Q567.48126 82.197914 567.96564 81.49479Q568.46564 80.791664 568.46564 78.68229Q568.46564 76.55729 567.96564 75.86979Q567.48126 75.166664 566.73126 75.166664Q566.0125 75.166664 565.575 75.77604Q565.02814 76.55729 565.02814 78.68229ZM571.15314 76.385414Q571.15314 75.46354 571.60626 74.822914Q572.075 74.18229 572.95 74.18229Q573.7625 74.18229 574.29376 74.760414Q574.825 75.33854 574.825 76.447914Q574.825 77.541664 574.27814 78.135414Q573.7469 78.71354 572.96564 78.71354Q572.1844 78.71354 571.66876 78.135414Q571.15314 77.55729 571.15314 76.385414ZM572.98126 74.90104Q572.59064 74.90104 572.325 75.24479Q572.075 75.58854 572.075 76.49479Q572.075 77.322914 572.325 77.666664Q572.59064 77.99479 572.98126 77.99479Q573.3875 77.99479 573.6375 77.65104Q573.90314 77.30729 573.90314 76.416664Q573.90314 75.572914 573.6375 75.24479Q573.3719 74.90104 572.98126 74.90104ZM572.98126 83.229164L577.6844 74.18229L578.54376 74.18229L573.85626 83.229164L572.98126 83.229164ZM576.7 80.90104Q576.7 79.979164 577.15314 79.33854Q577.6219 78.697914 578.5125 78.697914Q579.325 78.697914 579.85626 79.27604Q580.3875 79.83854 580.3875 80.96354Q580.3875 82.05729 579.84064 82.65104Q579.3094 83.229164 578.5125 83.229164Q577.7469 83.229164 577.21564 82.65104Q576.7 82.072914 576.7 80.90104ZM578.54376 79.416664Q578.1375 79.416664 577.8719 79.760414Q577.6219 80.104164 577.6219 81.010414Q577.6219 81.822914 577.8875 82.166664Q578.15314 82.510414 578.54376 82.510414Q578.9344 82.510414 579.2 82.166664Q579.46564 81.822914 579.46564 80.916664Q579.46564 80.08854 579.2 79.760414Q578.9344 79.416664 578.54376 79.416664Z" fill-rule="nonzero"/><path stroke="#757575" stroke-width="1.0" stroke-linecap="butt" d="M581.45 70.416664L454.76666 70.416664L343.67285 69.2721" fill-rule="nonzero"/><path fill="#9e9e9e" d="M345.67285 69.2721C345.67285 68.167534 344.77744 67.2721 343.67285 67.2721C342.5683 67.2721 341.67285 68.167534 341.67285 69.2721C341.67285 70.37667 342.5683 71.2721 343.67285 71.2721C344.77744 71.2721 345.67285 70.37667 345.67285 69.2721" fill-rule="nonzero"/><path fill="#1a1a1a" d="M465.40314 143.05508L465.40314 134.46133L471.60626 134.46133L471.60626 135.47696L466.54376 135.47696L466.54376 138.10196L471.29376 138.10196L471.29376 139.11758L466.54376 139.11758L466.54376 142.03946L471.8094 142.03946L471.8094 143.05508L465.40314 143.05508ZM477.3094 142.28946Q476.71564 142.78946 476.16876 142.99258Q475.6375 143.19571 475.0125 143.19571Q473.98126 143.19571 473.4344 142.69571Q472.8875 142.19571 472.8875 141.41446Q472.8875 140.96133 473.09064 140.58633Q473.29376 140.19571 473.6375 139.97696Q473.98126 139.74258 474.40314 139.63321Q474.7 139.53946 475.34064 139.46133Q476.60626 139.32071 477.21564 139.10196Q477.21564 138.88321 477.21564 138.83633Q477.21564 138.18008 476.91876 137.91446Q476.5125 137.57071 475.71564 137.57071Q474.98126 137.57071 474.6219 137.83633Q474.2625 138.08633 474.09064 138.74258L473.0594 138.60196Q473.2 137.94571 473.52814 137.53946Q473.85626 137.13321 474.46564 136.91446Q475.075 136.69571 475.8719 136.69571Q476.66876 136.69571 477.16876 136.88321Q477.66876 137.07071 477.90314 137.35196Q478.1375 137.63321 478.23126 138.07071Q478.27814 138.33633 478.27814 139.03946L478.27814 140.44571Q478.27814 141.91446 478.34064 142.30508Q478.41876 142.69571 478.6219 143.05508L477.5125 143.05508Q477.35626 142.72696 477.3094 142.28946ZM477.21564 139.93008Q476.6375 140.16446 475.4969 140.33633Q474.84064 140.43008 474.575 140.55508Q474.3094 140.66446 474.15314 140.88321Q474.0125 141.10196 474.0125 141.38321Q474.0125 141.80508 474.325 142.08633Q474.65314 142.36758 475.2625 142.36758Q475.8719 142.36758 476.34064 142.10196Q476.825 141.83633 477.04376 141.36758Q477.21564 141.00821 477.21564 140.32071L477.21564 139.93008ZM480.23126 143.05508L480.23126 136.83633L481.1844 136.83633L481.1844 137.77383Q481.54376 137.11758 481.84064 136.91446Q482.15314 136.69571 482.52814 136.69571Q483.0594 136.69571 483.60626 137.02383L483.2469 138.00821Q482.85626 137.77383 482.48126 137.77383Q482.1219 137.77383 481.84064 137.99258Q481.575 138.19571 481.46564 138.57071Q481.27814 139.13321 481.27814 139.78946L481.27814 143.05508L480.23126 143.05508ZM484.21564 143.05508L484.21564 134.46133L485.27814 134.46133L485.27814 143.05508L484.21564 143.05508ZM487.2 145.44571L487.075 144.46133Q487.41876 144.55508 487.6844 144.55508Q488.02814 144.55508 488.23126 144.43008Q488.45 144.32071 488.59064 144.11758Q488.6844 143.94571 488.91876 143.32071Q488.9344 143.24258 489.0125 143.07071L486.6375 136.83633L487.77814 136.83633L489.075 140.43008Q489.325 141.11758 489.52814 141.88321Q489.71564 141.14883 489.96564 140.46133L491.29376 136.83633L492.34064 136.83633L489.98126 143.16446Q489.59064 144.18008 489.3875 144.57071Q489.10626 145.10196 488.73126 145.33633Q488.3719 145.58633 487.8719 145.58633Q487.575 145.58633 487.2 145.44571ZM494.4344 143.05508L497.73126 134.46133L498.95 134.46133L502.46564 143.05508L501.1844 143.05508L500.16876 140.44571L496.59064 140.44571L495.6375 143.05508L494.4344 143.05508ZM496.91876 139.52383L499.825 139.52383L498.9344 137.14883Q498.5125 136.07071 498.325 135.36758Q498.15314 136.19571 497.85626 137.00821L496.91876 139.52383ZM506.27814 143.05508L506.27814 142.27383Q505.6844 143.19571 504.54376 143.19571Q503.79376 143.19571 503.16876 142.78946Q502.54376 142.36758 502.2 141.63321Q501.85626 140.89883 501.85626 139.94571Q501.85626 139.02383 502.16876 138.25821Q502.48126 137.49258 503.10626 137.10196Q503.73126 136.69571 504.4969 136.69571Q505.0594 136.69571 505.4969 136.93008Q505.9344 137.16446 506.21564 137.53946L506.21564 134.46133L507.2625 134.46133L507.2625 143.05508L506.27814 143.05508ZM502.95 139.94571Q502.95 141.14883 503.45 141.74258Q503.95 142.32071 504.6375 142.32071Q505.325 142.32071 505.8094 141.75821Q506.29376 141.19571 506.29376 140.03946Q506.29376 138.75821 505.79376 138.16446Q505.3094 137.57071 504.59064 137.57071Q503.8875 137.57071 503.41876 138.14883Q502.95 138.71133 502.95 139.94571ZM510.96564 143.05508L508.60626 136.83633L509.71564 136.83633L511.0594 140.55508Q511.2625 141.16446 511.45 141.80508Q511.59064 141.32071 511.84064 140.63321L513.23126 136.83633L514.3094 136.83633L511.95 143.05508L510.96564 143.05508ZM514.2469 135.68008L514.2469 134.46133L515.3094 134.46133L515.3094 135.68008L514.2469 135.68008ZM514.2469 143.05508L514.2469 136.83633L515.3094 136.83633L515.3094 143.05508L514.2469 143.05508ZM516.825 141.19571L517.85626 141.03946Q517.95 141.66446 518.34064 141.99258Q518.7469 142.32071 519.48126 142.32071Q520.2 142.32071 520.54376 142.03946Q520.90314 141.74258 520.90314 141.33633Q520.90314 140.97696 520.59064 140.77383Q520.3719 140.63321 519.5125 140.41446Q518.35626 140.11758 517.90314 139.91446Q517.46564 139.69571 517.23126 139.32071Q516.9969 138.94571 516.9969 138.47696Q516.9969 138.07071 517.1844 137.71133Q517.3719 137.35196 517.7 137.11758Q517.95 136.94571 518.3719 136.82071Q518.79376 136.69571 519.29376 136.69571Q520.0125 136.69571 520.5594 136.91446Q521.1219 137.11758 521.3875 137.47696Q521.65314 137.83633 521.7469 138.43008L520.71564 138.57071Q520.65314 138.10196 520.3094 137.83633Q519.98126 137.55508 519.35626 137.55508Q518.6375 137.55508 518.325 137.80508Q518.0125 138.03946 518.0125 138.36758Q518.0125 138.57071 518.1375 138.72696Q518.27814 138.89883 518.54376 139.00821Q518.7 139.07071 519.48126 139.27383Q520.60626 139.58633 521.04376 139.77383Q521.48126 139.96133 521.73126 140.32071Q521.98126 140.68008 521.98126 141.22696Q521.98126 141.75821 521.66876 142.22696Q521.3719 142.68008 520.79376 142.94571Q520.21564 143.19571 519.48126 143.19571Q518.2625 143.19571 517.6219 142.69571Q516.9969 142.18008 516.825 141.19571ZM523.85626 139.94571Q523.85626 138.21133 524.8094 137.38321Q525.60626 136.69571 526.7625 136.69571Q528.04376 136.69571 528.85626 137.53946Q529.6844 138.36758 529.6844 139.85196Q529.6844 141.05508 529.325 141.74258Q528.96564 142.43008 528.2625 142.82071Q527.575 143.19571 526.7625 143.19571Q525.46564 143.19571 524.65314 142.36758Q523.85626 141.52383 523.85626 139.94571ZM524.9344 139.94571Q524.9344 141.13321 525.45 141.72696Q525.98126 142.32071 526.7625 142.32071Q527.5594 142.32071 528.075 141.72696Q528.59064 141.13321 528.59064 139.91446Q528.59064 138.75821 528.0594 138.16446Q527.54376 137.57071 526.7625 137.57071Q525.98126 137.57071 525.45 138.16446Q524.9344 138.74258 524.9344 139.94571ZM531.23126 143.05508L531.23126 136.83633L532.1844 136.83633L532.1844 137.77383Q532.54376 137.11758 532.84064 136.91446Q533.15314 136.69571 533.52814 136.69571Q534.0594 136.69571 534.60626 137.02383L534.2469 138.00821Q533.85626 137.77383 533.48126 137.77383Q533.1219 137.77383 532.84064 137.99258Q532.575 138.19571 532.46564 138.57071Q532.27814 139.13321 532.27814 139.78946L532.27814 143.05508L531.23126 143.05508ZM534.825 141.19571L535.85626 141.03946Q535.95 141.66446 536.34064 141.99258Q536.7469 142.32071 537.48126 142.32071Q538.2 142.32071 538.54376 142.03946Q538.90314 141.74258 538.90314 141.33633Q538.90314 140.97696 538.59064 140.77383Q538.3719 140.63321 537.5125 140.41446Q536.35626 140.11758 535.90314 139.91446Q535.46564 139.69571 535.23126 139.32071Q534.9969 138.94571 534.9969 138.47696Q534.9969 138.07071 535.1844 137.71133Q535.3719 137.35196 535.7 137.11758Q535.95 136.94571 536.3719 136.82071Q536.79376 136.69571 537.29376 136.69571Q538.0125 136.69571 538.5594 136.91446Q539.1219 137.11758 539.3875 137.47696Q539.65314 137.83633 539.7469 138.43008L538.71564 138.57071Q538.65314 138.10196 538.3094 137.83633Q537.98126 137.55508 537.35626 137.55508Q536.6375 137.55508 536.325 137.80508Q536.0125 138.03946 536.0125 138.36758Q536.0125 138.57071 536.1375 138.72696Q536.27814 138.89883 536.54376 139.00821Q536.7 139.07071 537.48126 139.27383Q538.60626 139.58633 539.04376 139.77383Q539.48126 139.96133 539.73126 140.32071Q539.98126 140.68008 539.98126 141.22696Q539.98126 141.75821 539.66876 142.22696Q539.3719 142.68008 538.79376 142.94571Q538.21564 143.19571 537.48126 143.19571Q536.2625 143.19571 535.6219 142.69571Q534.9969 142.18008 534.825 141.19571ZM545.3875 143.05508L545.3875 134.46133L549.2 134.46133Q550.35626 134.46133 550.95 134.69571Q551.54376 134.93008 551.90314 135.52383Q552.2625 136.10196 552.2625 136.80508Q552.2625 137.72696 551.66876 138.35196Q551.075 138.97696 549.84064 139.14883Q550.29376 139.36758 550.52814 139.57071Q551.02814 140.02383 551.46564 140.71133L552.96564 143.05508L551.52814 143.05508L550.40314 141.27383Q549.90314 140.49258 549.575 140.08633Q549.2625 139.68008 548.9969 139.52383Q548.7469 139.35196 548.48126 139.27383Q548.29376 139.24258 547.85626 139.24258L546.52814 139.24258L546.52814 143.05508L545.3875 143.05508ZM546.52814 138.25821L548.98126 138.25821Q549.7469 138.25821 550.1844 138.10196Q550.6375 137.93008 550.85626 137.58633Q551.09064 137.22696 551.09064 136.80508Q551.09064 136.19571 550.6375 135.80508Q550.2 135.41446 549.2469 135.41446L546.52814 135.41446L546.52814 138.25821ZM553.85626 139.94571Q553.85626 138.21133 554.8094 137.38321Q555.60626 136.69571 556.7625 136.69571Q558.04376 136.69571 558.85626 137.53946Q559.6844 138.36758 559.6844 139.85196Q559.6844 141.05508 559.325 141.74258Q558.96564 142.43008 558.2625 142.82071Q557.575 143.19571 556.7625 143.19571Q555.46564 143.19571 554.65314 142.36758Q553.85626 141.52383 553.85626 139.94571ZM554.9344 139.94571Q554.9344 141.13321 555.45 141.72696Q555.98126 142.32071 556.7625 142.32071Q557.5594 142.32071 558.075 141.72696Q558.59064 141.13321 558.59064 139.91446Q558.59064 138.75821 558.0594 138.16446Q557.54376 137.57071 556.7625 137.57071Q555.98126 137.57071 555.45 138.16446Q554.9344 138.74258 554.9344 139.94571ZM565.325 143.05508L565.325 142.13321Q564.59064 143.19571 563.34064 143.19571Q562.79376 143.19571 562.3094 142.99258Q561.84064 142.77383 561.60626 142.46133Q561.3719 142.13321 561.27814 141.66446Q561.21564 141.36758 561.21564 140.68008L561.21564 136.83633L562.27814 136.83633L562.27814 140.28946Q562.27814 141.10196 562.34064 141.39883Q562.4344 141.80508 562.7469 142.05508Q563.075 142.28946 563.5594 142.28946Q564.02814 142.28946 564.4344 142.05508Q564.85626 141.80508 565.02814 141.38321Q565.21564 140.96133 565.21564 140.16446L565.21564 136.83633L566.2625 136.83633L566.2625 143.05508L565.325 143.05508ZM568.2469 143.05508L568.2469 136.83633L569.1844 136.83633L569.1844 137.71133Q569.8719 136.69571 571.16876 136.69571Q571.73126 136.69571 572.2 136.89883Q572.6844 137.10196 572.91876 137.43008Q573.15314 137.75821 573.2469 138.19571Q573.29376 138.49258 573.29376 139.22696L573.29376 143.05508L572.2469 143.05508L572.2469 139.27383Q572.2469 138.61758 572.1219 138.30508Q571.9969 137.99258 571.6844 137.80508Q571.3719 137.60196 570.95 137.60196Q570.27814 137.60196 569.77814 138.03946Q569.29376 138.46133 569.29376 139.64883L569.29376 143.05508L568.2469 143.05508ZM579.27814 143.05508L579.27814 142.27383Q578.6844 143.19571 577.54376 143.19571Q576.79376 143.19571 576.16876 142.78946Q575.54376 142.36758 575.2 141.63321Q574.85626 140.89883 574.85626 139.94571Q574.85626 139.02383 575.16876 138.25821Q575.48126 137.49258 576.10626 137.10196Q576.73126 136.69571 577.4969 136.69571Q578.0594 136.69571 578.4969 136.93008Q578.9344 137.16446 579.21564 137.53946L579.21564 134.46133L580.2625 134.46133L580.2625 143.05508L579.27814 143.05508ZM575.95 139.94571Q575.95 141.14883 576.45 141.74258Q576.95 142.32071 577.6375 142.32071Q578.325 142.32071 578.8094 141.75821Q579.29376 141.19571 579.29376 140.03946Q579.29376 138.75821 578.79376 138.16446Q578.3094 137.57071 577.59064 137.57071Q576.8875 137.57071 576.41876 138.14883Q575.95 138.71133 575.95 139.94571Z" fill-rule="nonzero"/><path fill="#9e9e9e" d="M550.91876 160.05508L549.8719 160.05508L549.8719 153.33633Q549.48126 153.69571 548.85626 154.07071Q548.2469 154.43008 547.7625 154.60196L547.7625 153.58633Q548.6375 153.16446 549.29376 152.58633Q549.96564 151.99258 550.2469 151.43008L550.91876 151.43008L550.91876 160.05508ZM554.0125 152.58633L554.0125 151.57071L559.575 151.57071L559.575 152.39883Q558.7625 153.27383 557.95 154.72696Q557.15314 156.16446 556.71564 157.69571Q556.3875 158.77383 556.3094 160.05508L555.21564 160.05508Q555.23126 159.03946 555.60626 157.60196Q555.9969 156.16446 556.7 154.83633Q557.41876 153.50821 558.23126 152.58633L554.0125 152.58633ZM561.54376 160.05508L561.54376 158.85196L562.7469 158.85196L562.7469 160.05508L561.54376 160.05508ZM563.95 155.82071Q563.95 154.28946 564.2625 153.36758Q564.575 152.43008 565.1844 151.93008Q565.8094 151.43008 566.7469 151.43008Q567.4344 151.43008 567.95 151.71133Q568.48126 151.99258 568.825 152.52383Q569.16876 153.03946 569.35626 153.78946Q569.54376 154.53946 569.54376 155.82071Q569.54376 157.33633 569.23126 158.25821Q568.9344 159.18008 568.3094 159.69571Q567.7 160.19571 566.7469 160.19571Q565.5125 160.19571 564.79376 159.30508Q563.95 158.24258 563.95 155.82071ZM565.02814 155.82071Q565.02814 157.93008 565.52814 158.63321Q566.02814 159.33633 566.7469 159.33633Q567.48126 159.33633 567.96564 158.63321Q568.46564 157.93008 568.46564 155.82071Q568.46564 153.69571 567.96564 153.00821Q567.48126 152.30508 566.73126 152.30508Q566.0125 152.30508 565.575 152.91446Q565.02814 153.69571 565.02814 155.82071ZM571.15314 153.52383Q571.15314 152.60196 571.60626 151.96133Q572.075 151.32071 572.95 151.32071Q573.7625 151.32071 574.29376 151.89883Q574.825 152.47696 574.825 153.58633Q574.825 154.68008 574.27814 155.27383Q573.7469 155.85196 572.96564 155.85196Q572.1844 155.85196 571.66876 155.27383Q571.15314 154.69571 571.15314 153.52383ZM572.98126 152.03946Q572.59064 152.03946 572.325 152.38321Q572.075 152.72696 572.075 153.63321Q572.075 154.46133 572.325 154.80508Q572.59064 155.13321 572.98126 155.13321Q573.3875 155.13321 573.6375 154.78946Q573.90314 154.44571 573.90314 153.55508Q573.90314 152.71133 573.6375 152.38321Q573.3719 152.03946 572.98126 152.03946ZM572.98126 160.36758L577.6844 151.32071L578.54376 151.32071L573.85626 160.36758L572.98126 160.36758ZM576.7 158.03946Q576.7 157.11758 577.15314 156.47696Q577.6219 155.83633 578.5125 155.83633Q579.325 155.83633 579.85626 156.41446Q580.3875 156.97696 580.3875 158.10196Q580.3875 159.19571 579.84064 159.78946Q579.3094 160.36758 578.5125 160.36758Q577.7469 160.36758 577.21564 159.78946Q576.7 159.21133 576.7 158.03946ZM578.54376 156.55508Q578.1375 156.55508 577.8719 156.89883Q577.6219 157.24258 577.6219 158.14883Q577.6219 158.96133 577.8875 159.30508Q578.15314 159.64883 578.54376 159.64883Q578.9344 159.64883 579.2 159.30508Q579.46564 158.96133 579.46564 158.05508Q579.46564 157.22696 579.2 156.89883Q578.9344 156.55508 578.54376 156.55508Z" fill-rule="nonzero"/><path stroke="#757575" stroke-width="1.0" stroke-linecap="butt" d="M581.45 147.55508L454.76666 147.55508L429.70474 147.55508" fill-rule="nonzero"/><path fill="#9e9e9e" d="M431.70474 147.55508C431.70474 146.45052 430.8093 145.55508 429.70474 145.55508C428.60016 145.55508 427.70474 146.45052 427.70474 147.55508C427.70474 148.65965 428.60016 149.55508 429.70474 149.55508C430.8093 149.55508 431.70474 148.65965 431.70474 147.55508" fill-rule="nonzero"/><path fill="#1a1a1a" d="M466.9969 235.84706L468.0594 235.75331Q468.1375 236.40956 468.41876 236.81581Q468.7 237.22206 469.27814 237.48769Q469.8719 237.73769 470.60626 237.73769Q471.2469 237.73769 471.7469 237.55019Q472.2469 237.34706 472.48126 237.01894Q472.73126 236.67519 472.73126 236.28456Q472.73126 235.87831 472.4969 235.58144Q472.2625 235.26894 471.73126 235.06581Q471.3719 234.92519 470.1844 234.64394Q469.0125 234.36269 468.54376 234.11269Q467.91876 233.78456 467.6219 233.31581Q467.325 232.83144 467.325 232.23769Q467.325 231.59706 467.6844 231.03456Q468.0594 230.45644 468.7625 230.17519Q469.48126 229.87831 470.34064 229.87831Q471.29376 229.87831 472.02814 230.19081Q472.7625 230.48769 473.15314 231.09706Q473.54376 231.69081 473.575 232.44081L472.48126 232.51894Q472.3875 231.70644 471.8719 231.30019Q471.3719 230.87831 470.3875 230.87831Q469.35626 230.87831 468.8875 231.25331Q468.41876 231.62831 468.41876 232.15956Q468.41876 232.62831 468.7469 232.92519Q469.075 233.22206 470.45 233.53456Q471.84064 233.84706 472.35626 234.08144Q473.10626 234.44081 473.46564 234.97206Q473.825 235.48769 473.825 236.19081Q473.825 236.87831 473.4344 237.48769Q473.04376 238.08144 472.3094 238.42519Q471.575 238.75331 470.65314 238.75331Q469.48126 238.75331 468.6844 238.42519Q467.90314 238.08144 467.45 237.39394Q467.0125 236.70644 466.9969 235.84706ZM477.54376 237.67519L477.7 238.59706Q477.2469 238.69081 476.90314 238.69081Q476.325 238.69081 476.0125 238.51894Q475.7 238.33144 475.5594 238.03456Q475.4344 237.73769 475.4344 236.78456L475.4344 233.20644L474.66876 233.20644L474.66876 232.39394L475.4344 232.39394L475.4344 230.84706L476.48126 230.22206L476.48126 232.39394L477.54376 232.39394L477.54376 233.20644L476.48126 233.20644L476.48126 236.84706Q476.48126 237.30019 476.52814 237.42519Q476.59064 237.55019 476.71564 237.62831Q476.84064 237.70644 477.075 237.70644Q477.2625 237.70644 477.54376 237.67519ZM478.23126 238.61269L478.23126 232.39394L479.1844 232.39394L479.1844 233.33144Q479.54376 232.67519 479.84064 232.47206Q480.15314 232.25331 480.52814 232.25331Q481.0594 232.25331 481.60626 232.58144L481.2469 233.56581Q480.85626 233.33144 480.48126 233.33144Q480.1219 233.33144 479.84064 233.55019Q479.575 233.75331 479.46564 234.12831Q479.27814 234.69081 479.27814 235.34706L479.27814 238.61269L478.23126 238.61269ZM486.3094 237.84706Q485.71564 238.34706 485.16876 238.55019Q484.6375 238.75331 484.0125 238.75331Q482.98126 238.75331 482.4344 238.25331Q481.8875 237.75331 481.8875 236.97206Q481.8875 236.51894 482.09064 236.14394Q482.29376 235.75331 482.6375 235.53456Q482.98126 235.30019 483.40314 235.19081Q483.7 235.09706 484.34064 235.01894Q485.60626 234.87831 486.21564 234.65956Q486.21564 234.44081 486.21564 234.39394Q486.21564 233.73769 485.91876 233.47206Q485.5125 233.12831 484.71564 233.12831Q483.98126 233.12831 483.6219 233.39394Q483.2625 233.64394 483.09064 234.30019L482.0594 234.15956Q482.2 233.50331 482.52814 233.09706Q482.85626 232.69081 483.46564 232.47206Q484.075 232.25331 484.8719 232.25331Q485.66876 232.25331 486.16876 232.44081Q486.66876 232.62831 486.90314 232.90956Q487.1375 233.19081 487.23126 233.62831Q487.27814 233.89394 487.27814 234.59706L487.27814 236.00331Q487.27814 237.47206 487.34064 237.86269Q487.41876 238.25331 487.6219 238.61269L486.5125 238.61269Q486.35626 238.28456 486.3094 237.84706ZM486.21564 235.48769Q485.6375 235.72206 484.4969 235.89394Q483.84064 235.98769 483.575 236.11269Q483.3094 236.22206 483.15314 236.44081Q483.0125 236.65956 483.0125 236.94081Q483.0125 237.36269 483.325 237.64394Q483.65314 237.92519 484.2625 237.92519Q484.8719 237.92519 485.34064 237.65956Q485.825 237.39394 486.04376 236.92519Q486.21564 236.56581 486.21564 235.87831L486.21564 235.48769ZM491.54376 237.67519L491.7 238.59706Q491.2469 238.69081 490.90314 238.69081Q490.325 238.69081 490.0125 238.51894Q489.7 238.33144 489.5594 238.03456Q489.4344 237.73769 489.4344 236.78456L489.4344 233.20644L488.66876 233.20644L488.66876 232.39394L489.4344 232.39394L489.4344 230.84706L490.48126 230.22206L490.48126 232.39394L491.54376 232.39394L491.54376 233.20644L490.48126 233.20644L490.48126 236.84706Q490.48126 237.30019 490.52814 237.42519Q490.59064 237.55019 490.71564 237.62831Q490.84064 237.70644 491.075 237.70644Q491.2625 237.70644 491.54376 237.67519ZM496.4969 236.61269L497.59064 236.73769Q497.34064 237.69081 496.6375 238.22206Q495.9344 238.75331 494.85626 238.75331Q493.4969 238.75331 492.6844 237.90956Q491.8875 237.06581 491.8875 235.55019Q491.8875 233.98769 492.7 233.12831Q493.5125 232.25331 494.79376 232.25331Q496.04376 232.25331 496.825 233.09706Q497.6219 233.94081 497.6219 235.48769Q497.6219 235.58144 497.6219 235.76894L492.98126 235.76894Q493.04376 236.80019 493.5594 237.34706Q494.075 237.87831 494.85626 237.87831Q495.4344 237.87831 495.84064 237.58144Q496.2625 237.26894 496.4969 236.61269ZM493.04376 234.90956L496.5125 234.90956Q496.45 234.11269 496.1219 233.72206Q495.60626 233.11269 494.8094 233.11269Q494.075 233.11269 493.575 233.59706Q493.09064 234.08144 493.04376 234.90956ZM499.04376 239.12831L500.075 239.28456Q500.1375 239.75331 500.4344 239.97206Q500.825 240.26894 501.4969 240.26894Q502.23126 240.26894 502.6219 239.97206Q503.02814 239.67519 503.16876 239.15956Q503.2625 238.83144 503.2469 237.80019Q502.5594 238.61269 501.52814 238.61269Q500.2469 238.61269 499.54376 237.69081Q498.84064 236.75331 498.84064 235.47206Q498.84064 234.58144 499.15314 233.83144Q499.48126 233.06581 500.09064 232.65956Q500.7 232.25331 501.52814 232.25331Q502.6375 232.25331 503.35626 233.14394L503.35626 232.39394L504.325 232.39394L504.325 237.76894Q504.325 239.22206 504.02814 239.83144Q503.73126 240.44081 503.09064 240.78456Q502.45 241.14394 501.5125 241.14394Q500.40314 241.14394 499.71564 240.64394Q499.02814 240.14394 499.04376 239.12831ZM499.91876 235.39394Q499.91876 236.61269 500.40314 237.17519Q500.8875 237.73769 501.6219 237.73769Q502.35626 237.73769 502.84064 237.17519Q503.34064 236.61269 503.34064 235.42519Q503.34064 234.28456 502.825 233.70644Q502.325 233.12831 501.60626 233.12831Q500.90314 233.12831 500.40314 233.70644Q499.91876 234.26894 499.91876 235.39394ZM506.2469 231.23769L506.2469 230.01894L507.3094 230.01894L507.3094 231.23769L506.2469 231.23769ZM506.2469 238.61269L506.2469 232.39394L507.3094 232.39394L507.3094 238.61269L506.2469 238.61269ZM513.3094 236.33144L514.34064 236.47206Q514.16876 237.53456 513.46564 238.14394Q512.7625 238.75331 511.7469 238.75331Q510.46564 238.75331 509.6844 237.92519Q508.91876 237.08144 508.91876 235.51894Q508.91876 234.51894 509.2469 233.76894Q509.59064 233.00331 510.2625 232.62831Q510.95 232.25331 511.7625 232.25331Q512.7625 232.25331 513.40314 232.76894Q514.0594 233.26894 514.2469 234.22206L513.21564 234.37831Q513.075 233.75331 512.7 233.44081Q512.325 233.11269 511.79376 233.11269Q510.9969 233.11269 510.4969 233.69081Q509.9969 234.25331 509.9969 235.48769Q509.9969 236.75331 510.48126 237.31581Q510.96564 237.87831 511.73126 237.87831Q512.35626 237.87831 512.7625 237.50331Q513.1844 237.12831 513.3094 236.33144ZM518.3719 238.61269L518.3719 230.01894L521.6219 230.01894Q522.46564 230.01894 522.91876 230.09706Q523.5594 230.20644 523.98126 230.50331Q524.41876 230.80019 524.66876 231.33144Q524.9344 231.86269 524.9344 232.50331Q524.9344 233.59706 524.23126 234.36269Q523.54376 235.11269 521.71564 235.11269L519.5125 235.11269L519.5125 238.61269L518.3719 238.61269ZM519.5125 234.11269L521.73126 234.11269Q522.84064 234.11269 523.29376 233.70644Q523.7625 233.28456 523.7625 232.53456Q523.7625 232.00331 523.48126 231.62831Q523.21564 231.23769 522.77814 231.11269Q522.48126 231.03456 521.71564 231.03456L519.5125 231.03456L519.5125 234.11269ZM530.3094 237.84706Q529.71564 238.34706 529.16876 238.55019Q528.6375 238.75331 528.0125 238.75331Q526.98126 238.75331 526.4344 238.25331Q525.8875 237.75331 525.8875 236.97206Q525.8875 236.51894 526.09064 236.14394Q526.29376 235.75331 526.6375 235.53456Q526.98126 235.30019 527.40314 235.19081Q527.7 235.09706 528.34064 235.01894Q529.60626 234.87831 530.21564 234.65956Q530.21564 234.44081 530.21564 234.39394Q530.21564 233.73769 529.91876 233.47206Q529.5125 233.12831 528.71564 233.12831Q527.98126 233.12831 527.6219 233.39394Q527.2625 233.64394 527.09064 234.30019L526.0594 234.15956Q526.2 233.50331 526.52814 233.09706Q526.85626 232.69081 527.46564 232.47206Q528.075 232.25331 528.8719 232.25331Q529.66876 232.25331 530.16876 232.44081Q530.66876 232.62831 530.90314 232.90956Q531.1375 233.19081 531.23126 233.62831Q531.27814 233.89394 531.27814 234.59706L531.27814 236.00331Q531.27814 237.47206 531.34064 237.86269Q531.41876 238.25331 531.6219 238.61269L530.5125 238.61269Q530.35626 238.28456 530.3094 237.84706ZM530.21564 235.48769Q529.6375 235.72206 528.4969 235.89394Q527.84064 235.98769 527.575 236.11269Q527.3094 236.22206 527.15314 236.44081Q527.0125 236.65956 527.0125 236.94081Q527.0125 237.36269 527.325 237.64394Q527.65314 237.92519 528.2625 237.92519Q528.8719 237.92519 529.34064 237.65956Q529.825 237.39394 530.04376 236.92519Q530.21564 236.56581 530.21564 235.87831L530.21564 235.48769ZM533.23126 238.61269L533.23126 232.39394L534.1844 232.39394L534.1844 233.33144Q534.54376 232.67519 534.84064 232.47206Q535.15314 232.25331 535.52814 232.25331Q536.0594 232.25331 536.60626 232.58144L536.2469 233.56581Q535.85626 233.33144 535.48126 233.33144Q535.1219 233.33144 534.84064 233.55019Q534.575 233.75331 534.46564 234.12831Q534.27814 234.69081 534.27814 235.34706L534.27814 238.61269L533.23126 238.61269ZM539.54376 237.67519L539.7 238.59706Q539.2469 238.69081 538.90314 238.69081Q538.325 238.69081 538.0125 238.51894Q537.7 238.33144 537.5594 238.03456Q537.4344 237.73769 537.4344 236.78456L537.4344 233.20644L536.66876 233.20644L536.66876 232.39394L537.4344 232.39394L537.4344 230.84706L538.48126 230.22206L538.48126 232.39394L539.54376 232.39394L539.54376 233.20644L538.48126 233.20644L538.48126 236.84706Q538.48126 237.30019 538.52814 237.42519Q538.59064 237.55019 538.71564 237.62831Q538.84064 237.70644 539.075 237.70644Q539.2625 237.70644 539.54376 237.67519ZM540.2469 238.61269L540.2469 232.39394L541.1844 232.39394L541.1844 233.26894Q541.8719 232.25331 543.16876 232.25331Q543.73126 232.25331 544.2 232.45644Q544.6844 232.65956 544.91876 232.98769Q545.15314 233.31581 545.2469 233.75331Q545.29376 234.05019 545.29376 234.78456L545.29376 238.61269L544.2469 238.61269L544.2469 234.83144Q544.2469 234.17519 544.1219 233.86269Q543.9969 233.55019 543.6844 233.36269Q543.3719 233.15956 542.95 233.15956Q542.27814 233.15956 541.77814 233.59706Q541.29376 234.01894 541.29376 235.20644L541.29376 238.61269L540.2469 238.61269ZM551.4969 236.61269L552.59064 236.73769Q552.34064 237.69081 551.6375 238.22206Q550.9344 238.75331 549.85626 238.75331Q548.4969 238.75331 547.6844 237.90956Q546.8875 237.06581 546.8875 235.55019Q546.8875 233.98769 547.7 233.12831Q548.5125 232.25331 549.79376 232.25331Q551.04376 232.25331 551.825 233.09706Q552.6219 233.94081 552.6219 235.48769Q552.6219 235.58144 552.6219 235.76894L547.98126 235.76894Q548.04376 236.80019 548.5594 237.34706Q549.075 237.87831 549.85626 237.87831Q550.4344 237.87831 550.84064 237.58144Q551.2625 237.26894 551.4969 236.61269ZM548.04376 234.90956L551.5125 234.90956Q551.45 234.11269 551.1219 233.72206Q550.60626 233.11269 549.8094 233.11269Q549.075 233.11269 548.575 233.59706Q548.09064 234.08144 548.04376 234.90956ZM554.23126 238.61269L554.23126 232.39394L555.1844 232.39394L555.1844 233.33144Q555.54376 232.67519 555.84064 232.47206Q556.15314 232.25331 556.52814 232.25331Q557.0594 232.25331 557.60626 232.58144L557.2469 233.56581Q556.85626 233.33144 556.48126 233.33144Q556.1219 233.33144 555.84064 233.55019Q555.575 233.75331 555.46564 234.12831Q555.27814 234.69081 555.27814 235.34706L555.27814 238.61269L554.23126 238.61269ZM557.825 236.75331L558.85626 236.59706Q558.95 237.22206 559.34064 237.55019Q559.7469 237.87831 560.48126 237.87831Q561.2 237.87831 561.54376 237.59706Q561.90314 237.30019 561.90314 236.89394Q561.90314 236.53456 561.59064 236.33144Q561.3719 236.19081 560.5125 235.97206Q559.35626 235.67519 558.90314 235.47206Q558.46564 235.25331 558.23126 234.87831Q557.9969 234.50331 557.9969 234.03456Q557.9969 233.62831 558.1844 233.26894Q558.3719 232.90956 558.7 232.67519Q558.95 232.50331 559.3719 232.37831Q559.79376 232.25331 560.29376 232.25331Q561.0125 232.25331 561.5594 232.47206Q562.1219 232.67519 562.3875 233.03456Q562.65314 233.39394 562.7469 233.98769L561.71564 234.12831Q561.65314 233.65956 561.3094 233.39394Q560.98126 233.11269 560.35626 233.11269Q559.6375 233.11269 559.325 233.36269Q559.0125 233.59706 559.0125 233.92519Q559.0125 234.12831 559.1375 234.28456Q559.27814 234.45644 559.54376 234.56581Q559.7 234.62831 560.48126 234.83144Q561.60626 235.14394 562.04376 235.33144Q562.48126 235.51894 562.73126 235.87831Q562.98126 236.23769 562.98126 236.78456Q562.98126 237.31581 562.66876 237.78456Q562.3719 238.23769 561.79376 238.50331Q561.21564 238.75331 560.48126 238.75331Q559.2625 238.75331 558.6219 238.25331Q557.9969 237.73769 557.825 236.75331ZM565.2469 238.61269L565.2469 230.01894L566.29376 230.01894L566.29376 233.09706Q567.02814 232.25331 568.15314 232.25331Q568.85626 232.25331 569.35626 232.53456Q569.8719 232.80019 570.09064 233.28456Q570.3094 233.75331 570.3094 234.67519L570.3094 238.61269L569.2625 238.61269L569.2625 234.67519Q569.2625 233.87831 568.91876 233.51894Q568.575 233.15956 567.95 233.15956Q567.48126 233.15956 567.0594 233.40956Q566.65314 233.64394 566.46564 234.06581Q566.29376 234.47206 566.29376 235.20644L566.29376 238.61269L565.2469 238.61269ZM572.2469 231.23769L572.2469 230.01894L573.3094 230.01894L573.3094 231.23769L572.2469 231.23769ZM572.2469 238.61269L572.2469 232.39394L573.3094 232.39394L573.3094 238.61269L572.2469 238.61269ZM575.2469 241.00331L575.2469 232.39394L576.2 232.39394L576.2 233.19081Q576.54376 232.72206 576.96564 232.48769Q577.40314 232.25331 578.0125 232.25331Q578.8094 232.25331 579.41876 232.65956Q580.02814 233.06581 580.325 233.81581Q580.6375 234.56581 580.6375 235.45644Q580.6375 236.40956 580.29376 237.17519Q579.96564 237.94081 579.3094 238.34706Q578.65314 238.75331 577.9344 238.75331Q577.40314 238.75331 576.98126 238.53456Q576.5594 238.30019 576.29376 237.97206L576.29376 241.00331L575.2469 241.00331ZM576.2 235.53456Q576.2 236.73769 576.6844 237.31581Q577.16876 237.87831 577.85626 237.87831Q578.5594 237.87831 579.0594 237.28456Q579.5594 236.69081 579.5594 235.44081Q579.5594 234.25331 579.075 233.67519Q578.59064 233.08144 577.90314 233.08144Q577.23126 233.08144 576.71564 233.70644Q576.2 234.33144 576.2 235.53456Z" fill-rule="nonzero"/><path fill="#9e9e9e" d="M553.95 253.36269L555.0594 253.26894Q555.1844 254.08144 555.6219 254.48769Q556.075 254.89394 556.71564 254.89394Q557.46564 254.89394 557.9969 254.31581Q558.52814 253.73769 558.52814 252.80019Q558.52814 251.89394 558.0125 251.37831Q557.5125 250.84706 556.6844 250.84706Q556.1844 250.84706 555.7625 251.08144Q555.35626 251.31581 555.1219 251.67519L554.1375 251.55019L554.96564 247.14394L559.2469 247.14394L559.2469 248.14394L555.8094 248.14394L555.35626 250.45644Q556.1219 249.90956 556.96564 249.90956Q558.09064 249.90956 558.85626 250.69081Q559.6375 251.47206 559.6375 252.70644Q559.6375 253.86269 558.96564 254.72206Q558.1375 255.75331 556.71564 255.75331Q555.54376 255.75331 554.79376 255.09706Q554.0594 254.44081 553.95 253.36269ZM561.54376 255.61269L561.54376 254.40956L562.7469 254.40956L562.7469 255.61269L561.54376 255.61269ZM563.95 251.37831Q563.95 249.84706 564.2625 248.92519Q564.575 247.98769 565.1844 247.48769Q565.8094 246.98769 566.7469 246.98769Q567.4344 246.98769 567.95 247.26894Q568.48126 247.55019 568.825 248.08144Q569.16876 248.59706 569.35626 249.34706Q569.54376 250.09706 569.54376 251.37831Q569.54376 252.89394 569.23126 253.81581Q568.9344 254.73769 568.3094 255.25331Q567.7 255.75331 566.7469 255.75331Q565.5125 255.75331 564.79376 254.86269Q563.95 253.80019 563.95 251.37831ZM565.02814 251.37831Q565.02814 253.48769 565.52814 254.19081Q566.02814 254.89394 566.7469 254.89394Q567.48126 254.89394 567.96564 254.19081Q568.46564 253.48769 568.46564 251.37831Q568.46564 249.25331 567.96564 248.56581Q567.48126 247.86269 566.73126 247.86269Q566.0125 247.86269 565.575 248.47206Q565.02814 249.25331 565.02814 251.37831ZM571.15314 249.08144Q571.15314 248.15956 571.60626 247.51894Q572.075 246.87831 572.95 246.87831Q573.7625 246.87831 574.29376 247.45644Q574.825 248.03456 574.825 249.14394Q574.825 250.23769 574.27814 250.83144Q573.7469 251.40956 572.96564 251.40956Q572.1844 251.40956 571.66876 250.83144Q571.15314 250.25331 571.15314 249.08144ZM572.98126 247.59706Q572.59064 247.59706 572.325 247.94081Q572.075 248.28456 572.075 249.19081Q572.075 250.01894 572.325 250.36269Q572.59064 250.69081 572.98126 250.69081Q573.3875 250.69081 573.6375 250.34706Q573.90314 250.00331 573.90314 249.11269Q573.90314 248.26894 573.6375 247.94081Q573.3719 247.59706 572.98126 247.59706ZM572.98126 255.92519L577.6844 246.87831L578.54376 246.87831L573.85626 255.92519L572.98126 255.92519ZM576.7 253.59706Q576.7 252.67519 577.15314 252.03456Q577.6219 251.39394 578.5125 251.39394Q579.325 251.39394 579.85626 251.97206Q580.3875 252.53456 580.3875 253.65956Q580.3875 254.75331 579.84064 255.34706Q579.3094 255.92519 578.5125 255.92519Q577.7469 255.92519 577.21564 255.34706Q576.7 254.76894 576.7 253.59706ZM578.54376 252.11269Q578.1375 252.11269 577.8719 252.45644Q577.6219 252.80019 577.6219 253.70644Q577.6219 254.51894 577.8875 254.86269Q578.15314 255.20644 578.54376 255.20644Q578.9344 255.20644 579.2 254.86269Q579.46564 254.51894 579.46564 253.61269Q579.46564 252.78456 579.2 252.45644Q578.9344 252.11269 578.54376 252.11269Z" fill-rule="nonzero"/><path stroke="#757575" stroke-width="1.0" stroke-linecap="butt" d="M581.45 243.11269L454.76666 243.11269L435.7167 243.11269" fill-rule="nonzero"/><path fill="#9e9e9e" d="M437.7167 243.11269C437.7167 242.00812 436.8213 241.11269 435.7167 241.11269C434.61212 241.11269 433.7167 242.00812 433.7167 243.11269C433.7167 244.21725 434.61212 245.11269 435.7167 245.11269C436.8213 245.11269 437.7167 244.21725 437.7167 243.11269" fill-rule="nonzero"/><path fill="#1a1a1a" d="M542.4344 269.62143L545.73126 261.02768L546.95 261.02768L550.46564 269.62143L549.1844 269.62143L548.16876 267.01205L544.59064 267.01205L543.6375 269.62143L542.4344 269.62143ZM544.91876 266.09018L547.825 266.09018L546.9344 263.71518Q546.5125 262.63705 546.325 261.93393Q546.15314 262.76205 545.85626 263.57455L544.91876 266.09018ZM550.2469 262.24643L550.2469 261.02768L551.3094 261.02768L551.3094 262.24643L550.2469 262.24643ZM550.2469 269.62143L550.2469 263.40268L551.3094 263.40268L551.3094 269.62143L550.2469 269.62143ZM553.23126 269.62143L553.23126 263.40268L554.1844 263.40268L554.1844 264.34018Q554.54376 263.68393 554.84064 263.4808Q555.15314 263.26205 555.52814 263.26205Q556.0594 263.26205 556.60626 263.59018L556.2469 264.57455Q555.85626 264.34018 555.48126 264.34018Q555.1219 264.34018 554.84064 264.55893Q554.575 264.76205 554.46564 265.13705Q554.27814 265.69955 554.27814 266.3558L554.27814 269.62143L553.23126 269.62143ZM561.27814 269.62143L561.27814 268.84018Q560.6844 269.76205 559.54376 269.76205Q558.79376 269.76205 558.16876 269.3558Q557.54376 268.93393 557.2 268.19955Q556.85626 267.46518 556.85626 266.51205Q556.85626 265.59018 557.16876 264.82455Q557.48126 264.05893 558.10626 263.6683Q558.73126 263.26205 559.4969 263.26205Q560.0594 263.26205 560.4969 263.49643Q560.9344 263.7308 561.21564 264.1058L561.21564 261.02768L562.2625 261.02768L562.2625 269.62143L561.27814 269.62143ZM557.95 266.51205Q557.95 267.71518 558.45 268.30893Q558.95 268.88705 559.6375 268.88705Q560.325 268.88705 560.8094 268.32455Q561.29376 267.76205 561.29376 266.6058Q561.29376 265.32455 560.79376 264.7308Q560.3094 264.13705 559.59064 264.13705Q558.8875 264.13705 558.41876 264.71518Q557.95 265.27768 557.95 266.51205ZM564.23126 269.62143L564.23126 263.40268L565.1844 263.40268L565.1844 264.34018Q565.54376 263.68393 565.84064 263.4808Q566.15314 263.26205 566.52814 263.26205Q567.0594 263.26205 567.60626 263.59018L567.2469 264.57455Q566.85626 264.34018 566.48126 264.34018Q566.1219 264.34018 565.84064 264.55893Q565.575 264.76205 565.46564 265.13705Q565.27814 265.69955 565.27814 266.3558L565.27814 269.62143L564.23126 269.62143ZM567.85626 266.51205Q567.85626 264.77768 568.8094 263.94955Q569.60626 263.26205 570.7625 263.26205Q572.04376 263.26205 572.85626 264.1058Q573.6844 264.93393 573.6844 266.4183Q573.6844 267.62143 573.325 268.30893Q572.96564 268.99643 572.2625 269.38705Q571.575 269.76205 570.7625 269.76205Q569.46564 269.76205 568.65314 268.93393Q567.85626 268.09018 567.85626 266.51205ZM568.9344 266.51205Q568.9344 267.69955 569.45 268.2933Q569.98126 268.88705 570.7625 268.88705Q571.5594 268.88705 572.075 268.2933Q572.59064 267.69955 572.59064 266.4808Q572.59064 265.32455 572.0594 264.7308Q571.54376 264.13705 570.7625 264.13705Q569.98126 264.13705 569.45 264.7308Q568.9344 265.30893 568.9344 266.51205ZM575.2469 272.01205L575.2469 263.40268L576.2 263.40268L576.2 264.19955Q576.54376 263.7308 576.96564 263.49643Q577.40314 263.26205 578.0125 263.26205Q578.8094 263.26205 579.41876 263.6683Q580.02814 264.07455 580.325 264.82455Q580.6375 265.57455 580.6375 266.46518Q580.6375 267.4183 580.29376 268.18393Q579.96564 268.94955 579.3094 269.3558Q578.65314 269.76205 577.9344 269.76205Q577.40314 269.76205 576.98126 269.5433Q576.5594 269.30893 576.29376 268.9808L576.29376 272.01205L575.2469 272.01205ZM576.2 266.5433Q576.2 267.74643 576.6844 268.32455Q577.16876 268.88705 577.85626 268.88705Q578.5594 268.88705 579.0594 268.2933Q579.5594 267.69955 579.5594 266.44955Q579.5594 265.26205 579.075 264.68393Q578.59064 264.09018 577.90314 264.09018Q577.23126 264.09018 576.71564 264.71518Q576.2 265.34018 576.2 266.5433Z" fill-rule="nonzero"/><path fill="#9e9e9e" d="M553.95 284.3558L555.0125 284.21518Q555.1844 285.1058 555.6219 285.51205Q556.0594 285.90268 556.6844 285.90268Q557.4344 285.90268 557.95 285.38705Q558.46564 284.87143 558.46564 284.1058Q558.46564 283.38705 557.98126 282.9183Q557.5125 282.43393 556.77814 282.43393Q556.48126 282.43393 556.02814 282.55893L556.15314 281.62143Q556.2625 281.63705 556.325 281.63705Q556.9969 281.63705 557.52814 281.2933Q558.075 280.93393 558.075 280.19955Q558.075 279.62143 557.6844 279.24643Q557.29376 278.8558 556.66876 278.8558Q556.0594 278.8558 555.6375 279.24643Q555.23126 279.63705 555.1219 280.40268L554.0594 280.21518Q554.2469 279.1683 554.9344 278.59018Q555.6219 277.99643 556.6375 277.99643Q557.34064 277.99643 557.9344 278.30893Q558.52814 278.6058 558.84064 279.12143Q559.15314 279.63705 559.15314 280.2308Q559.15314 280.77768 558.85626 281.24643Q558.5594 281.69955 557.98126 281.96518Q558.73126 282.13705 559.15314 282.69955Q559.575 283.24643 559.575 284.09018Q559.575 285.21518 558.7469 285.99643Q557.9344 286.77768 556.6844 286.77768Q555.5594 286.77768 554.8094 286.1058Q554.0594 285.4183 553.95 284.3558ZM561.54376 286.62143L561.54376 285.4183L562.7469 285.4183L562.7469 286.62143L561.54376 286.62143ZM563.95 282.38705Q563.95 280.8558 564.2625 279.93393Q564.575 278.99643 565.1844 278.49643Q565.8094 277.99643 566.7469 277.99643Q567.4344 277.99643 567.95 278.27768Q568.48126 278.55893 568.825 279.09018Q569.16876 279.6058 569.35626 280.3558Q569.54376 281.1058 569.54376 282.38705Q569.54376 283.90268 569.23126 284.82455Q568.9344 285.74643 568.3094 286.26205Q567.7 286.76205 566.7469 286.76205Q565.5125 286.76205 564.79376 285.87143Q563.95 284.80893 563.95 282.38705ZM565.02814 282.38705Q565.02814 284.49643 565.52814 285.19955Q566.02814 285.90268 566.7469 285.90268Q567.48126 285.90268 567.96564 285.19955Q568.46564 284.49643 568.46564 282.38705Q568.46564 280.26205 567.96564 279.57455Q567.48126 278.87143 566.73126 278.87143Q566.0125 278.87143 565.575 279.4808Q565.02814 280.26205 565.02814 282.38705ZM571.15314 280.09018Q571.15314 279.1683 571.60626 278.52768Q572.075 277.88705 572.95 277.88705Q573.7625 277.88705 574.29376 278.46518Q574.825 279.0433 574.825 280.15268Q574.825 281.24643 574.27814 281.84018Q573.7469 282.4183 572.96564 282.4183Q572.1844 282.4183 571.66876 281.84018Q571.15314 281.26205 571.15314 280.09018ZM572.98126 278.6058Q572.59064 278.6058 572.325 278.94955Q572.075 279.2933 572.075 280.19955Q572.075 281.02768 572.325 281.37143Q572.59064 281.69955 572.98126 281.69955Q573.3875 281.69955 573.6375 281.3558Q573.90314 281.01205 573.90314 280.12143Q573.90314 279.27768 573.6375 278.94955Q573.3719 278.6058 572.98126 278.6058ZM572.98126 286.93393L577.6844 277.88705L578.54376 277.88705L573.85626 286.93393L572.98126 286.93393ZM576.7 284.6058Q576.7 283.68393 577.15314 283.0433Q577.6219 282.40268 578.5125 282.40268Q579.325 282.40268 579.85626 282.9808Q580.3875 283.5433 580.3875 284.6683Q580.3875 285.76205 579.84064 286.3558Q579.3094 286.93393 578.5125 286.93393Q577.7469 286.93393 577.21564 286.3558Q576.7 285.77768 576.7 284.6058ZM578.54376 283.12143Q578.1375 283.12143 577.8719 283.46518Q577.6219 283.80893 577.6219 284.71518Q577.6219 285.52768 577.8875 285.87143Q578.15314 286.21518 578.54376 286.21518Q578.9344 286.21518 579.2 285.87143Q579.46564 285.52768 579.46564 284.62143Q579.46564 283.7933 579.2 283.46518Q578.9344 283.12143 578.54376 283.12143Z" fill-rule="nonzero"/><path stroke="#757575" stroke-width="1.0" stroke-linecap="butt" d="M581.45 274.12143L454.76666 274.12143L421.64725 275.6253" fill-rule="nonzero"/><path fill="#9e9e9e" d="M423.64725 275.6253C423.64725 274.52075 422.7518 273.6253 421.64725 273.6253C420.54266 273.6253 419.64725 274.52075 419.64725 275.6253C419.64725 276.7299 420.54266 277.6253 421.64725 277.6253C422.7518 277.6253 423.64725 276.7299 423.64725 275.6253" fill-rule="nonzero"/><path fill="#1a1a1a" d="M530.3719 300.62143L530.3719 292.02768L533.34064 292.02768Q534.34064 292.02768 534.8719 292.15268Q535.60626 292.32455 536.1219 292.76205Q536.8094 293.34018 537.1375 294.24643Q537.48126 295.13705 537.48126 296.27768Q537.48126 297.26205 537.2469 298.01205Q537.02814 298.76205 536.66876 299.26205Q536.3094 299.76205 535.8719 300.0433Q535.45 300.32455 534.85626 300.4808Q534.2625 300.62143 533.48126 300.62143L530.3719 300.62143ZM531.5125 299.6058L533.34064 299.6058Q534.2 299.6058 534.6844 299.44955Q535.16876 299.2933 535.45 298.99643Q535.85626 298.6058 536.075 297.9183Q536.3094 297.2308 536.3094 296.26205Q536.3094 294.9183 535.85626 294.19955Q535.41876 293.46518 534.79376 293.21518Q534.325 293.0433 533.325 293.0433L531.5125 293.0433L531.5125 299.6058ZM543.4969 298.62143L544.59064 298.74643Q544.34064 299.69955 543.6375 300.2308Q542.9344 300.76205 541.85626 300.76205Q540.4969 300.76205 539.6844 299.9183Q538.8875 299.07455 538.8875 297.55893Q538.8875 295.99643 539.7 295.13705Q540.5125 294.26205 541.79376 294.26205Q543.04376 294.26205 543.825 295.1058Q544.6219 295.94955 544.6219 297.49643Q544.6219 297.59018 544.6219 297.77768L539.98126 297.77768Q540.04376 298.80893 540.5594 299.3558Q541.075 299.88705 541.85626 299.88705Q542.4344 299.88705 542.84064 299.59018Q543.2625 299.27768 543.4969 298.62143ZM540.04376 296.9183L543.5125 296.9183Q543.45 296.12143 543.1219 295.7308Q542.60626 295.12143 541.8094 295.12143Q541.075 295.12143 540.575 295.6058Q540.09064 296.09018 540.04376 296.9183ZM547.96564 300.62143L545.60626 294.40268L546.71564 294.40268L548.0594 298.12143Q548.2625 298.7308 548.45 299.37143Q548.59064 298.88705 548.84064 298.19955L550.23126 294.40268L551.3094 294.40268L548.95 300.62143L547.96564 300.62143ZM554.4344 300.62143L554.4344 292.02768L560.23126 292.02768L560.23126 293.0433L555.575 293.0433L555.575 295.69955L559.60626 295.69955L559.60626 296.71518L555.575 296.71518L555.575 300.62143L554.4344 300.62143ZM565.325 300.62143L565.325 299.69955Q564.59064 300.76205 563.34064 300.76205Q562.79376 300.76205 562.3094 300.55893Q561.84064 300.34018 561.60626 300.02768Q561.3719 299.69955 561.27814 299.2308Q561.21564 298.93393 561.21564 298.24643L561.21564 294.40268L562.27814 294.40268L562.27814 297.8558Q562.27814 298.6683 562.34064 298.96518Q562.4344 299.37143 562.7469 299.62143Q563.075 299.8558 563.5594 299.8558Q564.02814 299.8558 564.4344 299.62143Q564.85626 299.37143 565.02814 298.94955Q565.21564 298.52768 565.21564 297.7308L565.21564 294.40268L566.2625 294.40268L566.2625 300.62143L565.325 300.62143ZM568.2469 300.62143L568.2469 294.40268L569.1844 294.40268L569.1844 295.27768Q569.8719 294.26205 571.16876 294.26205Q571.73126 294.26205 572.2 294.46518Q572.6844 294.6683 572.91876 294.99643Q573.15314 295.32455 573.2469 295.76205Q573.29376 296.05893 573.29376 296.7933L573.29376 300.62143L572.2469 300.62143L572.2469 296.84018Q572.2469 296.18393 572.1219 295.87143Q571.9969 295.55893 571.6844 295.37143Q571.3719 295.1683 570.95 295.1683Q570.27814 295.1683 569.77814 295.6058Q569.29376 296.02768 569.29376 297.21518L569.29376 300.62143L568.2469 300.62143ZM579.27814 300.62143L579.27814 299.84018Q578.6844 300.76205 577.54376 300.76205Q576.79376 300.76205 576.16876 300.3558Q575.54376 299.93393 575.2 299.19955Q574.85626 298.46518 574.85626 297.51205Q574.85626 296.59018 575.16876 295.82455Q575.48126 295.05893 576.10626 294.6683Q576.73126 294.26205 577.4969 294.26205Q578.0594 294.26205 578.4969 294.49643Q578.9344 294.7308 579.21564 295.1058L579.21564 292.02768L580.2625 292.02768L580.2625 300.62143L579.27814 300.62143ZM575.95 297.51205Q575.95 298.71518 576.45 299.30893Q576.95 299.88705 577.6375 299.88705Q578.325 299.88705 578.8094 299.32455Q579.29376 298.76205 579.29376 297.6058Q579.29376 296.32455 578.79376 295.7308Q578.3094 295.13705 577.59064 295.13705Q576.8875 295.13705 576.41876 295.71518Q575.95 296.27768 575.95 297.51205Z" fill-rule="nonzero"/><path fill="#9e9e9e" d="M553.95 315.37143L555.0594 315.27768Q555.1844 316.09018 555.6219 316.49643Q556.075 316.90268 556.71564 316.90268Q557.46564 316.90268 557.9969 316.32455Q558.52814 315.74643 558.52814 314.80893Q558.52814 313.90268 558.0125 313.38705Q557.5125 312.8558 556.6844 312.8558Q556.1844 312.8558 555.7625 313.09018Q555.35626 313.32455 555.1219 313.68393L554.1375 313.55893L554.96564 309.15268L559.2469 309.15268L559.2469 310.15268L555.8094 310.15268L555.35626 312.46518Q556.1219 311.9183 556.96564 311.9183Q558.09064 311.9183 558.85626 312.69955Q559.6375 313.4808 559.6375 314.71518Q559.6375 315.87143 558.96564 316.7308Q558.1375 317.76205 556.71564 317.76205Q555.54376 317.76205 554.79376 317.1058Q554.0594 316.44955 553.95 315.37143ZM561.54376 317.62143L561.54376 316.4183L562.7469 316.4183L562.7469 317.62143L561.54376 317.62143ZM563.95 313.38705Q563.95 311.8558 564.2625 310.93393Q564.575 309.99643 565.1844 309.49643Q565.8094 308.99643 566.7469 308.99643Q567.4344 308.99643 567.95 309.27768Q568.48126 309.55893 568.825 310.09018Q569.16876 310.6058 569.35626 311.3558Q569.54376 312.1058 569.54376 313.38705Q569.54376 314.90268 569.23126 315.82455Q568.9344 316.74643 568.3094 317.26205Q567.7 317.76205 566.7469 317.76205Q565.5125 317.76205 564.79376 316.87143Q563.95 315.80893 563.95 313.38705ZM565.02814 313.38705Q565.02814 315.49643 565.52814 316.19955Q566.02814 316.90268 566.7469 316.90268Q567.48126 316.90268 567.96564 316.19955Q568.46564 315.49643 568.46564 313.38705Q568.46564 311.26205 567.96564 310.57455Q567.48126 309.87143 566.73126 309.87143Q566.0125 309.87143 565.575 310.4808Q565.02814 311.26205 565.02814 313.38705ZM571.15314 311.09018Q571.15314 310.1683 571.60626 309.52768Q572.075 308.88705 572.95 308.88705Q573.7625 308.88705 574.29376 309.46518Q574.825 310.0433 574.825 311.15268Q574.825 312.24643 574.27814 312.84018Q573.7469 313.4183 572.96564 313.4183Q572.1844 313.4183 571.66876 312.84018Q571.15314 312.26205 571.15314 311.09018ZM572.98126 309.6058Q572.59064 309.6058 572.325 309.94955Q572.075 310.2933 572.075 311.19955Q572.075 312.02768 572.325 312.37143Q572.59064 312.69955 572.98126 312.69955Q573.3875 312.69955 573.6375 312.3558Q573.90314 312.01205 573.90314 311.12143Q573.90314 310.27768 573.6375 309.94955Q573.3719 309.6058 572.98126 309.6058ZM572.98126 317.93393L577.6844 308.88705L578.54376 308.88705L573.85626 317.93393L572.98126 317.93393ZM576.7 315.6058Q576.7 314.68393 577.15314 314.0433Q577.6219 313.40268 578.5125 313.40268Q579.325 313.40268 579.85626 313.9808Q580.3875 314.5433 580.3875 315.6683Q580.3875 316.76205 579.84064 317.3558Q579.3094 317.93393 578.5125 317.93393Q577.7469 317.93393 577.21564 317.3558Q576.7 316.77768 576.7 315.6058ZM578.54376 314.12143Q578.1375 314.12143 577.8719 314.46518Q577.6219 314.80893 577.6219 315.71518Q577.6219 316.52768 577.8875 316.87143Q578.15314 317.21518 578.54376 317.21518Q578.9344 317.21518 579.2 316.87143Q579.46564 316.52768 579.46564 315.62143Q579.46564 314.7933 579.2 314.46518Q578.9344 314.12143 578.54376 314.12143Z" fill-rule="nonzero"/><path stroke="#757575" stroke-width="1.0" stroke-linecap="butt" d="M581.45 305.12143L454.76666 305.12143L399.93423 303.61755" fill-rule="nonzero"/><path fill="#9e9e9e" d="M401.93423 303.61755C401.93423 302.513 401.0388 301.61755 399.93423 301.61755C398.82965 301.61755 397.93423 302.513 397.93423 303.61755C397.93423 304.72214 398.82965 305.61755 399.93423 305.61755C401.0388 305.61755 401.93423 304.72214 401.93423 303.61755" fill-rule="nonzero"/><path fill="#757575" d="M20.096874 37.55L20.096874 23.2375L25.01875 23.2375Q26.690624 23.2375 27.58125 23.440624Q28.8 23.721874 29.675 24.45625Q30.8 25.425 31.3625 26.909374Q31.925 28.39375 31.925 30.315624Q31.925 31.940624 31.55 33.20625Q31.175 34.45625 30.565624 35.284374Q29.971874 36.1125 29.26875 36.596874Q28.565624 37.065624 27.565624 37.315624Q26.565624 37.55 25.253124 37.55L20.096874 37.55ZM21.9875 35.8625L25.05 35.8625Q26.45625 35.8625 27.253124 35.596874Q28.065624 35.33125 28.55 34.846874Q29.221874 34.175 29.596874 33.05Q29.971874 31.909374 29.971874 30.284374Q29.971874 28.034374 29.2375 26.83125Q28.503124 25.628124 27.440624 25.221874Q26.690624 24.925 25.003124 24.925L21.9875 24.925L21.9875 35.8625ZM33.878124 25.253124L33.878124 23.2375L35.64375 23.2375L35.64375 25.253124L33.878124 25.253124ZM33.878124 37.55L33.878124 27.175L35.64375 27.175L35.64375 37.55L33.878124 37.55ZM37.159374 34.45625L38.909374 34.175Q39.05 35.221874 39.721874 35.784374Q40.39375 36.33125 41.596874 36.33125Q42.8 36.33125 43.378124 35.846874Q43.971874 35.346874 43.971874 34.690624Q43.971874 34.096874 43.45625 33.753124Q43.096874 33.51875 41.659374 33.159374Q39.721874 32.659374 38.971874 32.315624Q38.2375 31.95625 37.846874 31.33125Q37.45625 30.690624 37.45625 29.925Q37.45625 29.2375 37.76875 28.64375Q38.096874 28.05 38.64375 27.659374Q39.05 27.3625 39.753124 27.159374Q40.471874 26.940624 41.284374 26.940624Q42.503124 26.940624 43.425 27.3Q44.346874 27.64375 44.784374 28.253124Q45.221874 28.846874 45.39375 29.846874L43.675 30.08125Q43.55 29.284374 42.9875 28.846874Q42.425 28.39375 41.409374 28.39375Q40.190624 28.39375 39.675 28.8Q39.159374 29.190624 39.159374 29.721874Q39.159374 30.065624 39.378124 30.346874Q39.58125 30.628124 40.05 30.815624Q40.315624 30.909374 41.596874 31.253124Q43.471874 31.753124 44.20625 32.08125Q44.940624 32.39375 45.3625 33.003124Q45.784374 33.596874 45.784374 34.503124Q45.784374 35.378124 45.26875 36.159374Q44.753124 36.940624 43.784374 37.3625Q42.815624 37.784374 41.596874 37.784374Q39.58125 37.784374 38.51875 36.940624Q37.45625 36.096874 37.159374 34.45625ZM51.70625 35.971874L51.95625 37.534374Q51.221874 37.690624 50.628124 37.690624Q49.675 37.690624 49.14375 37.39375Q48.628124 37.08125 48.409374 36.596874Q48.190624 36.096874 48.190624 34.51875L48.190624 28.55L46.909374 28.55L46.909374 27.175L48.190624 27.175L48.190624 24.6125L49.940624 23.55L49.940624 27.175L51.70625 27.175L51.70625 28.55L49.940624 28.55L49.940624 34.6125Q49.940624 35.3625 50.034374 35.58125Q50.128124 35.784374 50.33125 35.925Q50.55 36.05 50.940624 36.05Q51.221874 36.05 51.70625 35.971874ZM53.846874 37.55L53.846874 27.175L55.425 27.175L55.425 28.753124Q56.034374 27.64375 56.55 27.3Q57.065624 26.940624 57.675 26.940624Q58.565624 26.940624 59.4875 27.503124L58.878124 29.14375Q58.2375 28.753124 57.596874 28.753124Q57.01875 28.753124 56.55 29.1125Q56.096874 29.45625 55.89375 30.065624Q55.6125 31.003124 55.6125 32.1125L55.6125 37.55L53.846874 37.55ZM60.878124 25.253124L60.878124 23.2375L62.64375 23.2375L62.64375 25.253124L60.878124 25.253124ZM60.878124 37.55L60.878124 27.175L62.64375 27.175L62.64375 37.55L60.878124 37.55ZM66.4875 37.55L64.8625 37.55L64.8625 23.2375L66.6125 23.2375L66.6125 28.346874Q67.7375 26.940624 69.45625 26.940624Q70.40938 26.940624 71.26875 27.33125Q72.12813 27.721874 72.675 28.425Q73.22188 29.1125 73.53438 30.096874Q73.84688 31.08125 73.84688 32.20625Q73.84688 34.878124 72.53438 36.33125Q71.22188 37.784374 69.37813 37.784374Q67.53438 37.784374 66.4875 36.253124L66.4875 37.55ZM66.47188 32.284374Q66.47188 34.14375 66.97188 34.9875Q67.81563 36.33125 69.22188 36.33125Q70.37813 36.33125 71.20625 35.33125Q72.05 34.33125 72.05 32.346874Q72.05 30.315624 71.2375 29.3625Q70.44063 28.39375 69.3 28.39375Q68.14375 28.39375 67.3 29.39375Q66.47188 30.39375 66.47188 32.284374ZM82.65938 37.55L82.65938 36.01875Q81.45625 37.784374 79.37813 37.784374Q78.45625 37.784374 77.65938 37.440624Q76.8625 37.08125 76.47188 36.55Q76.09688 36.01875 75.94063 35.2375Q75.83125 34.721874 75.83125 33.596874L75.83125 27.175L77.58125 27.175L77.58125 32.925Q77.58125 34.3 77.69063 34.784374Q77.8625 35.471874 78.39375 35.878124Q78.94063 36.26875 79.72188 36.26875Q80.51875 36.26875 81.20625 35.8625Q81.90938 35.45625 82.19063 34.76875Q82.4875 34.065624 82.4875 32.7375L82.4875 27.175L84.2375 27.175L84.2375 37.55L82.65938 37.55ZM89.70625 35.971874L89.95625 37.534374Q89.22188 37.690624 88.62813 37.690624Q87.675 37.690624 87.14375 37.39375Q86.62813 37.08125 86.40938 36.596874Q86.19063 36.096874 86.19063 34.51875L86.19063 28.55L84.90938 28.55L84.90938 27.175L86.19063 27.175L86.19063 24.6125L87.94063 23.55L87.94063 27.175L89.70625 27.175L89.70625 28.55L87.94063 28.55L87.94063 34.6125Q87.94063 35.3625 88.03438 35.58125Q88.12813 35.784374 88.33125 35.925Q88.55 36.05 88.94063 36.05Q89.22188 36.05 89.70625 35.971874ZM91.87813 25.253124L91.87813 23.2375L93.64375 23.2375L93.64375 25.253124L91.87813 25.253124ZM91.87813 37.55L91.87813 27.175L93.64375 27.175L93.64375 37.55L91.87813 37.55ZM95.22188 32.3625Q95.22188 29.4875 96.81563 28.096874Q98.15938 26.940624 100.08125 26.940624Q102.22188 26.940624 103.56563 28.346874Q104.925 29.753124 104.925 32.221874Q104.925 34.221874 104.33125 35.378124Q103.7375 36.51875 102.58125 37.159374Q101.44063 37.784374 100.08125 37.784374Q97.89375 37.784374 96.55 36.39375Q95.22188 34.9875 95.22188 32.3625ZM97.01875 32.3625Q97.01875 34.3625 97.87813 35.346874Q98.75313 36.33125 100.08125 36.33125Q101.39375 36.33125 102.25313 35.346874Q103.12813 34.346874 103.12813 32.3Q103.12813 30.378124 102.25313 29.39375Q101.37813 28.39375 100.08125 28.39375Q98.75313 28.39375 97.87813 29.39375Q97.01875 30.378124 97.01875 32.3625ZM106.8625 37.55L106.8625 27.175L108.45625 27.175L108.45625 28.659374Q109.59688 26.940624 111.75313 26.940624Q112.69063 26.940624 113.47188 27.284374Q114.26875 27.6125 114.65938 28.159374Q115.05 28.70625 115.20625 29.45625Q115.3 29.95625 115.3 31.175L115.3 37.55L113.53438 37.55L113.53438 31.2375Q113.53438 30.159374 113.33125 29.628124Q113.12813 29.096874 112.59688 28.784374Q112.08125 28.471874 111.37813 28.471874Q110.25313 28.471874 109.44063 29.190624Q108.62813 29.89375 108.62813 31.878124L108.62813 37.55L106.8625 37.55ZM123.09688 37.55L123.09688 23.2375L128.4875 23.2375Q129.925 23.2375 130.675 23.3625Q131.72188 23.55 132.44063 24.05Q133.15938 24.534374 133.58125 25.425Q134.01875 26.315624 134.01875 27.378124Q134.01875 29.20625 132.84688 30.471874Q131.69063 31.721874 128.65938 31.721874L124.9875 31.721874L124.9875 37.55L123.09688 37.55ZM124.9875 30.034374L128.69063 30.034374Q130.51875 30.034374 131.28438 29.3625Q132.06563 28.675 132.06563 27.425Q132.06563 26.534374 131.6125 25.89375Q131.15938 25.253124 130.425 25.05Q129.94063 24.925 128.64375 24.925L124.9875 24.925L124.9875 30.034374ZM135.87813 25.253124L135.87813 23.2375L137.64375 23.2375L137.64375 25.253124L135.87813 25.253124ZM135.87813 37.55L135.87813 27.175L137.64375 27.175L137.64375 37.55L135.87813 37.55ZM146.97188 34.20625L148.78438 34.440624Q148.3625 36.01875 147.19063 36.909374Q146.03438 37.784374 144.22188 37.784374Q141.95625 37.784374 140.6125 36.39375Q139.28438 34.9875 139.28438 32.45625Q139.28438 29.83125 140.62813 28.39375Q141.97188 26.940624 144.12813 26.940624Q146.20625 26.940624 147.51875 28.3625Q148.84688 29.76875 148.84688 32.346874Q148.84688 32.503124 148.83125 32.815624L141.09688 32.815624Q141.19063 34.51875 142.06563 35.425Q142.94063 36.33125 144.2375 36.33125Q145.20625 36.33125 145.87813 35.83125Q146.56563 35.315624 146.97188 34.20625ZM141.19063 31.3625L146.9875 31.3625Q146.87813 30.065624 146.33125 29.409374Q145.4875 28.39375 144.14375 28.39375Q142.94063 28.39375 142.1125 29.20625Q141.28438 30.003124 141.19063 31.3625ZM167.31563 32.534374L169.20625 33.003124Q168.6125 35.346874 167.06563 36.58125Q165.51875 37.8 163.26875 37.8Q160.95625 37.8 159.50313 36.8625Q158.06563 35.909374 157.3 34.128124Q156.55 32.33125 156.55 30.284374Q156.55 28.05 157.39375 26.39375Q158.25313 24.721874 159.83125 23.8625Q161.40938 22.9875 163.3 22.9875Q165.45625 22.9875 166.90938 24.08125Q168.37813 25.175 168.95625 27.159374L167.09688 27.596874Q166.59688 26.034374 165.64375 25.33125Q164.70625 24.6125 163.26875 24.6125Q161.6125 24.6125 160.50313 25.409374Q159.39375 26.190624 158.94063 27.534374Q158.50313 28.8625 158.50313 30.26875Q158.50313 32.096874 159.03438 33.471874Q159.56563 34.83125 160.69063 35.503124Q161.81563 36.175 163.1125 36.175Q164.70625 36.175 165.81563 35.253124Q166.925 34.33125 167.31563 32.534374ZM170.8625 37.55L170.8625 23.2375L172.62813 23.2375L172.62813 28.3625Q173.8625 26.940624 175.7375 26.940624Q176.87813 26.940624 177.72188 27.39375Q178.58125 27.846874 178.94063 28.659374Q179.31563 29.45625 179.31563 30.971874L179.31563 37.55L177.56563 37.55L177.56563 30.971874Q177.56563 29.659374 176.9875 29.065624Q176.40938 28.45625 175.37813 28.45625Q174.59688 28.45625 173.89375 28.8625Q173.20625 29.26875 172.90938 29.971874Q172.62813 30.659374 172.62813 31.878124L172.62813 37.55L170.8625 37.55ZM187.64375 36.26875Q186.65938 37.096874 185.75313 37.440624Q184.84688 37.784374 183.81563 37.784374Q182.1125 37.784374 181.19063 36.95625Q180.26875 36.1125 180.26875 34.815624Q180.26875 34.05 180.6125 33.425Q180.97188 32.8 181.53438 32.425Q182.09688 32.034374 182.8 31.83125Q183.31563 31.70625 184.3625 31.565624Q186.4875 31.315624 187.4875 30.971874Q187.50313 30.6125 187.50313 30.503124Q187.50313 29.440624 187.00313 28.9875Q186.33125 28.39375 185.00313 28.39375Q183.75313 28.39375 183.15938 28.83125Q182.58125 29.26875 182.3 30.378124L180.58125 30.14375Q180.81563 29.034374 181.34688 28.3625Q181.87813 27.675 182.89375 27.315624Q183.90938 26.940624 185.25313 26.940624Q186.58125 26.940624 187.40938 27.253124Q188.2375 27.565624 188.62813 28.05Q189.01875 28.51875 189.175 29.2375Q189.26875 29.690624 189.26875 30.8625L189.26875 33.20625Q189.26875 35.659374 189.37813 36.315624Q189.4875 36.95625 189.83125 37.55L187.9875 37.55Q187.72188 37.003124 187.64375 36.26875ZM187.4875 32.346874Q186.53438 32.7375 184.6125 33.003124Q183.53438 33.159374 183.08125 33.3625Q182.64375 33.55 182.39375 33.925Q182.14375 34.3 182.14375 34.76875Q182.14375 35.471874 182.675 35.940624Q183.20625 36.409374 184.2375 36.409374Q185.25313 36.409374 186.03438 35.971874Q186.83125 35.51875 187.20625 34.753124Q187.4875 34.14375 187.4875 32.9875L187.4875 32.346874ZM191.84688 37.55L191.84688 27.175L193.425 27.175L193.425 28.753124Q194.03438 27.64375 194.55 27.3Q195.06563 26.940624 195.675 26.940624Q196.56563 26.940624 197.4875 27.503124L196.87813 29.14375Q196.2375 28.753124 195.59688 28.753124Q195.01875 28.753124 194.55 29.1125Q194.09688 29.45625 193.89375 30.065624Q193.6125 31.003124 193.6125 32.1125L193.6125 37.55L191.84688 37.55ZM202.70625 35.971874L202.95625 37.534374Q202.22188 37.690624 201.62813 37.690624Q200.675 37.690624 200.14375 37.39375Q199.62813 37.08125 199.40938 36.596874Q199.19063 36.096874 199.19063 34.51875L199.19063 28.55L197.90938 28.55L197.90938 27.175L199.19063 27.175L199.19063 24.6125L200.94063 23.55L200.94063 27.175L202.70625 27.175L202.70625 28.55L200.94063 28.55L200.94063 34.6125Q200.94063 35.3625 201.03438 35.58125Q201.12813 35.784374 201.33125 35.925Q201.55 36.05 201.94063 36.05Q202.22188 36.05 202.70625 35.971874Z" fill-rule="nonzero"/></svg>