<svg version="1.1" viewBox="0.0 0.0 1008.0 493.0" fill="none" stroke="none" stroke-linecap="square" stroke-miterlimit="10" width="1008" height="493" xmlns:xlink="http://www.w3.org/1999/xlink" xmlns="http://www.w3.org/2000/svg"><path fill="#ffffff" d="M0 0L1008.0 0L1008.0 493.0L0 493.0L0 0Z" fill-rule="nonzero"/><path fill="#4285f4" d="M504.0 65.083336C546.58075 65.083336 588.06854 78.56352 622.5171 103.59187L504.0 266.71667Z" fill-rule="nonzero"/><path fill="#ea4335" d="M622.5171 103.59187C682.0183 146.82202 713.26135 219.02045 704.0434 291.98804L504.0 266.71667Z" fill-rule="nonzero"/><path fill="#fbbc04" d="M704.0434 291.98804C701.39154 312.9797 695.45215 333.42316 686.4433 352.56796L504.0 266.71667Z" fill-rule="nonzero"/><path fill="#34a853" d="M686.4433 352.56796C681.0451 364.0397 674.57697 374.97675 667.1248 385.23376L504.0 266.71667Z" fill-rule="nonzero"/><path fill="#ff6d01" d="M667.1248 385.23376C654.6881 402.35138 639.6347 417.4048 622.5171 429.84146L504.0 266.71667Z" fill-rule="nonzero"/><path fill="#46bdc6" d="M622.5171 429.84146C551.84717 481.1862 456.15283 481.1862 385.4829 429.84146C314.81296 378.49673 285.2418 287.48605 312.2353 204.40854C339.22882 121.33104 416.64716 65.083336 504.0 65.083336L504.0 266.71667Z" fill-rule="nonzero"/><path fill="#1a1a1a" d="M25.540625 321.4094L25.540625 312.81564L27.259375 312.81564L29.290625 318.89377Q29.571875 319.75314 29.696875 320.17502Q29.8375 319.70627 30.15 318.80002L32.2125 312.81564L33.74375 312.81564L33.74375 321.4094L32.65 321.4094L32.65 314.2219L30.15 321.4094L29.11875 321.4094L26.634375 314.0969L26.634375 321.4094L25.540625 321.4094ZM34.446877 314.0344L34.446877 312.81564L35.509377 312.81564L35.509377 314.0344L34.446877 314.0344ZM34.446877 321.4094L34.446877 315.19064L35.509377 315.19064L35.509377 321.4094L34.446877 321.4094ZM37.446877 321.4094L37.446877 315.19064L38.384377 315.19064L38.384377 316.06564Q39.071877 315.05002 40.36875 315.05002Q40.93125 315.05002 41.4 315.25314Q41.884377 315.45627 42.11875 315.7844Q42.353127 316.11252 42.446877 316.55002Q42.49375 316.8469 42.49375 317.58127L42.49375 321.4094L41.446877 321.4094L41.446877 317.62814Q41.446877 316.9719 41.321877 316.6594Q41.196877 316.3469 40.884377 316.1594Q40.571877 315.95627 40.15 315.95627Q39.478127 315.95627 38.978127 316.39377Q38.49375 316.81564 38.49375 318.00314L38.49375 321.4094L37.446877 321.4094ZM44.446877 314.0344L44.446877 312.81564L45.509377 312.81564L45.509377 314.0344L44.446877 314.0344ZM44.446877 321.4094L44.446877 315.19064L45.509377 315.19064L45.509377 321.4094L44.446877 321.4094ZM47.446877 321.4094L47.446877 315.19064L48.384377 315.19064L48.384377 316.06564Q49.071877 315.05002 50.36875 315.05002Q50.93125 315.05002 51.4 315.25314Q51.884377 315.45627 52.11875 315.7844Q52.353127 316.11252 52.446877 316.55002Q52.49375 316.8469 52.49375 317.58127L52.49375 321.4094L51.446877 321.4094L51.446877 317.62814Q51.446877 316.9719 51.321877 316.6594Q51.196877 316.3469 50.884377 316.1594Q50.571877 315.95627 50.15 315.95627Q49.478127 315.95627 48.978127 316.39377Q48.49375 316.81564 48.49375 318.00314L48.49375 321.4094L47.446877 321.4094ZM54.24375 321.92502L55.275 322.08127Q55.3375 322.55002 55.634377 322.76877Q56.025 323.06564 56.696877 323.06564Q57.43125 323.06564 57.821877 322.76877Q58.228127 322.4719 58.36875 321.95627Q58.4625 321.62814 58.446877 320.5969Q57.759377 321.4094 56.728127 321.4094Q55.446877 321.4094 54.74375 320.48752Q54.040627 319.55002 54.040627 318.26877Q54.040627 317.37814 54.353127 316.62814Q54.68125 315.86252 55.290627 315.45627Q55.9 315.05002 56.728127 315.05002Q57.8375 315.05002 58.55625 315.94064L58.55625 315.19064L59.525 315.19064L59.525 320.56564Q59.525 322.01877 59.228127 322.62814Q58.93125 323.23752 58.290627 323.58127Q57.65 323.94064 56.7125 323.94064Q55.603127 323.94064 54.915627 323.44064Q54.228127 322.94064 54.24375 321.92502ZM55.11875 318.19064Q55.11875 319.4094 55.603127 319.9719Q56.0875 320.5344 56.821877 320.5344Q57.55625 320.5344 58.040627 319.9719Q58.540627 319.4094 58.540627 318.2219Q58.540627 317.08127 58.025 316.50314Q57.525 315.92502 56.80625 315.92502Q56.103127 315.92502 55.603127 316.50314Q55.11875 317.06564 55.11875 318.19064Z" fill-rule="nonzero"/><path fill="#9e9e9e" d="M30.61875 331.92502L29.571875 332.00314Q29.43125 331.37814 29.18125 331.0969Q28.74375 330.64377 28.11875 330.64377Q27.61875 330.64377 27.228125 330.92502Q26.74375 331.30002 26.446875 332.00314Q26.165625 332.69064 26.15 333.9719Q26.525 333.39377 27.071875 333.11252Q27.634375 332.83127 28.24375 332.83127Q29.290625 332.83127 30.025 333.61252Q30.775 334.39377 30.775 335.61252Q30.775 336.42502 30.415625 337.12814Q30.071875 337.81564 29.4625 338.19064Q28.853125 338.55002 28.0875 338.55002Q26.759375 338.55002 25.93125 337.58127Q25.103125 336.61252 25.103125 334.39377Q25.103125 331.89377 26.025 330.76877Q26.821875 329.7844 28.18125 329.7844Q29.196875 329.7844 29.8375 330.36252Q30.49375 330.92502 30.61875 331.92502ZM26.321875 335.62814Q26.321875 336.17502 26.540625 336.67502Q26.775 337.1594 27.18125 337.42502Q27.603125 337.69064 28.071875 337.69064Q28.728125 337.69064 29.2125 337.1594Q29.696875 336.61252 29.696875 335.69064Q29.696875 334.80002 29.2125 334.2844Q28.74375 333.76877 28.025 333.76877Q27.30625 333.76877 26.80625 334.2844Q26.321875 334.80002 26.321875 335.62814ZM32.15 334.17502Q32.15 332.64377 32.4625 331.7219Q32.775 330.7844 33.384377 330.2844Q34.009377 329.7844 34.946877 329.7844Q35.634377 329.7844 36.15 330.06564Q36.68125 330.3469 37.025 330.87814Q37.36875 331.39377 37.55625 332.14377Q37.74375 332.89377 37.74375 334.17502Q37.74375 335.69064 37.43125 336.61252Q37.134377 337.5344 36.509377 338.05002Q35.9 338.55002 34.946877 338.55002Q33.7125 338.55002 32.99375 337.6594Q32.15 336.5969 32.15 334.17502ZM33.228127 334.17502Q33.228127 336.2844 33.728127 336.98752Q34.228127 337.69064 34.946877 337.69064Q35.68125 337.69064 36.165627 336.98752Q36.665627 336.2844 36.665627 334.17502Q36.665627 332.05002 36.165627 331.36252Q35.68125 330.6594 34.93125 330.6594Q34.2125 330.6594 33.775 331.26877Q33.228127 332.05002 33.228127 334.17502ZM39.74375 338.4094L39.74375 337.20627L40.946877 337.20627L40.946877 338.4094L39.74375 338.4094ZM42.15 334.17502Q42.15 332.64377 42.4625 331.7219Q42.775 330.7844 43.384377 330.2844Q44.009377 329.7844 44.946877 329.7844Q45.634377 329.7844 46.15 330.06564Q46.68125 330.3469 47.025 330.87814Q47.36875 331.39377 47.55625 332.14377Q47.74375 332.89377 47.74375 334.17502Q47.74375 335.69064 47.43125 336.61252Q47.134377 337.5344 46.509377 338.05002Q45.9 338.55002 44.946877 338.55002Q43.7125 338.55002 42.99375 337.6594Q42.15 336.5969 42.15 334.17502ZM43.228127 334.17502Q43.228127 336.2844 43.728127 336.98752Q44.228127 337.69064 44.946877 337.69064Q45.68125 337.69064 46.165627 336.98752Q46.665627 336.2844 46.665627 334.17502Q46.665627 332.05002 46.165627 331.36252Q45.68125 330.6594 44.93125 330.6594Q44.2125 330.6594 43.775 331.26877Q43.228127 332.05002 43.228127 334.17502ZM49.353127 331.87814Q49.353127 330.95627 49.80625 330.31564Q50.275 329.67502 51.15 329.67502Q51.9625 329.67502 52.49375 330.25314Q53.025 330.83127 53.025 331.94064Q53.025 333.0344 52.478127 333.62814Q51.946877 334.20627 51.165627 334.20627Q50.384377 334.20627 49.86875 333.62814Q49.353127 333.05002 49.353127 331.87814ZM51.18125 330.39377Q50.790627 330.39377 50.525 330.73752Q50.275 331.08127 50.275 331.98752Q50.275 332.81564 50.525 333.1594Q50.790627 333.48752 51.18125 333.48752Q51.5875 333.48752 51.8375 333.14377Q52.103127 332.80002 52.103127 331.9094Q52.103127 331.06564 51.8375 330.73752Q51.571877 330.39377 51.18125 330.39377ZM51.18125 338.7219L55.884377 329.67502L56.74375 329.67502L52.05625 338.7219L51.18125 338.7219ZM54.9 336.39377Q54.9 335.4719 55.353127 334.83127Q55.821877 334.19064 56.7125 334.19064Q57.525 334.19064 58.05625 334.76877Q58.5875 335.33127 58.5875 336.45627Q58.5875 337.55002 58.040627 338.14377Q57.509377 338.7219 56.7125 338.7219Q55.946877 338.7219 55.415627 338.14377Q54.9 337.56564 54.9 336.39377ZM56.74375 334.9094Q56.3375 334.9094 56.071877 335.25314Q55.821877 335.5969 55.821877 336.50314Q55.821877 337.31564 56.0875 337.6594Q56.353127 338.00314 56.74375 338.00314Q57.134377 338.00314 57.4 337.6594Q57.665627 337.31564 57.665627 336.4094Q57.665627 335.58127 57.4 335.25314Q57.134377 334.9094 56.74375 334.9094Z" fill-rule="nonzero"/><path stroke="#757575" stroke-width="1.0" stroke-linecap="butt" d="M24.65 325.9094L296.36667 325.9094L321.82355 325.9094" fill-rule="nonzero"/><path fill="#9e9e9e" d="M323.82355 325.9094C323.82355 324.8048 322.9281 323.9094 321.82355 323.9094C320.71896 323.9094 319.82355 324.8048 319.82355 325.9094C319.82355 327.01395 320.71896 327.9094 321.82355 327.9094C322.9281 327.9094 323.82355 327.01395 323.82355 325.9094" fill-rule="nonzero"/><path fill="#1a1a1a" d="M954.45935 80.04021L954.45935 72.46208L951.6312 72.46208L951.6312 71.44646L958.4437 71.44646L958.4437 72.46208L955.6 72.46208L955.6 80.04021L954.45935 80.04021ZM963.39685 78.04021L964.4906 78.16521Q964.2406 79.11833 963.5375 79.64958Q962.83435 80.18083 961.7562 80.18083Q960.39685 80.18083 959.58435 79.33708Q958.7875 78.49333 958.7875 76.97771Q958.7875 75.41521 959.6 74.55583Q960.4125 73.68083 961.6937 73.68083Q962.9437 73.68083 963.725 74.52458Q964.52185 75.36833 964.52185 76.91521Q964.52185 77.00896 964.52185 77.19646L959.8812 77.19646Q959.9437 78.22771 960.45935 78.77458Q960.975 79.30583 961.7562 79.30583Q962.33435 79.30583 962.7406 79.00896Q963.1625 78.69646 963.39685 78.04021ZM959.9437 76.33708L963.4125 76.33708Q963.35 75.54021 963.02185 75.14958Q962.5062 74.54021 961.70935 74.54021Q960.975 74.54021 960.475 75.02458Q959.9906 75.50896 959.9437 76.33708ZM970.20935 79.27458Q969.6156 79.77458 969.0687 79.97771Q968.5375 80.18083 967.9125 80.18083Q966.8812 80.18083 966.33435 79.68083Q965.7875 79.18083 965.7875 78.39958Q965.7875 77.94646 965.9906 77.57146Q966.1937 77.18083 966.5375 76.96208Q966.8812 76.72771 967.3031 76.61833Q967.6 76.52458 968.2406 76.44646Q969.5062 76.30583 970.1156 76.08708Q970.1156 75.86833 970.1156 75.82146Q970.1156 75.16521 969.8187 74.89958Q969.4125 74.55583 968.6156 74.55583Q967.8812 74.55583 967.52185 74.82146Q967.1625 75.07146 966.9906 75.72771L965.95935 75.58708Q966.1 74.93083 966.4281 74.52458Q966.7562 74.11833 967.3656 73.89958Q967.975 73.68083 968.77185 73.68083Q969.5687 73.68083 970.0687 73.86833Q970.5687 74.05583 970.8031 74.33708Q971.0375 74.61833 971.1312 75.05583Q971.1781 75.32146 971.1781 76.02458L971.1781 77.43083Q971.1781 78.89958 971.2406 79.29021Q971.3187 79.68083 971.52185 80.04021L970.4125 80.04021Q970.2562 79.71208 970.20935 79.27458ZM970.1156 76.91521Q969.5375 77.14958 968.39685 77.32146Q967.7406 77.41521 967.475 77.54021Q967.20935 77.64958 967.0531 77.86833Q966.9125 78.08708 966.9125 78.36833Q966.9125 78.79021 967.225 79.07146Q967.5531 79.35271 968.1625 79.35271Q968.77185 79.35271 969.2406 79.08708Q969.725 78.82146 969.9437 78.35271Q970.1156 77.99333 970.1156 77.30583L970.1156 76.91521ZM973.14685 80.04021L973.14685 73.82146L974.08435 73.82146L974.08435 74.69646Q974.3812 74.22771 974.8656 73.96208Q975.35 73.68083 975.975 73.68083Q976.6625 73.68083 977.1 73.96208Q977.5531 74.24333 977.725 74.75896Q978.475 73.68083 979.64685 73.68083Q980.58435 73.68083 981.0687 74.19646Q981.5687 74.69646 981.5687 75.77458L981.5687 80.04021L980.52185 80.04021L980.52185 76.11833Q980.52185 75.49333 980.4125 75.21208Q980.3187 74.93083 980.0531 74.75896Q979.7875 74.58708 979.4125 74.58708Q978.7562 74.58708 978.3187 75.02458Q977.89685 75.46208 977.89685 76.43083L977.89685 80.04021L976.83435 80.04021L976.83435 75.99333Q976.83435 75.29021 976.5687 74.94646Q976.3187 74.58708 975.7406 74.58708Q975.2875 74.58708 974.9125 74.82146Q974.5375 75.05583 974.3656 75.50896Q974.1937 75.96208 974.1937 76.80583L974.1937 80.04021L973.14685 80.04021Z" fill-rule="nonzero"/><path fill="#9e9e9e" d="M952.8187 97.04021L951.77185 97.04021L951.77185 90.32146Q951.3812 90.68083 950.7562 91.05583Q950.14685 91.41521 949.6625 91.58708L949.6625 90.57146Q950.5375 90.14958 951.1937 89.57146Q951.8656 88.97771 952.14685 88.41521L952.8187 88.41521L952.8187 97.04021ZM955.85 92.80583Q955.85 91.27458 956.1625 90.35271Q956.475 89.41521 957.08435 88.91521Q957.70935 88.41521 958.64685 88.41521Q959.33435 88.41521 959.85 88.69646Q960.3812 88.97771 960.725 89.50896Q961.0687 90.02458 961.2562 90.77458Q961.4437 91.52458 961.4437 92.80583Q961.4437 94.32146 961.1312 95.24333Q960.83435 96.16521 960.20935 96.68083Q959.6 97.18083 958.64685 97.18083Q957.4125 97.18083 956.6937 96.29021Q955.85 95.22771 955.85 92.80583ZM956.9281 92.80583Q956.9281 94.91521 957.4281 95.61833Q957.9281 96.32146 958.64685 96.32146Q959.3812 96.32146 959.8656 95.61833Q960.3656 94.91521 960.3656 92.80583Q960.3656 90.68083 959.8656 89.99333Q959.3812 89.29021 958.6312 89.29021Q957.9125 89.29021 957.475 89.89958Q956.9281 90.68083 956.9281 92.80583ZM963.4437 97.04021L963.4437 95.83708L964.64685 95.83708L964.64685 97.04021L963.4437 97.04021ZM965.85 92.80583Q965.85 91.27458 966.1625 90.35271Q966.475 89.41521 967.08435 88.91521Q967.70935 88.41521 968.64685 88.41521Q969.33435 88.41521 969.85 88.69646Q970.3812 88.97771 970.725 89.50896Q971.0687 90.02458 971.2562 90.77458Q971.4437 91.52458 971.4437 92.80583Q971.4437 94.32146 971.1312 95.24333Q970.83435 96.16521 970.20935 96.68083Q969.6 97.18083 968.64685 97.18083Q967.4125 97.18083 966.6937 96.29021Q965.85 95.22771 965.85 92.80583ZM966.9281 92.80583Q966.9281 94.91521 967.4281 95.61833Q967.9281 96.32146 968.64685 96.32146Q969.3812 96.32146 969.8656 95.61833Q970.3656 94.91521 970.3656 92.80583Q970.3656 90.68083 969.8656 89.99333Q969.3812 89.29021 968.6312 89.29021Q967.9125 89.29021 967.475 89.89958Q966.9281 90.68083 966.9281 92.80583ZM973.0531 90.50896Q973.0531 89.58708 973.5062 88.94646Q973.975 88.30583 974.85 88.30583Q975.6625 88.30583 976.1937 88.88396Q976.725 89.46208 976.725 90.57146Q976.725 91.66521 976.1781 92.25896Q975.64685 92.83708 974.8656 92.83708Q974.08435 92.83708 973.5687 92.25896Q973.0531 91.68083 973.0531 90.50896ZM974.8812 89.02458Q974.4906 89.02458 974.225 89.36833Q973.975 89.71208 973.975 90.61833Q973.975 91.44646 974.225 91.79021Q974.4906 92.11833 974.8812 92.11833Q975.2875 92.11833 975.5375 91.77458Q975.8031 91.43083 975.8031 90.54021Q975.8031 89.69646 975.5375 89.36833Q975.27185 89.02458 974.8812 89.02458ZM974.8812 97.35271L979.58435 88.30583L980.4437 88.30583L975.7562 97.35271L974.8812 97.35271ZM978.6 95.02458Q978.6 94.10271 979.0531 93.46208Q979.52185 92.82146 980.4125 92.82146Q981.225 92.82146 981.7562 93.39958Q982.2875 93.96208 982.2875 95.08708Q982.2875 96.18083 981.7406 96.77458Q981.20935 97.35271 980.4125 97.35271Q979.64685 97.35271 979.1156 96.77458Q978.6 96.19646 978.6 95.02458ZM980.4437 93.54021Q980.0375 93.54021 979.77185 93.88396Q979.52185 94.22771 979.52185 95.13396Q979.52185 95.94646 979.7875 96.29021Q980.0531 96.63396 980.4437 96.63396Q980.83435 96.63396 981.1 96.29021Q981.3656 95.94646 981.3656 95.04021Q981.3656 94.21208 981.1 93.88396Q980.83435 93.54021 980.4437 93.54021Z" fill-rule="nonzero"/><path stroke="#757575" stroke-width="1.0" stroke-linecap="butt" d="M983.35 84.54021L711.63336 84.54021L563.19275 84.54021" fill-rule="nonzero"/><path fill="#9e9e9e" d="M565.19275 84.54021C565.19275 83.43564 564.2973 82.54021 563.19275 82.54021C562.08813 82.54021 561.19275 83.43564 561.19275 84.54021C561.19275 85.644775 562.08813 86.54021 563.19275 86.54021C564.2973 86.54021 565.19275 85.644775 565.19275 84.54021" fill-rule="nonzero"/><path fill="#1a1a1a" d="M867.3031 186.14232L867.3031 177.54857L873.5062 177.54857L873.5062 178.5642L868.4437 178.5642L868.4437 181.1892L873.1937 181.1892L873.1937 182.20482L868.4437 182.20482L868.4437 185.1267L873.70935 185.1267L873.70935 186.14232L867.3031 186.14232ZM879.20935 185.3767Q878.6156 185.8767 878.0687 186.07982Q877.5375 186.28294 876.9125 186.28294Q875.8812 186.28294 875.33435 185.78294Q874.7875 185.28294 874.7875 184.5017Q874.7875 184.04857 874.9906 183.67357Q875.1937 183.28294 875.5375 183.0642Q875.8812 182.82982 876.3031 182.72044Q876.6 182.6267 877.2406 182.54857Q878.5062 182.40794 879.1156 182.1892Q879.1156 181.97044 879.1156 181.92357Q879.1156 181.26732 878.8187 181.0017Q878.4125 180.65794 877.6156 180.65794Q876.8812 180.65794 876.52185 180.92357Q876.1625 181.17357 875.9906 181.82982L874.95935 181.6892Q875.1 181.03294 875.4281 180.6267Q875.7562 180.22044 876.3656 180.0017Q876.975 179.78294 877.77185 179.78294Q878.5687 179.78294 879.0687 179.97044Q879.5687 180.15794 879.8031 180.4392Q880.0375 180.72044 880.1312 181.15794Q880.1781 181.42357 880.1781 182.1267L880.1781 183.53294Q880.1781 185.0017 880.2406 185.39232Q880.3187 185.78294 880.52185 186.14232L879.4125 186.14232Q879.2562 185.8142 879.20935 185.3767ZM879.1156 183.01732Q878.5375 183.2517 877.39685 183.42357Q876.7406 183.51732 876.475 183.64232Q876.20935 183.7517 876.0531 183.97044Q875.9125 184.1892 875.9125 184.47044Q875.9125 184.89232 876.225 185.17357Q876.5531 185.45482 877.1625 185.45482Q877.77185 185.45482 878.2406 185.1892Q878.725 184.92357 878.9437 184.45482Q879.1156 184.09544 879.1156 183.40794L879.1156 183.01732ZM882.1312 186.14232L882.1312 179.92357L883.08435 179.92357L883.08435 180.86107Q883.4437 180.20482 883.7406 180.0017Q884.0531 179.78294 884.4281 179.78294Q884.95935 179.78294 885.5062 180.11107L885.14685 181.09544Q884.7562 180.86107 884.3812 180.86107Q884.02185 180.86107 883.7406 181.07982Q883.475 181.28294 883.3656 181.65794Q883.1781 182.22044 883.1781 182.8767L883.1781 186.14232L882.1312 186.14232ZM886.1156 186.14232L886.1156 177.54857L887.1781 177.54857L887.1781 186.14232L886.1156 186.14232ZM889.1 188.53294L888.975 187.54857Q889.3187 187.64232 889.58435 187.64232Q889.9281 187.64232 890.1312 187.51732Q890.35 187.40794 890.4906 187.20482Q890.58435 187.03294 890.8187 186.40794Q890.83435 186.32982 890.9125 186.15794L888.5375 179.92357L889.6781 179.92357L890.975 183.51732Q891.225 184.20482 891.4281 184.97044Q891.6156 184.23607 891.8656 183.54857L893.1937 179.92357L894.2406 179.92357L891.8812 186.2517Q891.4906 187.26732 891.2875 187.65794Q891.0062 188.1892 890.6312 188.42357Q890.27185 188.67357 889.77185 188.67357Q889.475 188.67357 889.1 188.53294ZM896.33435 186.14232L899.6312 177.54857L900.85 177.54857L904.3656 186.14232L903.08435 186.14232L902.0687 183.53294L898.4906 183.53294L897.5375 186.14232L896.33435 186.14232ZM898.8187 182.61107L901.725 182.61107L900.83435 180.23607Q900.4125 179.15794 900.225 178.45482Q900.0531 179.28294 899.7562 180.09544L898.8187 182.61107ZM908.1781 186.14232L908.1781 185.36107Q907.58435 186.28294 906.4437 186.28294Q905.6937 186.28294 905.0687 185.8767Q904.4437 185.45482 904.1 184.72044Q903.7562 183.98607 903.7562 183.03294Q903.7562 182.11107 904.0687 181.34544Q904.3812 180.57982 905.0062 180.1892Q905.6312 179.78294 906.39685 179.78294Q906.95935 179.78294 907.39685 180.01732Q907.83435 180.2517 908.1156 180.6267L908.1156 177.54857L909.1625 177.54857L909.1625 186.14232L908.1781 186.14232ZM904.85 183.03294Q904.85 184.23607 905.35 184.82982Q905.85 185.40794 906.5375 185.40794Q907.225 185.40794 907.70935 184.84544Q908.1937 184.28294 908.1937 183.1267Q908.1937 181.84544 907.6937 181.2517Q907.20935 180.65794 906.4906 180.65794Q905.7875 180.65794 905.3187 181.23607Q904.85 181.79857 904.85 183.03294ZM912.8656 186.14232L910.5062 179.92357L911.6156 179.92357L912.95935 183.64232Q913.1625 184.2517 913.35 184.89232Q913.4906 184.40794 913.7406 183.72044L915.1312 179.92357L916.20935 179.92357L913.85 186.14232L912.8656 186.14232ZM916.14685 178.76732L916.14685 177.54857L917.20935 177.54857L917.20935 178.76732L916.14685 178.76732ZM916.14685 186.14232L916.14685 179.92357L917.20935 179.92357L917.20935 186.14232L916.14685 186.14232ZM918.725 184.28294L919.7562 184.1267Q919.85 184.7517 920.2406 185.07982Q920.64685 185.40794 921.3812 185.40794Q922.1 185.40794 922.4437 185.1267Q922.8031 184.82982 922.8031 184.42357Q922.8031 184.0642 922.4906 183.86107Q922.27185 183.72044 921.4125 183.5017Q920.2562 183.20482 919.8031 183.0017Q919.3656 182.78294 919.1312 182.40794Q918.89685 182.03294 918.89685 181.5642Q918.89685 181.15794 919.08435 180.79857Q919.27185 180.4392 919.6 180.20482Q919.85 180.03294 920.27185 179.90794Q920.6937 179.78294 921.1937 179.78294Q921.9125 179.78294 922.45935 180.0017Q923.02185 180.20482 923.2875 180.5642Q923.5531 180.92357 923.64685 181.51732L922.6156 181.65794Q922.5531 181.1892 922.20935 180.92357Q921.8812 180.64232 921.2562 180.64232Q920.5375 180.64232 920.225 180.89232Q919.9125 181.1267 919.9125 181.45482Q919.9125 181.65794 920.0375 181.8142Q920.1781 181.98607 920.4437 182.09544Q920.6 182.15794 921.3812 182.36107Q922.5062 182.67357 922.9437 182.86107Q923.3812 183.04857 923.6312 183.40794Q923.8812 183.76732 923.8812 184.3142Q923.8812 184.84544 923.5687 185.3142Q923.27185 185.76732 922.6937 186.03294Q922.1156 186.28294 921.3812 186.28294Q920.1625 186.28294 919.52185 185.78294Q918.89685 185.26732 918.725 184.28294ZM925.7562 183.03294Q925.7562 181.29857 926.70935 180.47044Q927.5062 179.78294 928.6625 179.78294Q929.9437 179.78294 930.7562 180.6267Q931.58435 181.45482 931.58435 182.9392Q931.58435 184.14232 931.225 184.82982Q930.8656 185.51732 930.1625 185.90794Q929.475 186.28294 928.6625 186.28294Q927.3656 186.28294 926.5531 185.45482Q925.7562 184.61107 925.7562 183.03294ZM926.83435 183.03294Q926.83435 184.22044 927.35 184.8142Q927.8812 185.40794 928.6625 185.40794Q929.45935 185.40794 929.975 184.8142Q930.4906 184.22044 930.4906 183.0017Q930.4906 181.84544 929.95935 181.2517Q929.4437 180.65794 928.6625 180.65794Q927.8812 180.65794 927.35 181.2517Q926.83435 181.82982 926.83435 183.03294ZM933.1312 186.14232L933.1312 179.92357L934.08435 179.92357L934.08435 180.86107Q934.4437 180.20482 934.7406 180.0017Q935.0531 179.78294 935.4281 179.78294Q935.95935 179.78294 936.5062 180.11107L936.14685 181.09544Q935.7562 180.86107 935.3812 180.86107Q935.02185 180.86107 934.7406 181.07982Q934.475 181.28294 934.3656 181.65794Q934.1781 182.22044 934.1781 182.8767L934.1781 186.14232L933.1312 186.14232ZM936.725 184.28294L937.7562 184.1267Q937.85 184.7517 938.2406 185.07982Q938.64685 185.40794 939.3812 185.40794Q940.1 185.40794 940.4437 185.1267Q940.8031 184.82982 940.8031 184.42357Q940.8031 184.0642 940.4906 183.86107Q940.27185 183.72044 939.4125 183.5017Q938.2562 183.20482 937.8031 183.0017Q937.3656 182.78294 937.1312 182.40794Q936.89685 182.03294 936.89685 181.5642Q936.89685 181.15794 937.08435 180.79857Q937.27185 180.4392 937.6 180.20482Q937.85 180.03294 938.27185 179.90794Q938.6937 179.78294 939.1937 179.78294Q939.9125 179.78294 940.45935 180.0017Q941.02185 180.20482 941.2875 180.5642Q941.5531 180.92357 941.64685 181.51732L940.6156 181.65794Q940.5531 181.1892 940.20935 180.92357Q939.8812 180.64232 939.2562 180.64232Q938.5375 180.64232 938.225 180.89232Q937.9125 181.1267 937.9125 181.45482Q937.9125 181.65794 938.0375 181.8142Q938.1781 181.98607 938.4437 182.09544Q938.6 182.15794 939.3812 182.36107Q940.5062 182.67357 940.9437 182.86107Q941.3812 183.04857 941.6312 183.40794Q941.8812 183.76732 941.8812 184.3142Q941.8812 184.84544 941.5687 185.3142Q941.27185 185.76732 940.6937 186.03294Q940.1156 186.28294 939.3812 186.28294Q938.1625 186.28294 937.52185 185.78294Q936.89685 185.26732 936.725 184.28294ZM947.2875 186.14232L947.2875 177.54857L951.1 177.54857Q952.2562 177.54857 952.85 177.78294Q953.4437 178.01732 953.8031 178.61107Q954.1625 179.1892 954.1625 179.89232Q954.1625 180.8142 953.5687 181.4392Q952.975 182.0642 951.7406 182.23607Q952.1937 182.45482 952.4281 182.65794Q952.9281 183.11107 953.3656 183.79857L954.8656 186.14232L953.4281 186.14232L952.3031 184.36107Q951.8031 183.57982 951.475 183.17357Q951.1625 182.76732 950.89685 182.61107Q950.64685 182.4392 950.3812 182.36107Q950.1937 182.32982 949.7562 182.32982L948.4281 182.32982L948.4281 186.14232L947.2875 186.14232ZM948.4281 181.34544L950.8812 181.34544Q951.64685 181.34544 952.08435 181.1892Q952.5375 181.01732 952.7562 180.67357Q952.9906 180.3142 952.9906 179.89232Q952.9906 179.28294 952.5375 178.89232Q952.1 178.5017 951.14685 178.5017L948.4281 178.5017L948.4281 181.34544ZM955.7562 183.03294Q955.7562 181.29857 956.70935 180.47044Q957.5062 179.78294 958.6625 179.78294Q959.9437 179.78294 960.7562 180.6267Q961.58435 181.45482 961.58435 182.9392Q961.58435 184.14232 961.225 184.82982Q960.8656 185.51732 960.1625 185.90794Q959.475 186.28294 958.6625 186.28294Q957.3656 186.28294 956.5531 185.45482Q955.7562 184.61107 955.7562 183.03294ZM956.83435 183.03294Q956.83435 184.22044 957.35 184.8142Q957.8812 185.40794 958.6625 185.40794Q959.45935 185.40794 959.975 184.8142Q960.4906 184.22044 960.4906 183.0017Q960.4906 181.84544 959.95935 181.2517Q959.4437 180.65794 958.6625 180.65794Q957.8812 180.65794 957.35 181.2517Q956.83435 181.82982 956.83435 183.03294ZM967.225 186.14232L967.225 185.22044Q966.4906 186.28294 965.2406 186.28294Q964.6937 186.28294 964.20935 186.07982Q963.7406 185.86107 963.5062 185.54857Q963.27185 185.22044 963.1781 184.7517Q963.1156 184.45482 963.1156 183.76732L963.1156 179.92357L964.1781 179.92357L964.1781 183.3767Q964.1781 184.1892 964.2406 184.48607Q964.33435 184.89232 964.64685 185.14232Q964.975 185.3767 965.45935 185.3767Q965.9281 185.3767 966.33435 185.14232Q966.7562 184.89232 966.9281 184.47044Q967.1156 184.04857 967.1156 183.2517L967.1156 179.92357L968.1625 179.92357L968.1625 186.14232L967.225 186.14232ZM970.14685 186.14232L970.14685 179.92357L971.08435 179.92357L971.08435 180.79857Q971.77185 179.78294 973.0687 179.78294Q973.6312 179.78294 974.1 179.98607Q974.58435 180.1892 974.8187 180.51732Q975.0531 180.84544 975.14685 181.28294Q975.1937 181.57982 975.1937 182.3142L975.1937 186.14232L974.14685 186.14232L974.14685 182.36107Q974.14685 181.70482 974.02185 181.39232Q973.89685 181.07982 973.58435 180.89232Q973.27185 180.6892 972.85 180.6892Q972.1781 180.6892 971.6781 181.1267Q971.1937 181.54857 971.1937 182.73607L971.1937 186.14232L970.14685 186.14232ZM981.1781 186.14232L981.1781 185.36107Q980.58435 186.28294 979.4437 186.28294Q978.6937 186.28294 978.0687 185.8767Q977.4437 185.45482 977.1 184.72044Q976.7562 183.98607 976.7562 183.03294Q976.7562 182.11107 977.0687 181.34544Q977.3812 180.57982 978.0062 180.1892Q978.6312 179.78294 979.39685 179.78294Q979.95935 179.78294 980.39685 180.01732Q980.83435 180.2517 981.1156 180.6267L981.1156 177.54857L982.1625 177.54857L982.1625 186.14232L981.1781 186.14232ZM977.85 183.03294Q977.85 184.23607 978.35 184.82982Q978.85 185.40794 979.5375 185.40794Q980.225 185.40794 980.70935 184.84544Q981.1937 184.28294 981.1937 183.1267Q981.1937 181.84544 980.6937 181.2517Q980.20935 180.65794 979.4906 180.65794Q978.7875 180.65794 978.3187 181.23607Q977.85 181.79857 977.85 183.03294Z" fill-rule="nonzero"/><path fill="#9e9e9e" d="M952.8187 203.14232L951.77185 203.14232L951.77185 196.42357Q951.3812 196.78294 950.7562 197.15794Q950.14685 197.51732 949.6625 197.6892L949.6625 196.67357Q950.5375 196.2517 951.1937 195.67357Q951.8656 195.07982 952.14685 194.51732L952.8187 194.51732L952.8187 203.14232ZM955.9125 195.67357L955.9125 194.65794L961.475 194.65794L961.475 195.48607Q960.6625 196.36107 959.85 197.8142Q959.0531 199.2517 958.6156 200.78294Q958.2875 201.86107 958.20935 203.14232L957.1156 203.14232Q957.1312 202.1267 957.5062 200.6892Q957.89685 199.2517 958.6 197.92357Q959.3187 196.59544 960.1312 195.67357L955.9125 195.67357ZM963.4437 203.14232L963.4437 201.9392L964.64685 201.9392L964.64685 203.14232L963.4437 203.14232ZM965.85 198.90794Q965.85 197.3767 966.1625 196.45482Q966.475 195.51732 967.08435 195.01732Q967.70935 194.51732 968.64685 194.51732Q969.33435 194.51732 969.85 194.79857Q970.3812 195.07982 970.725 195.61107Q971.0687 196.1267 971.2562 196.8767Q971.4437 197.6267 971.4437 198.90794Q971.4437 200.42357 971.1312 201.34544Q970.83435 202.26732 970.20935 202.78294Q969.6 203.28294 968.64685 203.28294Q967.4125 203.28294 966.6937 202.39232Q965.85 201.32982 965.85 198.90794ZM966.9281 198.90794Q966.9281 201.01732 967.4281 201.72044Q967.9281 202.42357 968.64685 202.42357Q969.3812 202.42357 969.8656 201.72044Q970.3656 201.01732 970.3656 198.90794Q970.3656 196.78294 969.8656 196.09544Q969.3812 195.39232 968.6312 195.39232Q967.9125 195.39232 967.475 196.0017Q966.9281 196.78294 966.9281 198.90794ZM973.0531 196.61107Q973.0531 195.6892 973.5062 195.04857Q973.975 194.40794 974.85 194.40794Q975.6625 194.40794 976.1937 194.98607Q976.725 195.5642 976.725 196.67357Q976.725 197.76732 976.1781 198.36107Q975.64685 198.9392 974.8656 198.9392Q974.08435 198.9392 973.5687 198.36107Q973.0531 197.78294 973.0531 196.61107ZM974.8812 195.1267Q974.4906 195.1267 974.225 195.47044Q973.975 195.8142 973.975 196.72044Q973.975 197.54857 974.225 197.89232Q974.4906 198.22044 974.8812 198.22044Q975.2875 198.22044 975.5375 197.8767Q975.8031 197.53294 975.8031 196.64232Q975.8031 195.79857 975.5375 195.47044Q975.27185 195.1267 974.8812 195.1267ZM974.8812 203.45482L979.58435 194.40794L980.4437 194.40794L975.7562 203.45482L974.8812 203.45482ZM978.6 201.1267Q978.6 200.20482 979.0531 199.5642Q979.52185 198.92357 980.4125 198.92357Q981.225 198.92357 981.7562 199.5017Q982.2875 200.0642 982.2875 201.1892Q982.2875 202.28294 981.7406 202.8767Q981.20935 203.45482 980.4125 203.45482Q979.64685 203.45482 979.1156 202.8767Q978.6 202.29857 978.6 201.1267ZM980.4437 199.64232Q980.0375 199.64232 979.77185 199.98607Q979.52185 200.32982 979.52185 201.23607Q979.52185 202.04857 979.7875 202.39232Q980.0531 202.73607 980.4437 202.73607Q980.83435 202.73607 981.1 202.39232Q981.3656 202.04857 981.3656 201.14232Q981.3656 200.3142 981.1 199.98607Q980.83435 199.64232 980.4437 199.64232Z" fill-rule="nonzero"/><path stroke="#757575" stroke-width="1.0" stroke-linecap="butt" d="M983.35 190.64232L711.63336 190.64232L679.7974 190.64232" fill-rule="nonzero"/><path fill="#9e9e9e" d="M681.7974 190.64232C681.7974 189.53775 680.902 188.64232 679.7974 188.64232C678.6929 188.64232 677.7974 189.53775 677.7974 190.64232C677.7974 191.7469 678.6929 192.64232 679.7974 192.64232C680.902 192.64232 681.7974 191.7469 681.7974 190.64232" fill-rule="nonzero"/><path fill="#1a1a1a" d="M868.89685 312.89224L869.95935 312.7985Q870.0375 313.45474 870.3187 313.861Q870.6 314.26724 871.1781 314.53287Q871.77185 314.78287 872.5062 314.78287Q873.14685 314.78287 873.64685 314.59537Q874.14685 314.39224 874.3812 314.06412Q874.6312 313.72037 874.6312 313.32974Q874.6312 312.9235 874.39685 312.62662Q874.1625 312.31412 873.6312 312.111Q873.27185 311.97037 872.08435 311.68912Q870.9125 311.40787 870.4437 311.15787Q869.8187 310.82974 869.52185 310.361Q869.225 309.87662 869.225 309.28287Q869.225 308.64224 869.58435 308.07974Q869.95935 307.50162 870.6625 307.22037Q871.3812 306.9235 872.2406 306.9235Q873.1937 306.9235 873.9281 307.236Q874.6625 307.53287 875.0531 308.14224Q875.4437 308.736 875.475 309.486L874.3812 309.56412Q874.2875 308.75162 873.77185 308.34537Q873.27185 307.9235 872.2875 307.9235Q871.2562 307.9235 870.7875 308.2985Q870.3187 308.6735 870.3187 309.20474Q870.3187 309.6735 870.64685 309.97037Q870.975 310.26724 872.35 310.57974Q873.7406 310.89224 874.2562 311.12662Q875.0062 311.486 875.3656 312.01724Q875.725 312.53287 875.725 313.236Q875.725 313.9235 875.33435 314.53287Q874.9437 315.12662 874.20935 315.47037Q873.475 315.7985 872.5531 315.7985Q871.3812 315.7985 870.58435 315.47037Q869.8031 315.12662 869.35 314.43912Q868.9125 313.75162 868.89685 312.89224ZM879.4437 314.72037L879.6 315.64224Q879.14685 315.736 878.8031 315.736Q878.225 315.736 877.9125 315.56412Q877.6 315.37662 877.45935 315.07974Q877.33435 314.78287 877.33435 313.82974L877.33435 310.25162L876.5687 310.25162L876.5687 309.43912L877.33435 309.43912L877.33435 307.89224L878.3812 307.26724L878.3812 309.43912L879.4437 309.43912L879.4437 310.25162L878.3812 310.25162L878.3812 313.89224Q878.3812 314.34537 878.4281 314.47037Q878.4906 314.59537 878.6156 314.6735Q878.7406 314.75162 878.975 314.75162Q879.1625 314.75162 879.4437 314.72037ZM880.1312 315.65787L880.1312 309.43912L881.08435 309.43912L881.08435 310.37662Q881.4437 309.72037 881.7406 309.51724Q882.0531 309.2985 882.4281 309.2985Q882.95935 309.2985 883.5062 309.62662L883.14685 310.611Q882.7562 310.37662 882.3812 310.37662Q882.02185 310.37662 881.7406 310.59537Q881.475 310.7985 881.3656 311.1735Q881.1781 311.736 881.1781 312.39224L881.1781 315.65787L880.1312 315.65787ZM888.20935 314.89224Q887.6156 315.39224 887.0687 315.59537Q886.5375 315.7985 885.9125 315.7985Q884.8812 315.7985 884.33435 315.2985Q883.7875 314.7985 883.7875 314.01724Q883.7875 313.56412 883.9906 313.18912Q884.1937 312.7985 884.5375 312.57974Q884.8812 312.34537 885.3031 312.236Q885.6 312.14224 886.2406 312.06412Q887.5062 311.9235 888.1156 311.70474Q888.1156 311.486 888.1156 311.43912Q888.1156 310.78287 887.8187 310.51724Q887.4125 310.1735 886.6156 310.1735Q885.8812 310.1735 885.52185 310.43912Q885.1625 310.68912 884.9906 311.34537L883.95935 311.20474Q884.1 310.5485 884.4281 310.14224Q884.7562 309.736 885.3656 309.51724Q885.975 309.2985 886.77185 309.2985Q887.5687 309.2985 888.0687 309.486Q888.5687 309.6735 888.8031 309.95474Q889.0375 310.236 889.1312 310.6735Q889.1781 310.93912 889.1781 311.64224L889.1781 313.0485Q889.1781 314.51724 889.2406 314.90787Q889.3187 315.2985 889.52185 315.65787L888.4125 315.65787Q888.2562 315.32974 888.20935 314.89224ZM888.1156 312.53287Q887.5375 312.76724 886.39685 312.93912Q885.7406 313.03287 885.475 313.15787Q885.20935 313.26724 885.0531 313.486Q884.9125 313.70474 884.9125 313.986Q884.9125 314.40787 885.225 314.68912Q885.5531 314.97037 886.1625 314.97037Q886.77185 314.97037 887.2406 314.70474Q887.725 314.43912 887.9437 313.97037Q888.1156 313.611 888.1156 312.9235L888.1156 312.53287ZM893.4437 314.72037L893.6 315.64224Q893.14685 315.736 892.8031 315.736Q892.225 315.736 891.9125 315.56412Q891.6 315.37662 891.45935 315.07974Q891.33435 314.78287 891.33435 313.82974L891.33435 310.25162L890.5687 310.25162L890.5687 309.43912L891.33435 309.43912L891.33435 307.89224L892.3812 307.26724L892.3812 309.43912L893.4437 309.43912L893.4437 310.25162L892.3812 310.25162L892.3812 313.89224Q892.3812 314.34537 892.4281 314.47037Q892.4906 314.59537 892.6156 314.6735Q892.7406 314.75162 892.975 314.75162Q893.1625 314.75162 893.4437 314.72037ZM898.39685 313.65787L899.4906 313.78287Q899.2406 314.736 898.5375 315.26724Q897.83435 315.7985 896.7562 315.7985Q895.39685 315.7985 894.58435 314.95474Q893.7875 314.111 893.7875 312.59537Q893.7875 311.03287 894.6 310.1735Q895.4125 309.2985 896.6937 309.2985Q897.9437 309.2985 898.725 310.14224Q899.52185 310.986 899.52185 312.53287Q899.52185 312.62662 899.52185 312.81412L894.8812 312.81412Q894.9437 313.84537 895.45935 314.39224Q895.975 314.9235 896.7562 314.9235Q897.33435 314.9235 897.7406 314.62662Q898.1625 314.31412 898.39685 313.65787ZM894.9437 311.95474L898.4125 311.95474Q898.35 311.15787 898.02185 310.76724Q897.5062 310.15787 896.70935 310.15787Q895.975 310.15787 895.475 310.64224Q894.9906 311.12662 894.9437 311.95474ZM900.9437 316.1735L901.975 316.32974Q902.0375 316.7985 902.33435 317.01724Q902.725 317.31412 903.39685 317.31412Q904.1312 317.31412 904.52185 317.01724Q904.9281 316.72037 905.0687 316.20474Q905.1625 315.87662 905.14685 314.84537Q904.45935 315.65787 903.4281 315.65787Q902.14685 315.65787 901.4437 314.736Q900.7406 313.7985 900.7406 312.51724Q900.7406 311.62662 901.0531 310.87662Q901.3812 310.111 901.9906 309.70474Q902.6 309.2985 903.4281 309.2985Q904.5375 309.2985 905.2562 310.18912L905.2562 309.43912L906.225 309.43912L906.225 314.81412Q906.225 316.26724 905.9281 316.87662Q905.6312 317.486 904.9906 317.82974Q904.35 318.18912 903.4125 318.18912Q902.3031 318.18912 901.6156 317.68912Q900.9281 317.18912 900.9437 316.1735ZM901.8187 312.43912Q901.8187 313.65787 902.3031 314.22037Q902.7875 314.78287 903.52185 314.78287Q904.2562 314.78287 904.7406 314.22037Q905.2406 313.65787 905.2406 312.47037Q905.2406 311.32974 904.725 310.75162Q904.225 310.1735 903.5062 310.1735Q902.8031 310.1735 902.3031 310.75162Q901.8187 311.31412 901.8187 312.43912ZM908.14685 308.28287L908.14685 307.06412L909.20935 307.06412L909.20935 308.28287L908.14685 308.28287ZM908.14685 315.65787L908.14685 309.43912L909.20935 309.43912L909.20935 315.65787L908.14685 315.65787ZM915.20935 313.37662L916.2406 313.51724Q916.0687 314.57974 915.3656 315.18912Q914.6625 315.7985 913.64685 315.7985Q912.3656 315.7985 911.58435 314.97037Q910.8187 314.12662 910.8187 312.56412Q910.8187 311.56412 911.14685 310.81412Q911.4906 310.0485 912.1625 309.6735Q912.85 309.2985 913.6625 309.2985Q914.6625 309.2985 915.3031 309.81412Q915.95935 310.31412 916.14685 311.26724L915.1156 311.4235Q914.975 310.7985 914.6 310.486Q914.225 310.15787 913.6937 310.15787Q912.89685 310.15787 912.39685 310.736Q911.89685 311.2985 911.89685 312.53287Q911.89685 313.7985 912.3812 314.361Q912.8656 314.9235 913.6312 314.9235Q914.2562 314.9235 914.6625 314.5485Q915.08435 314.1735 915.20935 313.37662ZM920.27185 315.65787L920.27185 307.06412L923.52185 307.06412Q924.3656 307.06412 924.8187 307.14224Q925.45935 307.25162 925.8812 307.5485Q926.3187 307.84537 926.5687 308.37662Q926.83435 308.90787 926.83435 309.5485Q926.83435 310.64224 926.1312 311.40787Q925.4437 312.15787 923.6156 312.15787L921.4125 312.15787L921.4125 315.65787L920.27185 315.65787ZM921.4125 311.15787L923.6312 311.15787Q924.7406 311.15787 925.1937 310.75162Q925.6625 310.32974 925.6625 309.57974Q925.6625 309.0485 925.3812 308.6735Q925.1156 308.28287 924.6781 308.15787Q924.3812 308.07974 923.6156 308.07974L921.4125 308.07974L921.4125 311.15787ZM932.20935 314.89224Q931.6156 315.39224 931.0687 315.59537Q930.5375 315.7985 929.9125 315.7985Q928.8812 315.7985 928.33435 315.2985Q927.7875 314.7985 927.7875 314.01724Q927.7875 313.56412 927.9906 313.18912Q928.1937 312.7985 928.5375 312.57974Q928.8812 312.34537 929.3031 312.236Q929.6 312.14224 930.2406 312.06412Q931.5062 311.9235 932.1156 311.70474Q932.1156 311.486 932.1156 311.43912Q932.1156 310.78287 931.8187 310.51724Q931.4125 310.1735 930.6156 310.1735Q929.8812 310.1735 929.52185 310.43912Q929.1625 310.68912 928.9906 311.34537L927.95935 311.20474Q928.1 310.5485 928.4281 310.14224Q928.7562 309.736 929.3656 309.51724Q929.975 309.2985 930.77185 309.2985Q931.5687 309.2985 932.0687 309.486Q932.5687 309.6735 932.8031 309.95474Q933.0375 310.236 933.1312 310.6735Q933.1781 310.93912 933.1781 311.64224L933.1781 313.0485Q933.1781 314.51724 933.2406 314.90787Q933.3187 315.2985 933.52185 315.65787L932.4125 315.65787Q932.2562 315.32974 932.20935 314.89224ZM932.1156 312.53287Q931.5375 312.76724 930.39685 312.93912Q929.7406 313.03287 929.475 313.15787Q929.20935 313.26724 929.0531 313.486Q928.9125 313.70474 928.9125 313.986Q928.9125 314.40787 929.225 314.68912Q929.5531 314.97037 930.1625 314.97037Q930.77185 314.97037 931.2406 314.70474Q931.725 314.43912 931.9437 313.97037Q932.1156 313.611 932.1156 312.9235L932.1156 312.53287ZM935.1312 315.65787L935.1312 309.43912L936.08435 309.43912L936.08435 310.37662Q936.4437 309.72037 936.7406 309.51724Q937.0531 309.2985 937.4281 309.2985Q937.95935 309.2985 938.5062 309.62662L938.14685 310.611Q937.7562 310.37662 937.3812 310.37662Q937.02185 310.37662 936.7406 310.59537Q936.475 310.7985 936.3656 311.1735Q936.1781 311.736 936.1781 312.39224L936.1781 315.65787L935.1312 315.65787ZM941.4437 314.72037L941.6 315.64224Q941.14685 315.736 940.8031 315.736Q940.225 315.736 939.9125 315.56412Q939.6 315.37662 939.45935 315.07974Q939.33435 314.78287 939.33435 313.82974L939.33435 310.25162L938.5687 310.25162L938.5687 309.43912L939.33435 309.43912L939.33435 307.89224L940.3812 307.26724L940.3812 309.43912L941.4437 309.43912L941.4437 310.25162L940.3812 310.25162L940.3812 313.89224Q940.3812 314.34537 940.4281 314.47037Q940.4906 314.59537 940.6156 314.6735Q940.7406 314.75162 940.975 314.75162Q941.1625 314.75162 941.4437 314.72037ZM942.14685 315.65787L942.14685 309.43912L943.08435 309.43912L943.08435 310.31412Q943.77185 309.2985 945.0687 309.2985Q945.6312 309.2985 946.1 309.50162Q946.58435 309.70474 946.8187 310.03287Q947.0531 310.361 947.14685 310.7985Q947.1937 311.09537 947.1937 311.82974L947.1937 315.65787L946.14685 315.65787L946.14685 311.87662Q946.14685 311.22037 946.02185 310.90787Q945.89685 310.59537 945.58435 310.40787Q945.27185 310.20474 944.85 310.20474Q944.1781 310.20474 943.6781 310.64224Q943.1937 311.06412 943.1937 312.25162L943.1937 315.65787L942.14685 315.65787ZM953.39685 313.65787L954.4906 313.78287Q954.2406 314.736 953.5375 315.26724Q952.83435 315.7985 951.7562 315.7985Q950.39685 315.7985 949.58435 314.95474Q948.7875 314.111 948.7875 312.59537Q948.7875 311.03287 949.6 310.1735Q950.4125 309.2985 951.6937 309.2985Q952.9437 309.2985 953.725 310.14224Q954.52185 310.986 954.52185 312.53287Q954.52185 312.62662 954.52185 312.81412L949.8812 312.81412Q949.9437 313.84537 950.45935 314.39224Q950.975 314.9235 951.7562 314.9235Q952.33435 314.9235 952.7406 314.62662Q953.1625 314.31412 953.39685 313.65787ZM949.9437 311.95474L953.4125 311.95474Q953.35 311.15787 953.02185 310.76724Q952.5062 310.15787 951.70935 310.15787Q950.975 310.15787 950.475 310.64224Q949.9906 311.12662 949.9437 311.95474ZM956.1312 315.65787L956.1312 309.43912L957.08435 309.43912L957.08435 310.37662Q957.4437 309.72037 957.7406 309.51724Q958.0531 309.2985 958.4281 309.2985Q958.95935 309.2985 959.5062 309.62662L959.14685 310.611Q958.7562 310.37662 958.3812 310.37662Q958.02185 310.37662 957.7406 310.59537Q957.475 310.7985 957.3656 311.1735Q957.1781 311.736 957.1781 312.39224L957.1781 315.65787L956.1312 315.65787ZM959.725 313.7985L960.7562 313.64224Q960.85 314.26724 961.2406 314.59537Q961.64685 314.9235 962.3812 314.9235Q963.1 314.9235 963.4437 314.64224Q963.8031 314.34537 963.8031 313.93912Q963.8031 313.57974 963.4906 313.37662Q963.27185 313.236 962.4125 313.01724Q961.2562 312.72037 960.8031 312.51724Q960.3656 312.2985 960.1312 311.9235Q959.89685 311.5485 959.89685 311.07974Q959.89685 310.6735 960.08435 310.31412Q960.27185 309.95474 960.6 309.72037Q960.85 309.5485 961.27185 309.4235Q961.6937 309.2985 962.1937 309.2985Q962.9125 309.2985 963.45935 309.51724Q964.02185 309.72037 964.2875 310.07974Q964.5531 310.43912 964.64685 311.03287L963.6156 311.1735Q963.5531 310.70474 963.20935 310.43912Q962.8812 310.15787 962.2562 310.15787Q961.5375 310.15787 961.225 310.40787Q960.9125 310.64224 960.9125 310.97037Q960.9125 311.1735 961.0375 311.32974Q961.1781 311.50162 961.4437 311.611Q961.6 311.6735 962.3812 311.87662Q963.5062 312.18912 963.9437 312.37662Q964.3812 312.56412 964.6312 312.9235Q964.8812 313.28287 964.8812 313.82974Q964.8812 314.361 964.5687 314.82974Q964.27185 315.28287 963.6937 315.5485Q963.1156 315.7985 962.3812 315.7985Q961.1625 315.7985 960.52185 315.2985Q959.89685 314.78287 959.725 313.7985ZM967.14685 315.65787L967.14685 307.06412L968.1937 307.06412L968.1937 310.14224Q968.9281 309.2985 970.0531 309.2985Q970.7562 309.2985 971.2562 309.57974Q971.77185 309.84537 971.9906 310.32974Q972.20935 310.7985 972.20935 311.72037L972.20935 315.65787L971.1625 315.65787L971.1625 311.72037Q971.1625 310.9235 970.8187 310.56412Q970.475 310.20474 969.85 310.20474Q969.3812 310.20474 968.95935 310.45474Q968.5531 310.68912 968.3656 311.111Q968.1937 311.51724 968.1937 312.25162L968.1937 315.65787L967.14685 315.65787ZM974.14685 308.28287L974.14685 307.06412L975.20935 307.06412L975.20935 308.28287L974.14685 308.28287ZM974.14685 315.65787L974.14685 309.43912L975.20935 309.43912L975.20935 315.65787L974.14685 315.65787ZM977.14685 318.0485L977.14685 309.43912L978.1 309.43912L978.1 310.236Q978.4437 309.76724 978.8656 309.53287Q979.3031 309.2985 979.9125 309.2985Q980.70935 309.2985 981.3187 309.70474Q981.9281 310.111 982.225 310.861Q982.5375 311.611 982.5375 312.50162Q982.5375 313.45474 982.1937 314.22037Q981.8656 314.986 981.20935 315.39224Q980.5531 315.7985 979.83435 315.7985Q979.3031 315.7985 978.8812 315.57974Q978.45935 315.34537 978.1937 315.01724L978.1937 318.0485L977.14685 318.0485ZM978.1 312.57974Q978.1 313.78287 978.58435 314.361Q979.0687 314.9235 979.7562 314.9235Q980.45935 314.9235 980.95935 314.32974Q981.45935 313.736 981.45935 312.486Q981.45935 311.2985 980.975 310.72037Q980.4906 310.12662 979.8031 310.12662Q979.1312 310.12662 978.6156 310.75162Q978.1 311.37662 978.1 312.57974Z" fill-rule="nonzero"/><path fill="#9e9e9e" d="M955.85 330.40787L956.95935 330.31412Q957.08435 331.12662 957.52185 331.53287Q957.975 331.93912 958.6156 331.93912Q959.3656 331.93912 959.89685 331.361Q960.4281 330.78287 960.4281 329.84537Q960.4281 328.93912 959.9125 328.4235Q959.4125 327.89224 958.58435 327.89224Q958.08435 327.89224 957.6625 328.12662Q957.2562 328.361 957.02185 328.72037L956.0375 328.59537L956.8656 324.18912L961.14685 324.18912L961.14685 325.18912L957.70935 325.18912L957.2562 327.50162Q958.02185 326.95474 958.8656 326.95474Q959.9906 326.95474 960.7562 327.736Q961.5375 328.51724 961.5375 329.75162Q961.5375 330.90787 960.8656 331.76724Q960.0375 332.7985 958.6156 332.7985Q957.4437 332.7985 956.6937 332.14224Q955.95935 331.486 955.85 330.40787ZM963.4437 332.65787L963.4437 331.45474L964.64685 331.45474L964.64685 332.65787L963.4437 332.65787ZM965.85 328.4235Q965.85 326.89224 966.1625 325.97037Q966.475 325.03287 967.08435 324.53287Q967.70935 324.03287 968.64685 324.03287Q969.33435 324.03287 969.85 324.31412Q970.3812 324.59537 970.725 325.12662Q971.0687 325.64224 971.2562 326.39224Q971.4437 327.14224 971.4437 328.4235Q971.4437 329.93912 971.1312 330.861Q970.83435 331.78287 970.20935 332.2985Q969.6 332.7985 968.64685 332.7985Q967.4125 332.7985 966.6937 331.90787Q965.85 330.84537 965.85 328.4235ZM966.9281 328.4235Q966.9281 330.53287 967.4281 331.236Q967.9281 331.93912 968.64685 331.93912Q969.3812 331.93912 969.8656 331.236Q970.3656 330.53287 970.3656 328.4235Q970.3656 326.2985 969.8656 325.611Q969.3812 324.90787 968.6312 324.90787Q967.9125 324.90787 967.475 325.51724Q966.9281 326.2985 966.9281 328.4235ZM973.0531 326.12662Q973.0531 325.20474 973.5062 324.56412Q973.975 323.9235 974.85 323.9235Q975.6625 323.9235 976.1937 324.50162Q976.725 325.07974 976.725 326.18912Q976.725 327.28287 976.1781 327.87662Q975.64685 328.45474 974.8656 328.45474Q974.08435 328.45474 973.5687 327.87662Q973.0531 327.2985 973.0531 326.12662ZM974.8812 324.64224Q974.4906 324.64224 974.225 324.986Q973.975 325.32974 973.975 326.236Q973.975 327.06412 974.225 327.40787Q974.4906 327.736 974.8812 327.736Q975.2875 327.736 975.5375 327.39224Q975.8031 327.0485 975.8031 326.15787Q975.8031 325.31412 975.5375 324.986Q975.27185 324.64224 974.8812 324.64224ZM974.8812 332.97037L979.58435 323.9235L980.4437 323.9235L975.7562 332.97037L974.8812 332.97037ZM978.6 330.64224Q978.6 329.72037 979.0531 329.07974Q979.52185 328.43912 980.4125 328.43912Q981.225 328.43912 981.7562 329.01724Q982.2875 329.57974 982.2875 330.70474Q982.2875 331.7985 981.7406 332.39224Q981.20935 332.97037 980.4125 332.97037Q979.64685 332.97037 979.1156 332.39224Q978.6 331.81412 978.6 330.64224ZM980.4437 329.15787Q980.0375 329.15787 979.77185 329.50162Q979.52185 329.84537 979.52185 330.75162Q979.52185 331.56412 979.7875 331.90787Q980.0531 332.25162 980.4437 332.25162Q980.83435 332.25162 981.1 331.90787Q981.3656 331.56412 981.3656 330.65787Q981.3656 329.82974 981.1 329.50162Q980.83435 329.15787 980.4437 329.15787Z" fill-rule="nonzero"/><path stroke="#757575" stroke-width="1.0" stroke-linecap="butt" d="M983.35 320.15787L711.63336 320.15787L687.94586 320.15787" fill-rule="nonzero"/><path fill="#9e9e9e" d="M689.94586 320.15787C689.94586 319.0533 689.0504 318.15787 687.94586 318.15787C686.8413 318.15787 685.94586 319.0533 685.94586 320.15787C685.94586 321.26245 686.8413 322.15787 687.94586 322.15787C689.0504 322.15787 689.94586 321.26245 689.94586 320.15787" fill-rule="nonzero"/><path fill="#1a1a1a" d="M944.33435 359.7244L947.6312 351.13065L948.85 351.13065L952.3656 359.7244L951.08435 359.7244L950.0687 357.11502L946.4906 357.11502L945.5375 359.7244L944.33435 359.7244ZM946.8187 356.19315L949.725 356.19315L948.83435 353.81815Q948.4125 352.74002 948.225 352.0369Q948.0531 352.86502 947.7562 353.67752L946.8187 356.19315ZM952.14685 352.3494L952.14685 351.13065L953.20935 351.13065L953.20935 352.3494L952.14685 352.3494ZM952.14685 359.7244L952.14685 353.50565L953.20935 353.50565L953.20935 359.7244L952.14685 359.7244ZM955.1312 359.7244L955.1312 353.50565L956.08435 353.50565L956.08435 354.44315Q956.4437 353.7869 956.7406 353.58377Q957.0531 353.36502 957.4281 353.36502Q957.95935 353.36502 958.5062 353.69315L958.14685 354.67752Q957.7562 354.44315 957.3812 354.44315Q957.02185 354.44315 956.7406 354.6619Q956.475 354.86502 956.3656 355.24002Q956.1781 355.80252 956.1781 356.45877L956.1781 359.7244L955.1312 359.7244ZM963.1781 359.7244L963.1781 358.94315Q962.58435 359.86502 961.4437 359.86502Q960.6937 359.86502 960.0687 359.45877Q959.4437 359.0369 959.1 358.30252Q958.7562 357.56815 958.7562 356.61502Q958.7562 355.69315 959.0687 354.92752Q959.3812 354.1619 960.0062 353.77127Q960.6312 353.36502 961.39685 353.36502Q961.95935 353.36502 962.39685 353.5994Q962.83435 353.83377 963.1156 354.20877L963.1156 351.13065L964.1625 351.13065L964.1625 359.7244L963.1781 359.7244ZM959.85 356.61502Q959.85 357.81815 960.35 358.4119Q960.85 358.99002 961.5375 358.99002Q962.225 358.99002 962.70935 358.42752Q963.1937 357.86502 963.1937 356.70877Q963.1937 355.42752 962.6937 354.83377Q962.20935 354.24002 961.4906 354.24002Q960.7875 354.24002 960.3187 354.81815Q959.85 355.38065 959.85 356.61502ZM966.1312 359.7244L966.1312 353.50565L967.08435 353.50565L967.08435 354.44315Q967.4437 353.7869 967.7406 353.58377Q968.0531 353.36502 968.4281 353.36502Q968.95935 353.36502 969.5062 353.69315L969.14685 354.67752Q968.7562 354.44315 968.3812 354.44315Q968.02185 354.44315 967.7406 354.6619Q967.475 354.86502 967.3656 355.24002Q967.1781 355.80252 967.1781 356.45877L967.1781 359.7244L966.1312 359.7244ZM969.7562 356.61502Q969.7562 354.88065 970.70935 354.05252Q971.5062 353.36502 972.6625 353.36502Q973.9437 353.36502 974.7562 354.20877Q975.58435 355.0369 975.58435 356.52127Q975.58435 357.7244 975.225 358.4119Q974.8656 359.0994 974.1625 359.49002Q973.475 359.86502 972.6625 359.86502Q971.3656 359.86502 970.5531 359.0369Q969.7562 358.19315 969.7562 356.61502ZM970.83435 356.61502Q970.83435 357.80252 971.35 358.39627Q971.8812 358.99002 972.6625 358.99002Q973.45935 358.99002 973.975 358.39627Q974.4906 357.80252 974.4906 356.58377Q974.4906 355.42752 973.95935 354.83377Q973.4437 354.24002 972.6625 354.24002Q971.8812 354.24002 971.35 354.83377Q970.83435 355.4119 970.83435 356.61502ZM977.14685 362.11502L977.14685 353.50565L978.1 353.50565L978.1 354.30252Q978.4437 353.83377 978.8656 353.5994Q979.3031 353.36502 979.9125 353.36502Q980.70935 353.36502 981.3187 353.77127Q981.9281 354.17752 982.225 354.92752Q982.5375 355.67752 982.5375 356.56815Q982.5375 357.52127 982.1937 358.2869Q981.8656 359.05252 981.20935 359.45877Q980.5531 359.86502 979.83435 359.86502Q979.3031 359.86502 978.8812 359.64627Q978.45935 359.4119 978.1937 359.08377L978.1937 362.11502L977.14685 362.11502ZM978.1 356.64627Q978.1 357.8494 978.58435 358.42752Q979.0687 358.99002 979.7562 358.99002Q980.45935 358.99002 980.95935 358.39627Q981.45935 357.80252 981.45935 356.55252Q981.45935 355.36502 980.975 354.7869Q980.4906 354.19315 979.8031 354.19315Q979.1312 354.19315 978.6156 354.81815Q978.1 355.44315 978.1 356.64627Z" fill-rule="nonzero"/><path fill="#9e9e9e" d="M955.85 374.45877L956.9125 374.31815Q957.08435 375.20877 957.52185 375.61502Q957.95935 376.00565 958.58435 376.00565Q959.33435 376.00565 959.85 375.49002Q960.3656 374.9744 960.3656 374.20877Q960.3656 373.49002 959.8812 373.02127Q959.4125 372.5369 958.6781 372.5369Q958.3812 372.5369 957.9281 372.6619L958.0531 371.7244Q958.1625 371.74002 958.225 371.74002Q958.89685 371.74002 959.4281 371.39627Q959.975 371.0369 959.975 370.30252Q959.975 369.7244 959.58435 369.3494Q959.1937 368.95877 958.5687 368.95877Q957.95935 368.95877 957.5375 369.3494Q957.1312 369.74002 957.02185 370.50565L955.95935 370.31815Q956.14685 369.27127 956.83435 368.69315Q957.52185 368.0994 958.5375 368.0994Q959.2406 368.0994 959.83435 368.4119Q960.4281 368.70877 960.7406 369.2244Q961.0531 369.74002 961.0531 370.33377Q961.0531 370.88065 960.7562 371.3494Q960.45935 371.80252 959.8812 372.06815Q960.6312 372.24002 961.0531 372.80252Q961.475 373.3494 961.475 374.19315Q961.475 375.31815 960.64685 376.0994Q959.83435 376.88065 958.58435 376.88065Q957.45935 376.88065 956.70935 376.20877Q955.95935 375.52127 955.85 374.45877ZM963.4437 376.7244L963.4437 375.52127L964.64685 375.52127L964.64685 376.7244L963.4437 376.7244ZM965.85 372.49002Q965.85 370.95877 966.1625 370.0369Q966.475 369.0994 967.08435 368.5994Q967.70935 368.0994 968.64685 368.0994Q969.33435 368.0994 969.85 368.38065Q970.3812 368.6619 970.725 369.19315Q971.0687 369.70877 971.2562 370.45877Q971.4437 371.20877 971.4437 372.49002Q971.4437 374.00565 971.1312 374.92752Q970.83435 375.8494 970.20935 376.36502Q969.6 376.86502 968.64685 376.86502Q967.4125 376.86502 966.6937 375.9744Q965.85 374.9119 965.85 372.49002ZM966.9281 372.49002Q966.9281 374.5994 967.4281 375.30252Q967.9281 376.00565 968.64685 376.00565Q969.3812 376.00565 969.8656 375.30252Q970.3656 374.5994 970.3656 372.49002Q970.3656 370.36502 969.8656 369.67752Q969.3812 368.9744 968.6312 368.9744Q967.9125 368.9744 967.475 369.58377Q966.9281 370.36502 966.9281 372.49002ZM973.0531 370.19315Q973.0531 369.27127 973.5062 368.63065Q973.975 367.99002 974.85 367.99002Q975.6625 367.99002 976.1937 368.56815Q976.725 369.14627 976.725 370.25565Q976.725 371.3494 976.1781 371.94315Q975.64685 372.52127 974.8656 372.52127Q974.08435 372.52127 973.5687 371.94315Q973.0531 371.36502 973.0531 370.19315ZM974.8812 368.70877Q974.4906 368.70877 974.225 369.05252Q973.975 369.39627 973.975 370.30252Q973.975 371.13065 974.225 371.4744Q974.4906 371.80252 974.8812 371.80252Q975.2875 371.80252 975.5375 371.45877Q975.8031 371.11502 975.8031 370.2244Q975.8031 369.38065 975.5375 369.05252Q975.27185 368.70877 974.8812 368.70877ZM974.8812 377.0369L979.58435 367.99002L980.4437 367.99002L975.7562 377.0369L974.8812 377.0369ZM978.6 374.70877Q978.6 373.7869 979.0531 373.14627Q979.52185 372.50565 980.4125 372.50565Q981.225 372.50565 981.7562 373.08377Q982.2875 373.64627 982.2875 374.77127Q982.2875 375.86502 981.7406 376.45877Q981.20935 377.0369 980.4125 377.0369Q979.64685 377.0369 979.1156 376.45877Q978.6 375.88065 978.6 374.70877ZM980.4437 373.2244Q980.0375 373.2244 979.77185 373.56815Q979.52185 373.9119 979.52185 374.81815Q979.52185 375.63065 979.7875 375.9744Q980.0531 376.31815 980.4437 376.31815Q980.83435 376.31815 981.1 375.9744Q981.3656 375.63065 981.3656 374.7244Q981.3656 373.89627 981.1 373.56815Q980.83435 373.2244 980.4437 373.2244Z" fill-rule="nonzero"/><path stroke="#757575" stroke-width="1.0" stroke-linecap="butt" d="M983.35 364.2244L711.63336 364.2244L668.8766 364.2244" fill-rule="nonzero"/><path fill="#9e9e9e" d="M670.8766 364.2244C670.8766 363.11984 669.98114 362.2244 668.8766 362.2244C667.772 362.2244 666.8766 363.11984 666.8766 364.2244C666.8766 365.32898 667.772 366.2244 668.8766 366.2244C669.98114 366.2244 670.8766 365.32898 670.8766 364.2244" fill-rule="nonzero"/><path fill="#1a1a1a" d="M932.27185 397.66415L932.27185 389.0704L935.2406 389.0704Q936.2406 389.0704 936.77185 389.1954Q937.5062 389.36728 938.02185 389.80478Q938.70935 390.3829 939.0375 391.28915Q939.3812 392.17978 939.3812 393.3204Q939.3812 394.30478 939.14685 395.05478Q938.9281 395.80478 938.5687 396.30478Q938.20935 396.80478 937.77185 397.08603Q937.35 397.36728 936.7562 397.52353Q936.1625 397.66415 935.3812 397.66415L932.27185 397.66415ZM933.4125 396.64853L935.2406 396.64853Q936.1 396.64853 936.58435 396.49228Q937.0687 396.33603 937.35 396.03915Q937.7562 395.64853 937.975 394.96103Q938.20935 394.27353 938.20935 393.30478Q938.20935 391.96103 937.7562 391.24228Q937.3187 390.5079 936.6937 390.2579Q936.225 390.08603 935.225 390.08603L933.4125 390.08603L933.4125 396.64853ZM945.39685 395.66415L946.4906 395.78915Q946.2406 396.74228 945.5375 397.27353Q944.83435 397.80478 943.7562 397.80478Q942.39685 397.80478 941.58435 396.96103Q940.7875 396.11728 940.7875 394.60165Q940.7875 393.03915 941.6 392.17978Q942.4125 391.30478 943.6937 391.30478Q944.9437 391.30478 945.725 392.14853Q946.52185 392.99228 946.52185 394.53915Q946.52185 394.6329 946.52185 394.8204L941.8812 394.8204Q941.9437 395.85165 942.45935 396.39853Q942.975 396.92978 943.7562 396.92978Q944.33435 396.92978 944.7406 396.6329Q945.1625 396.3204 945.39685 395.66415ZM941.9437 393.96103L945.4125 393.96103Q945.35 393.16415 945.02185 392.77353Q944.5062 392.16415 943.70935 392.16415Q942.975 392.16415 942.475 392.64853Q941.9906 393.1329 941.9437 393.96103ZM949.8656 397.66415L947.5062 391.4454L948.6156 391.4454L949.95935 395.16415Q950.1625 395.77353 950.35 396.41415Q950.4906 395.92978 950.7406 395.24228L952.1312 391.4454L953.20935 391.4454L950.85 397.66415L949.8656 397.66415ZM956.33435 397.66415L956.33435 389.0704L962.1312 389.0704L962.1312 390.08603L957.475 390.08603L957.475 392.74228L961.5062 392.74228L961.5062 393.7579L957.475 393.7579L957.475 397.66415L956.33435 397.66415ZM967.225 397.66415L967.225 396.74228Q966.4906 397.80478 965.2406 397.80478Q964.6937 397.80478 964.20935 397.60165Q963.7406 397.3829 963.5062 397.0704Q963.27185 396.74228 963.1781 396.27353Q963.1156 395.97665 963.1156 395.28915L963.1156 391.4454L964.1781 391.4454L964.1781 394.89853Q964.1781 395.71103 964.2406 396.0079Q964.33435 396.41415 964.64685 396.66415Q964.975 396.89853 965.45935 396.89853Q965.9281 396.89853 966.33435 396.66415Q966.7562 396.41415 966.9281 395.99228Q967.1156 395.5704 967.1156 394.77353L967.1156 391.4454L968.1625 391.4454L968.1625 397.66415L967.225 397.66415ZM970.14685 397.66415L970.14685 391.4454L971.08435 391.4454L971.08435 392.3204Q971.77185 391.30478 973.0687 391.30478Q973.6312 391.30478 974.1 391.5079Q974.58435 391.71103 974.8187 392.03915Q975.0531 392.36728 975.14685 392.80478Q975.1937 393.10165 975.1937 393.83603L975.1937 397.66415L974.14685 397.66415L974.14685 393.8829Q974.14685 393.22665 974.02185 392.91415Q973.89685 392.60165 973.58435 392.41415Q973.27185 392.21103 972.85 392.21103Q972.1781 392.21103 971.6781 392.64853Q971.1937 393.0704 971.1937 394.2579L971.1937 397.66415L970.14685 397.66415ZM981.1781 397.66415L981.1781 396.8829Q980.58435 397.80478 979.4437 397.80478Q978.6937 397.80478 978.0687 397.39853Q977.4437 396.97665 977.1 396.24228Q976.7562 395.5079 976.7562 394.55478Q976.7562 393.6329 977.0687 392.86728Q977.3812 392.10165 978.0062 391.71103Q978.6312 391.30478 979.39685 391.30478Q979.95935 391.30478 980.39685 391.53915Q980.83435 391.77353 981.1156 392.14853L981.1156 389.0704L982.1625 389.0704L982.1625 397.66415L981.1781 397.66415ZM977.85 394.55478Q977.85 395.7579 978.35 396.35165Q978.85 396.92978 979.5375 396.92978Q980.225 396.92978 980.70935 396.36728Q981.1937 395.80478 981.1937 394.64853Q981.1937 393.36728 980.6937 392.77353Q980.20935 392.17978 979.4906 392.17978Q978.7875 392.17978 978.3187 392.7579Q977.85 393.3204 977.85 394.55478Z" fill-rule="nonzero"/><path fill="#9e9e9e" d="M955.85 412.41415L956.95935 412.3204Q957.08435 413.1329 957.52185 413.53915Q957.975 413.9454 958.6156 413.9454Q959.3656 413.9454 959.89685 413.36728Q960.4281 412.78915 960.4281 411.85165Q960.4281 410.9454 959.9125 410.42978Q959.4125 409.89853 958.58435 409.89853Q958.08435 409.89853 957.6625 410.1329Q957.2562 410.36728 957.02185 410.72665L956.0375 410.60165L956.8656 406.1954L961.14685 406.1954L961.14685 407.1954L957.70935 407.1954L957.2562 409.5079Q958.02185 408.96103 958.8656 408.96103Q959.9906 408.96103 960.7562 409.74228Q961.5375 410.52353 961.5375 411.7579Q961.5375 412.91415 960.8656 413.77353Q960.0375 414.80478 958.6156 414.80478Q957.4437 414.80478 956.6937 414.14853Q955.95935 413.49228 955.85 412.41415ZM963.4437 414.66415L963.4437 413.46103L964.64685 413.46103L964.64685 414.66415L963.4437 414.66415ZM965.85 410.42978Q965.85 408.89853 966.1625 407.97665Q966.475 407.03915 967.08435 406.53915Q967.70935 406.03915 968.64685 406.03915Q969.33435 406.03915 969.85 406.3204Q970.3812 406.60165 970.725 407.1329Q971.0687 407.64853 971.2562 408.39853Q971.4437 409.14853 971.4437 410.42978Q971.4437 411.9454 971.1312 412.86728Q970.83435 413.78915 970.20935 414.30478Q969.6 414.80478 968.64685 414.80478Q967.4125 414.80478 966.6937 413.91415Q965.85 412.85165 965.85 410.42978ZM966.9281 410.42978Q966.9281 412.53915 967.4281 413.24228Q967.9281 413.9454 968.64685 413.9454Q969.3812 413.9454 969.8656 413.24228Q970.3656 412.53915 970.3656 410.42978Q970.3656 408.30478 969.8656 407.61728Q969.3812 406.91415 968.6312 406.91415Q967.9125 406.91415 967.475 407.52353Q966.9281 408.30478 966.9281 410.42978ZM973.0531 408.1329Q973.0531 407.21103 973.5062 406.5704Q973.975 405.92978 974.85 405.92978Q975.6625 405.92978 976.1937 406.5079Q976.725 407.08603 976.725 408.1954Q976.725 409.28915 976.1781 409.8829Q975.64685 410.46103 974.8656 410.46103Q974.08435 410.46103 973.5687 409.8829Q973.0531 409.30478 973.0531 408.1329ZM974.8812 406.64853Q974.4906 406.64853 974.225 406.99228Q973.975 407.33603 973.975 408.24228Q973.975 409.0704 974.225 409.41415Q974.4906 409.74228 974.8812 409.74228Q975.2875 409.74228 975.5375 409.39853Q975.8031 409.05478 975.8031 408.16415Q975.8031 407.3204 975.5375 406.99228Q975.27185 406.64853 974.8812 406.64853ZM974.8812 414.97665L979.58435 405.92978L980.4437 405.92978L975.7562 414.97665L974.8812 414.97665ZM978.6 412.64853Q978.6 411.72665 979.0531 411.08603Q979.52185 410.4454 980.4125 410.4454Q981.225 410.4454 981.7562 411.02353Q982.2875 411.58603 982.2875 412.71103Q982.2875 413.80478 981.7406 414.39853Q981.20935 414.97665 980.4125 414.97665Q979.64685 414.97665 979.1156 414.39853Q978.6 413.8204 978.6 412.64853ZM980.4437 411.16415Q980.0375 411.16415 979.77185 411.5079Q979.52185 411.85165 979.52185 412.7579Q979.52185 413.5704 979.7875 413.91415Q980.0531 414.2579 980.4437 414.2579Q980.83435 414.2579 981.1 413.91415Q981.3656 413.5704 981.3656 412.66415Q981.3656 411.83603 981.1 411.5079Q980.83435 411.16415 980.4437 411.16415Z" fill-rule="nonzero"/><path stroke="#757575" stroke-width="1.0" stroke-linecap="butt" d="M983.35 402.16415L711.63336 402.16415L639.4475 402.16415" fill-rule="nonzero"/><path fill="#9e9e9e" d="M641.4475 402.16415C641.4475 401.05957 640.55206 400.16415 639.4475 400.16415C638.3429 400.16415 637.4475 401.05957 637.4475 402.16415C637.4475 403.2687 638.3429 404.16415 639.4475 404.16415C640.55206 404.16415 641.4475 403.2687 641.4475 402.16415" fill-rule="nonzero"/><path fill="#757575" d="M26.196875 43.65L26.196875 29.337502L31.11875 29.337502Q32.790627 29.337502 33.68125 29.540627Q34.9 29.821877 35.775 30.556252Q36.9 31.525002 37.4625 33.009377Q38.025 34.49375 38.025 36.415627Q38.025 38.040627 37.65 39.30625Q37.275 40.55625 36.665627 41.384377Q36.071877 42.2125 35.36875 42.696877Q34.665627 43.165627 33.665627 43.415627Q32.665627 43.65 31.353125 43.65L26.196875 43.65ZM28.0875 41.9625L31.15 41.9625Q32.55625 41.9625 33.353127 41.696877Q34.165627 41.43125 34.65 40.946877Q35.321877 40.275 35.696877 39.15Q36.071877 38.009377 36.071877 36.384377Q36.071877 34.134377 35.3375 32.93125Q34.603127 31.728127 33.540627 31.321877Q32.790627 31.025002 31.103125 31.025002L28.0875 31.025002L28.0875 41.9625ZM39.978127 31.353127L39.978127 29.337502L41.74375 29.337502L41.74375 31.353127L39.978127 31.353127ZM39.978127 43.65L39.978127 33.275L41.74375 33.275L41.74375 43.65L39.978127 43.65ZM43.259377 40.55625L45.009377 40.275Q45.15 41.321877 45.821877 41.884377Q46.49375 42.43125 47.696877 42.43125Q48.9 42.43125 49.478127 41.946877Q50.071877 41.446877 50.071877 40.790627Q50.071877 40.196877 49.55625 39.853127Q49.196877 39.61875 47.759377 39.259377Q45.821877 38.759377 45.071877 38.415627Q44.3375 38.05625 43.946877 37.43125Q43.55625 36.790627 43.55625 36.025Q43.55625 35.3375 43.86875 34.74375Q44.196877 34.15 44.74375 33.759377Q45.15 33.4625 45.853127 33.259377Q46.571877 33.040627 47.384377 33.040627Q48.603127 33.040627 49.525 33.4Q50.446877 33.74375 50.884377 34.353127Q51.321877 34.946877 51.49375 35.946877L49.775 36.18125Q49.65 35.384377 49.0875 34.946877Q48.525 34.49375 47.509377 34.49375Q46.290627 34.49375 45.775 34.9Q45.259377 35.290627 45.259377 35.821877Q45.259377 36.165627 45.478127 36.446877Q45.68125 36.728127 46.15 36.915627Q46.415627 37.009377 47.696877 37.353127Q49.571877 37.853127 50.30625 38.18125Q51.040627 38.49375 51.4625 39.103127Q51.884377 39.696877 51.884377 40.603127Q51.884377 41.478127 51.36875 42.259377Q50.853127 43.040627 49.884377 43.4625Q48.915627 43.884377 47.696877 43.884377Q45.68125 43.884377 44.61875 43.040627Q43.55625 42.196877 43.259377 40.55625ZM57.80625 42.071877L58.05625 43.634377Q57.321877 43.790627 56.728127 43.790627Q55.775 43.790627 55.24375 43.49375Q54.728127 43.18125 54.509377 42.696877Q54.290627 42.196877 54.290627 40.61875L54.290627 34.65L53.009377 34.65L53.009377 33.275L54.290627 33.275L54.290627 30.712502L56.040627 29.650002L56.040627 33.275L57.80625 33.275L57.80625 34.65L56.040627 34.65L56.040627 40.7125Q56.040627 41.4625 56.134377 41.68125Q56.228127 41.884377 56.43125 42.025Q56.65 42.15 57.040627 42.15Q57.321877 42.15 57.80625 42.071877ZM59.946877 43.65L59.946877 33.275L61.525 33.275L61.525 34.853127Q62.134377 33.74375 62.65 33.4Q63.165627 33.040627 63.775 33.040627Q64.66563 33.040627 65.5875 33.603127L64.97813 35.24375Q64.3375 34.853127 63.696877 34.853127Q63.11875 34.853127 62.65 35.2125Q62.196877 35.55625 61.99375 36.165627Q61.7125 37.103127 61.7125 38.2125L61.7125 43.65L59.946877 43.65ZM66.97813 31.353127L66.97813 29.337502L68.74375 29.337502L68.74375 31.353127L66.97813 31.353127ZM66.97813 43.65L66.97813 33.275L68.74375 33.275L68.74375 43.65L66.97813 43.65ZM72.5875 43.65L70.9625 43.65L70.9625 29.337502L72.7125 29.337502L72.7125 34.446877Q73.8375 33.040627 75.55625 33.040627Q76.50938 33.040627 77.36875 33.43125Q78.22813 33.821877 78.775 34.525Q79.32188 35.2125 79.63438 36.196877Q79.94688 37.18125 79.94688 38.30625Q79.94688 40.978127 78.63438 42.43125Q77.32188 43.884377 75.47813 43.884377Q73.63438 43.884377 72.5875 42.353127L72.5875 43.65ZM72.57188 38.384377Q72.57188 40.24375 73.07188 41.0875Q73.91563 42.43125 75.32188 42.43125Q76.47813 42.43125 77.30625 41.43125Q78.15 40.43125 78.15 38.446877Q78.15 36.415627 77.3375 35.4625Q76.54063 34.49375 75.4 34.49375Q74.24375 34.49375 73.4 35.49375Q72.57188 36.49375 72.57188 38.384377ZM88.75938 43.65L88.75938 42.11875Q87.55625 43.884377 85.47813 43.884377Q84.55625 43.884377 83.75938 43.540627Q82.9625 43.18125 82.57188 42.65Q82.19688 42.11875 82.04063 41.3375Q81.93125 40.821877 81.93125 39.696877L81.93125 33.275L83.68125 33.275L83.68125 39.025Q83.68125 40.4 83.79063 40.884377Q83.9625 41.571877 84.49375 41.978127Q85.04063 42.36875 85.82188 42.36875Q86.61875 42.36875 87.30625 41.9625Q88.00938 41.55625 88.29063 40.86875Q88.5875 40.165627 88.5875 38.8375L88.5875 33.275L90.3375 33.275L90.3375 43.65L88.75938 43.65ZM95.80625 42.071877L96.05625 43.634377Q95.32188 43.790627 94.72813 43.790627Q93.775 43.790627 93.24375 43.49375Q92.72813 43.18125 92.50938 42.696877Q92.29063 42.196877 92.29063 40.61875L92.29063 34.65L91.00938 34.65L91.00938 33.275L92.29063 33.275L92.29063 30.712502L94.04063 29.650002L94.04063 33.275L95.80625 33.275L95.80625 34.65L94.04063 34.65L94.04063 40.7125Q94.04063 41.4625 94.13438 41.68125Q94.22813 41.884377 94.43125 42.025Q94.65 42.15 95.04063 42.15Q95.32188 42.15 95.80625 42.071877ZM97.97813 31.353127L97.97813 29.337502L99.74375 29.337502L99.74375 31.353127L97.97813 31.353127ZM97.97813 43.65L97.97813 33.275L99.74375 33.275L99.74375 43.65L97.97813 43.65ZM101.32188 38.4625Q101.32188 35.5875 102.91563 34.196877Q104.25938 33.040627 106.18125 33.040627Q108.32188 33.040627 109.66563 34.446877Q111.025 35.853127 111.025 38.321877Q111.025 40.321877 110.43125 41.478127Q109.8375 42.61875 108.68125 43.259377Q107.54063 43.884377 106.18125 43.884377Q103.99375 43.884377 102.65 42.49375Q101.32188 41.0875 101.32188 38.4625ZM103.11875 38.4625Q103.11875 40.4625 103.97813 41.446877Q104.85313 42.43125 106.18125 42.43125Q107.49375 42.43125 108.35313 41.446877Q109.22813 40.446877 109.22813 38.4Q109.22813 36.478127 108.35313 35.49375Q107.47813 34.49375 106.18125 34.49375Q104.85313 34.49375 103.97813 35.49375Q103.11875 36.478127 103.11875 38.4625ZM112.9625 43.65L112.9625 33.275L114.55625 33.275L114.55625 34.759377Q115.69688 33.040627 117.85313 33.040627Q118.79063 33.040627 119.57188 33.384377Q120.36875 33.7125 120.75938 34.259377Q121.15 34.80625 121.30625 35.55625Q121.4 36.05625 121.4 37.275L121.4 43.65L119.63438 43.65L119.63438 37.3375Q119.63438 36.259377 119.43125 35.728127Q119.22813 35.196877 118.69688 34.884377Q118.18125 34.571877 117.47813 34.571877Q116.35313 34.571877 115.54063 35.290627Q114.72813 35.99375 114.72813 37.978127L114.72813 43.65L112.9625 43.65ZM129.19687 43.65L129.19687 29.337502L134.5875 29.337502Q136.025 29.337502 136.775 29.462502Q137.82187 29.650002 138.54062 30.150002Q139.25937 30.634377 139.68124 31.525002Q140.11874 32.415627 140.11874 33.478127Q140.11874 35.30625 138.94687 36.571877Q137.79062 37.821877 134.75937 37.821877L131.0875 37.821877L131.0875 43.65L129.19687 43.65ZM131.0875 36.134377L134.79062 36.134377Q136.61874 36.134377 137.38437 35.4625Q138.16562 34.775 138.16562 33.525Q138.16562 32.634377 137.7125 31.993752Q137.25937 31.353127 136.525 31.150002Q136.04062 31.025002 134.74374 31.025002L131.0875 31.025002L131.0875 36.134377ZM141.97812 31.353127L141.97812 29.337502L143.74374 29.337502L143.74374 31.353127L141.97812 31.353127ZM141.97812 43.65L141.97812 33.275L143.74374 33.275L143.74374 43.65L141.97812 43.65ZM153.07187 40.30625L154.88437 40.540627Q154.4625 42.11875 153.29062 43.009377Q152.13437 43.884377 150.32187 43.884377Q148.05624 43.884377 146.7125 42.49375Q145.38437 41.0875 145.38437 38.55625Q145.38437 35.93125 146.72812 34.49375Q148.07187 33.040627 150.22812 33.040627Q152.30624 33.040627 153.61874 34.4625Q154.94687 35.86875 154.94687 38.446877Q154.94687 38.603127 154.93124 38.915627L147.19687 38.915627Q147.29062 40.61875 148.16562 41.525Q149.04062 42.43125 150.3375 42.43125Q151.30624 42.43125 151.97812 41.93125Q152.66562 41.415627 153.07187 40.30625ZM147.29062 37.4625L153.0875 37.4625Q152.97812 36.165627 152.43124 35.509377Q151.5875 34.49375 150.24374 34.49375Q149.04062 34.49375 148.2125 35.30625Q147.38437 36.103127 147.29062 37.4625ZM173.41562 38.634377L175.30624 39.103127Q174.7125 41.446877 173.16562 42.68125Q171.61874 43.9 169.36874 43.9Q167.05624 43.9 165.60312 42.9625Q164.16562 42.009377 163.4 40.228127Q162.65 38.43125 162.65 36.384377Q162.65 34.15 163.49374 32.49375Q164.35312 30.821877 165.93124 29.962502Q167.50937 29.087502 169.4 29.087502Q171.55624 29.087502 173.00937 30.181252Q174.47812 31.275002 175.05624 33.259377L173.19687 33.696877Q172.69687 32.134377 171.74374 31.431252Q170.80624 30.712502 169.36874 30.712502Q167.7125 30.712502 166.60312 31.509377Q165.49374 32.290627 165.04062 33.634377Q164.60312 34.9625 164.60312 36.36875Q164.60312 38.196877 165.13437 39.571877Q165.66562 40.93125 166.79062 41.603127Q167.91562 42.275 169.2125 42.275Q170.80624 42.275 171.91562 41.353127Q173.025 40.43125 173.41562 38.634377ZM176.9625 43.65L176.9625 29.337502L178.72812 29.337502L178.72812 34.4625Q179.9625 33.040627 181.8375 33.040627Q182.97812 33.040627 183.82187 33.49375Q184.68124 33.946877 185.04062 34.759377Q185.41562 35.55625 185.41562 37.071877L185.41562 43.65L183.66562 43.65L183.66562 37.071877Q183.66562 35.759377 183.0875 35.165627Q182.50937 34.55625 181.47812 34.55625Q180.69687 34.55625 179.99374 34.9625Q179.30624 35.36875 179.00937 36.071877Q178.72812 36.759377 178.72812 37.978127L178.72812 43.65L176.9625 43.65ZM193.74374 42.36875Q192.75937 43.196877 191.85312 43.540627Q190.94687 43.884377 189.91562 43.884377Q188.2125 43.884377 187.29062 43.05625Q186.36874 42.2125 186.36874 40.915627Q186.36874 40.15 186.7125 39.525Q187.07187 38.9 187.63437 38.525Q188.19687 38.134377 188.9 37.93125Q189.41562 37.80625 190.4625 37.665627Q192.5875 37.415627 193.5875 37.071877Q193.60312 36.7125 193.60312 36.603127Q193.60312 35.540627 193.10312 35.0875Q192.43124 34.49375 191.10312 34.49375Q189.85312 34.49375 189.25937 34.93125Q188.68124 35.36875 188.4 36.478127L186.68124 36.24375Q186.91562 35.134377 187.44687 34.4625Q187.97812 33.775 188.99374 33.415627Q190.00937 33.040627 191.35312 33.040627Q192.68124 33.040627 193.50937 33.353127Q194.3375 33.665627 194.72812 34.15Q195.11874 34.61875 195.275 35.3375Q195.36874 35.790627 195.36874 36.9625L195.36874 39.30625Q195.36874 41.759377 195.47812 42.415627Q195.5875 43.05625 195.93124 43.65L194.0875 43.65Q193.82187 43.103127 193.74374 42.36875ZM193.5875 38.446877Q192.63437 38.8375 190.7125 39.103127Q189.63437 39.259377 189.18124 39.4625Q188.74374 39.65 188.49374 40.025Q188.24374 40.4 188.24374 40.86875Q188.24374 41.571877 188.775 42.040627Q189.30624 42.509377 190.3375 42.509377Q191.35312 42.509377 192.13437 42.071877Q192.93124 41.61875 193.30624 40.853127Q193.5875 40.24375 193.5875 39.0875L193.5875 38.446877ZM197.94687 43.65L197.94687 33.275L199.525 33.275L199.525 34.853127Q200.13437 33.74375 200.65 33.4Q201.16562 33.040627 201.775 33.040627Q202.66562 33.040627 203.5875 33.603127L202.97812 35.24375Q202.3375 34.853127 201.69687 34.853127Q201.11874 34.853127 200.65 35.2125Q200.19687 35.55625 199.99374 36.165627Q199.7125 37.103127 199.7125 38.2125L199.7125 43.65L197.94687 43.65ZM208.80624 42.071877L209.05624 43.634377Q208.32187 43.790627 207.72812 43.790627Q206.775 43.790627 206.24374 43.49375Q205.72812 43.18125 205.50937 42.696877Q205.29062 42.196877 205.29062 40.61875L205.29062 34.65L204.00937 34.65L204.00937 33.275L205.29062 33.275L205.29062 30.712502L207.04062 29.650002L207.04062 33.275L208.80624 33.275L208.80624 34.65L207.04062 34.65L207.04062 40.7125Q207.04062 41.4625 207.13437 41.68125Q207.22812 41.884377 207.43124 42.025Q207.65 42.15 208.04062 42.15Q208.32187 42.15 208.80624 42.071877Z" fill-rule="nonzero"/></svg>