<svg width="1875" height="800" viewBox="0 0 1875 800" fill="none" xmlns="http://www.w3.org/2000/svg">
<g clip-path="url(#clip0_45_2)">
<rect width="1875" height="800" fill="black"/>
<rect width="1875" height="800" fill="url(#paint0_linear_45_2)"/>
<path d="M513.355 337.161L502.897 298.271H570.383L539.826 412H533.454L516.46 348.763L499.466 412H493.093L462.536 298.271H468.746L496.197 400.725L513.355 337.161ZM562.54 304.317H510.74L519.564 337.161L536.722 400.725L562.54 304.317ZM598.2 298.271H678.268V304.317H604.246V350.397H668.627V356.443H604.246V405.954H678.268V412H598.2V298.271ZM781.251 301.539C786.371 304.153 790.293 307.748 793.016 312.323C795.849 316.899 797.265 322.019 797.265 327.683C797.265 333.021 795.849 337.978 793.016 342.553C790.293 347.02 786.48 350.56 781.578 353.174C787.352 355.135 792.145 358.73 795.957 363.959C799.77 369.188 801.677 374.962 801.677 381.28C801.677 386.945 800.26 392.174 797.428 396.967C794.596 401.76 790.837 405.464 786.153 408.078C783.757 409.386 781.088 410.366 778.146 411.02C775.205 411.673 771.283 412 766.381 412H718.667V298.271H764.094C771.283 298.271 777.003 299.36 781.251 301.539ZM778.637 348.436C782.558 346.475 785.663 343.643 787.951 339.939C790.238 336.235 791.382 332.15 791.382 327.683C791.382 322.672 790.075 318.315 787.46 314.611C784.846 310.798 781.523 308.02 777.493 306.277C774.443 304.97 769.323 304.317 762.133 304.317H724.55V351.05H765.074C770.739 351.05 775.26 350.179 778.637 348.436ZM782.558 403.503C786.589 401.433 789.803 398.437 792.199 394.516C794.596 390.485 795.794 386.128 795.794 381.443C795.794 376.541 794.541 372.129 792.036 368.208C789.53 364.177 786.153 361.181 781.905 359.22C778.637 357.695 774.225 356.933 768.669 356.933H724.55V406.117H766.545C770.684 406.117 773.952 405.9 776.349 405.464C778.746 405.028 780.815 404.374 782.558 403.503ZM997.348 405.954V319.023C993.753 324.579 989.015 328.991 983.132 332.259C977.358 335.527 971.04 337.161 964.177 337.161V331.278C970.169 331.278 975.67 329.808 980.681 326.866C985.801 323.816 989.832 319.786 992.773 314.774C995.823 309.654 997.348 304.099 997.348 298.107H1003.23V405.954H1037.55V412H963.033V405.954H997.348ZM1111.28 353.011L1146.57 304.643H1088.4V298.597H1154.09V304.643L1128.11 340.102C1133.88 341.191 1139.06 343.479 1143.63 346.965C1148.32 350.451 1151.97 354.809 1154.58 360.037C1157.3 365.266 1158.67 370.877 1158.67 376.868C1158.67 383.622 1156.98 389.886 1153.6 395.66C1150.22 401.433 1145.65 406.009 1139.87 409.386C1134.21 412.763 1128 414.451 1121.25 414.451C1114.49 414.451 1108.23 412.763 1102.46 409.386C1096.79 406.009 1092.27 401.433 1088.89 395.66C1085.52 389.886 1083.83 383.622 1083.83 376.868H1089.71C1089.71 382.533 1091.13 387.816 1093.96 392.718C1096.79 397.511 1100.6 401.324 1105.4 404.157C1110.3 406.989 1115.58 408.405 1121.25 408.405C1126.91 408.405 1132.14 406.989 1136.93 404.157C1141.84 401.324 1145.7 397.511 1148.54 392.718C1151.37 387.816 1152.78 382.533 1152.78 376.868C1152.78 371.53 1151.48 366.574 1148.86 361.998C1146.36 357.423 1142.87 353.665 1138.4 350.723C1134.05 347.782 1129.25 346.094 1124.02 345.658L1116.18 356.443L1111.28 353.011ZM1232.24 353.011L1267.53 304.643H1209.36V298.597H1275.05V304.643L1249.07 340.102C1254.84 341.191 1260.02 343.479 1264.59 346.965C1269.27 350.451 1272.92 354.809 1275.54 360.037C1278.26 365.266 1279.62 370.877 1279.62 376.868C1279.62 383.622 1277.94 389.886 1274.56 395.66C1271.18 401.433 1266.61 406.009 1260.83 409.386C1255.17 412.763 1248.96 414.451 1242.2 414.451C1235.45 414.451 1229.19 412.763 1223.41 409.386C1217.75 406.009 1213.23 401.433 1209.85 395.66C1206.47 389.886 1204.78 383.622 1204.78 376.868H1210.67C1210.67 382.533 1212.08 387.816 1214.92 392.718C1217.75 397.511 1221.56 401.324 1226.35 404.157C1231.26 406.989 1236.54 408.405 1242.2 408.405C1247.87 408.405 1253.1 406.989 1257.89 404.157C1262.79 401.324 1266.66 397.511 1269.49 392.718C1272.33 387.816 1273.74 382.533 1273.74 376.868C1273.74 371.53 1272.43 366.574 1269.82 361.998C1267.31 357.423 1263.83 353.665 1259.36 350.723C1255 347.782 1250.21 346.094 1244.98 345.658L1237.14 356.443L1232.24 353.011ZM1341.27 412L1394.05 304.153H1325.58V298.107H1400.74V304.153L1347.97 412H1341.27Z" fill="#3FF1E6"/>
<path d="M614.055 558L605.09 525.273H608.126L615.541 553.414H615.797L623.212 525.273H626.663L634.078 553.414H634.334L641.749 525.273H644.801L635.836 558H632.64L625.049 530.243H624.842L617.251 558H614.055ZM657.249 558.511C654.959 558.511 652.977 557.979 651.305 556.913C649.632 555.837 648.338 554.351 647.422 552.455C646.516 550.548 646.063 548.353 646.063 545.871C646.063 543.4 646.516 541.205 647.422 539.287C648.338 537.359 649.6 535.852 651.209 534.765C652.828 533.668 654.698 533.119 656.818 533.119C658.15 533.119 659.433 533.364 660.669 533.854C661.905 534.333 663.013 535.074 663.993 536.075C664.984 537.066 665.767 538.318 666.342 539.831C666.917 541.333 667.205 543.112 667.205 545.168V546.574H648.029V544.065H664.297C664.297 542.489 663.977 541.072 663.338 539.815C662.709 538.547 661.83 537.545 660.701 536.81C659.582 536.075 658.288 535.708 656.818 535.708C655.262 535.708 653.893 536.123 652.711 536.954C651.528 537.785 650.602 538.882 649.93 540.246C649.27 541.61 648.934 543.101 648.924 544.721V546.223C648.924 548.172 649.259 549.877 649.93 551.336C650.612 552.785 651.576 553.909 652.823 554.708C654.069 555.507 655.545 555.907 657.249 555.907C658.411 555.907 659.428 555.725 660.301 555.363C661.186 555.001 661.926 554.516 662.523 553.909C663.13 553.291 663.588 552.615 663.897 551.88L666.598 552.759C666.225 553.792 665.612 554.745 664.76 555.619C663.918 556.493 662.864 557.196 661.596 557.728C660.339 558.25 658.89 558.511 657.249 558.511ZM674.064 558V525.273H676.925V538.137H677.18C677.5 537.402 677.958 536.645 678.555 535.868C679.162 535.09 679.956 534.44 680.936 533.918C681.927 533.385 683.173 533.119 684.675 533.119C686.689 533.119 688.457 533.652 689.981 534.717C691.504 535.772 692.692 537.252 693.544 539.159C694.396 541.056 694.823 543.266 694.823 545.791C694.823 548.327 694.396 550.548 693.544 552.455C692.703 554.362 691.52 555.848 689.997 556.913C688.484 557.979 686.726 558.511 684.723 558.511C683.232 558.511 681.985 558.245 680.984 557.712C679.993 557.18 679.194 556.525 678.587 555.747C677.979 554.958 677.511 554.191 677.18 553.446H676.829V558H674.064ZM676.877 545.743C676.877 547.725 677.17 549.483 677.756 551.017C678.352 552.54 679.205 553.739 680.313 554.612C681.431 555.475 682.784 555.907 684.372 555.907C686.002 555.907 687.381 555.459 688.51 554.564C689.64 553.659 690.497 552.439 691.083 550.905C691.669 549.371 691.962 547.65 691.962 545.743C691.962 543.858 691.669 542.158 691.083 540.646C690.508 539.133 689.656 537.934 688.526 537.05C687.397 536.155 686.012 535.708 684.372 535.708C682.774 535.708 681.415 536.139 680.297 537.002C679.189 537.854 678.342 539.037 677.756 540.55C677.17 542.052 676.877 543.783 676.877 545.743ZM711.586 558.447C709.572 558.447 707.772 558.085 706.184 557.361C704.597 556.626 703.34 555.608 702.413 554.309C701.486 553.009 700.996 551.512 700.943 549.818H703.963C704.016 551.011 704.384 552.055 705.066 552.95C705.748 553.835 706.653 554.527 707.782 555.028C708.912 555.518 710.169 555.763 711.554 555.763C713.066 555.763 714.398 555.48 715.549 554.916C716.71 554.351 717.616 553.579 718.265 552.599C718.926 551.608 719.256 550.489 719.256 549.243C719.256 547.922 718.921 546.755 718.249 545.743C717.578 544.731 716.614 543.943 715.357 543.378C714.111 542.814 712.619 542.531 710.883 542.531H708.965V539.847H710.883C712.299 539.847 713.551 539.591 714.638 539.08C715.735 538.558 716.598 537.828 717.227 536.89C717.855 535.953 718.169 534.85 718.169 533.582C718.169 532.379 717.898 531.319 717.354 530.402C716.811 529.486 716.044 528.767 715.053 528.245C714.073 527.723 712.928 527.462 711.618 527.462C710.35 527.462 709.189 527.707 708.134 528.197C707.079 528.687 706.227 529.38 705.577 530.275C704.938 531.169 704.597 532.229 704.554 533.455H701.662C701.705 531.75 702.173 530.253 703.068 528.964C703.974 527.664 705.172 526.652 706.664 525.928C708.166 525.193 709.828 524.825 711.65 524.825C713.578 524.825 715.245 525.219 716.651 526.008C718.058 526.796 719.144 527.846 719.911 529.156C720.689 530.456 721.078 531.888 721.078 533.455C721.078 535.319 720.572 536.917 719.56 538.249C718.548 539.57 717.184 540.486 715.469 540.997V541.205C717.557 541.62 719.198 542.547 720.391 543.985C721.595 545.413 722.196 547.165 722.196 549.243C722.196 550.99 721.738 552.561 720.822 553.957C719.906 555.342 718.649 556.439 717.051 557.249C715.464 558.048 713.642 558.447 711.586 558.447ZM760.389 533.455C760.208 531.633 759.403 530.184 757.976 529.108C756.548 528.032 754.753 527.494 752.591 527.494C751.067 527.494 749.725 527.755 748.564 528.277C747.413 528.799 746.508 529.523 745.847 530.45C745.197 531.366 744.872 532.411 744.872 533.582C744.872 534.445 745.059 535.202 745.432 535.852C745.804 536.501 746.305 537.061 746.934 537.529C747.573 537.988 748.276 538.382 749.043 538.712C749.821 539.042 750.604 539.319 751.392 539.543L754.844 540.534C755.888 540.821 756.932 541.189 757.976 541.636C759.02 542.084 759.973 542.648 760.836 543.33C761.71 544.001 762.408 544.827 762.93 545.807C763.462 546.777 763.729 547.943 763.729 549.307C763.729 551.054 763.276 552.625 762.37 554.021C761.465 555.417 760.165 556.525 758.471 557.345C756.777 558.154 754.748 558.559 752.383 558.559C750.156 558.559 748.223 558.192 746.582 557.457C744.941 556.711 743.652 555.683 742.715 554.373C741.777 553.062 741.25 551.544 741.133 549.818H744.201C744.308 551.107 744.734 552.199 745.479 553.094C746.225 553.989 747.195 554.671 748.388 555.14C749.581 555.598 750.913 555.827 752.383 555.827C754.013 555.827 755.462 555.555 756.729 555.012C758.008 554.458 759.009 553.691 759.734 552.711C760.469 551.72 760.836 550.569 760.836 549.259C760.836 548.151 760.549 547.224 759.973 546.478C759.398 545.722 758.594 545.088 757.56 544.577C756.538 544.065 755.35 543.613 753.997 543.218L750.082 542.068C747.514 541.301 745.522 540.241 744.105 538.888C742.688 537.535 741.98 535.809 741.98 533.71C741.98 531.952 742.449 530.408 743.386 529.076C744.334 527.734 745.613 526.69 747.221 525.944C748.841 525.187 750.657 524.809 752.671 524.809C754.705 524.809 756.506 525.182 758.072 525.928C759.638 526.674 760.879 527.702 761.795 529.012C762.722 530.312 763.217 531.793 763.281 533.455H760.389ZM780.508 558H770.92V525.273H781.083C784.205 525.273 786.873 525.923 789.089 527.222C791.316 528.522 793.02 530.386 794.203 532.815C795.385 535.244 795.977 538.158 795.977 541.556C795.977 544.987 795.369 547.933 794.155 550.393C792.951 552.844 791.193 554.724 788.881 556.034C786.58 557.345 783.789 558 780.508 558ZM773.908 555.315H780.332C783.145 555.315 785.499 554.761 787.395 553.653C789.292 552.545 790.714 550.963 791.662 548.907C792.61 546.851 793.084 544.401 793.084 541.556C793.074 538.733 792.605 536.304 791.678 534.27C790.762 532.235 789.398 530.674 787.587 529.587C785.787 528.501 783.56 527.957 780.907 527.957H773.908V555.315ZM803.22 558V525.273H806.208V542.899H806.496L822.476 525.273H826.407L812.424 540.406L826.343 558H822.699L810.57 542.483L806.208 547.373V558H803.22ZM853.781 533.455V535.931H842.067V533.455H853.781ZM845.727 527.574H848.587V551.592C848.587 552.615 848.763 553.419 849.115 554.005C849.466 554.58 849.924 554.99 850.489 555.235C851.053 555.47 851.655 555.587 852.295 555.587C852.667 555.587 852.987 555.566 853.253 555.523C853.52 555.47 853.754 555.417 853.956 555.363L854.564 557.936C854.287 558.043 853.946 558.138 853.541 558.224C853.136 558.32 852.635 558.368 852.039 558.368C850.995 558.368 849.988 558.138 849.019 557.68C848.06 557.222 847.271 556.54 846.654 555.635C846.036 554.729 845.727 553.605 845.727 552.263V527.574ZM869.517 558.511C867.397 558.511 865.522 557.973 863.892 556.897C862.273 555.821 861.005 554.335 860.089 552.439C859.173 550.532 858.715 548.332 858.715 545.839C858.715 543.325 859.173 541.114 860.089 539.207C861.005 537.29 862.273 535.798 863.892 534.733C865.522 533.657 867.397 533.119 869.517 533.119C871.637 533.119 873.507 533.657 875.126 534.733C876.745 535.809 878.013 537.3 878.929 539.207C879.856 541.114 880.32 543.325 880.32 545.839C880.32 548.332 879.862 550.532 878.945 552.439C878.029 554.335 876.756 555.821 875.126 556.897C873.507 557.973 871.637 558.511 869.517 558.511ZM869.517 555.907C871.222 555.907 872.665 555.449 873.848 554.532C875.03 553.616 875.925 552.396 876.532 550.873C877.15 549.349 877.459 547.672 877.459 545.839C877.459 544.007 877.15 542.324 876.532 540.789C875.925 539.255 875.03 538.025 873.848 537.098C872.665 536.171 871.222 535.708 869.517 535.708C867.823 535.708 866.38 536.171 865.187 537.098C864.004 538.025 863.104 539.255 862.486 540.789C861.879 542.324 861.575 544.007 861.575 545.839C861.575 547.672 861.879 549.349 862.486 550.873C863.104 552.396 864.004 553.616 865.187 554.532C866.369 555.449 867.813 555.907 869.517 555.907ZM904.669 558L897.255 533.455H900.259L906.076 553.701H906.283L912.084 533.455H915.104L920.857 553.653H921.081L926.898 533.455H929.902L922.487 558H919.547L913.73 537.881H913.426L907.61 558H904.669ZM944.136 558.511C942.016 558.511 940.141 557.973 938.511 556.897C936.892 555.821 935.624 554.335 934.708 552.439C933.792 550.532 933.334 548.332 933.334 545.839C933.334 543.325 933.792 541.114 934.708 539.207C935.624 537.29 936.892 535.798 938.511 534.733C940.141 533.657 942.016 533.119 944.136 533.119C946.256 533.119 948.126 533.657 949.745 534.733C951.365 535.809 952.632 537.3 953.549 539.207C954.475 541.114 954.939 543.325 954.939 545.839C954.939 548.332 954.481 550.532 953.565 552.439C952.648 554.335 951.375 555.821 949.745 556.897C948.126 557.973 946.256 558.511 944.136 558.511ZM944.136 555.907C945.841 555.907 947.284 555.449 948.467 554.532C949.649 553.616 950.544 552.396 951.152 550.873C951.769 549.349 952.078 547.672 952.078 545.839C952.078 544.007 951.769 542.324 951.152 540.789C950.544 539.255 949.649 538.025 948.467 537.098C947.284 536.171 945.841 535.708 944.136 535.708C942.442 535.708 940.999 536.171 939.806 537.098C938.623 538.025 937.723 539.255 937.105 540.789C936.498 542.324 936.194 544.007 936.194 545.839C936.194 547.672 936.498 549.349 937.105 550.873C937.723 552.396 938.623 553.616 939.806 554.532C940.988 555.449 942.432 555.907 944.136 555.907ZM961.183 558V533.455H963.948V537.226H964.155C964.645 535.99 965.498 534.994 966.712 534.238C967.937 533.471 969.322 533.087 970.867 533.087C971.101 533.087 971.362 533.092 971.65 533.103C971.938 533.114 972.177 533.124 972.369 533.135V536.027C972.241 536.006 972.018 535.974 971.698 535.931C971.378 535.889 971.032 535.868 970.659 535.868C969.381 535.868 968.241 536.139 967.24 536.683C966.249 537.215 965.466 537.956 964.89 538.904C964.315 539.852 964.028 540.933 964.028 542.148V558H961.183ZM979.812 548.732L979.78 545.008H980.419L991.925 533.455H995.52L984.158 544.832L983.903 544.88L979.812 548.732ZM977.223 558V525.273H980.068V558H977.223ZM992.516 558L982.544 545.392L984.59 543.426L996.16 558H992.516ZM1018.97 558L1011.56 533.455H1014.56L1020.38 553.701H1020.59L1026.39 533.455H1029.41L1035.16 553.653H1035.38L1041.2 533.455H1044.2L1036.79 558H1033.85L1028.03 537.881H1027.73L1021.91 558H1018.97ZM1049.76 558V533.455H1052.63V558H1049.76ZM1051.22 529.236C1050.63 529.236 1050.13 529.039 1049.72 528.645C1049.3 528.24 1049.09 527.755 1049.09 527.19C1049.09 526.626 1049.3 526.146 1049.72 525.752C1050.13 525.347 1050.63 525.145 1051.22 525.145C1051.8 525.145 1052.31 525.347 1052.72 525.752C1053.14 526.146 1053.34 526.626 1053.34 527.19C1053.34 527.755 1053.14 528.24 1052.72 528.645C1052.31 529.039 1051.8 529.236 1051.22 529.236ZM1069.82 533.455V535.931H1058.1V533.455H1069.82ZM1061.76 527.574H1064.62V551.592C1064.62 552.615 1064.8 553.419 1065.15 554.005C1065.5 554.58 1065.96 554.99 1066.52 555.235C1067.09 555.47 1067.69 555.587 1068.33 555.587C1068.7 555.587 1069.02 555.566 1069.29 555.523C1069.55 555.47 1069.79 555.417 1069.99 555.363L1070.6 557.936C1070.32 558.043 1069.98 558.138 1069.58 558.224C1069.17 558.32 1068.67 558.368 1068.07 558.368C1067.03 558.368 1066.02 558.138 1065.05 557.68C1064.09 557.222 1063.31 556.54 1062.69 555.635C1062.07 554.729 1061.76 553.605 1061.76 552.263V527.574ZM1079.65 542.659V558H1076.8V525.273H1079.65V537.306H1079.9C1080.48 536.038 1081.37 535.026 1082.57 534.27C1083.79 533.513 1085.32 533.135 1087.17 533.135C1088.84 533.135 1090.3 533.476 1091.55 534.158C1092.81 534.839 1093.79 535.846 1094.49 537.178C1095.2 538.51 1095.55 540.15 1095.55 542.1V558H1092.69V542.276C1092.69 540.251 1092.12 538.659 1090.99 537.498C1089.87 536.326 1088.36 535.74 1086.46 535.74C1085.14 535.74 1083.98 536.017 1082.96 536.571C1081.93 537.125 1081.12 537.924 1080.53 538.968C1079.94 540.001 1079.65 541.232 1079.65 542.659ZM1116.29 558V525.273H1119.27V542.899H1119.56L1135.54 525.273H1139.47L1125.49 540.406L1139.41 558H1135.77L1123.64 542.483L1119.27 547.373V558H1116.29ZM1147.37 525.273V558H1144.52V525.273H1147.37ZM1156.88 567.205C1156.31 567.205 1155.78 567.151 1155.29 567.045C1154.8 566.938 1154.41 566.821 1154.13 566.693L1154.89 564.184C1155.86 564.483 1156.73 564.589 1157.48 564.504C1158.24 564.429 1158.91 564.088 1159.5 563.481C1160.08 562.885 1160.6 561.968 1161.06 560.733L1161.96 558.24L1152.93 533.455H1156.01L1163.3 554.245H1163.52L1170.81 533.455H1173.89L1163.51 561.883C1163.07 563.066 1162.53 564.051 1161.89 564.839C1161.25 565.638 1160.51 566.23 1159.67 566.613C1158.84 567.007 1157.91 567.205 1156.88 567.205ZM1182.3 542.659V558H1179.46V533.455H1182.22V537.306H1182.48C1183.05 536.049 1183.95 535.042 1185.16 534.286C1186.39 533.518 1187.9 533.135 1189.7 533.135C1191.35 533.135 1192.8 533.481 1194.05 534.174C1195.31 534.855 1196.28 535.862 1196.97 537.194C1197.68 538.526 1198.03 540.161 1198.03 542.1V558H1195.18V542.276C1195.18 540.262 1194.62 538.669 1193.49 537.498C1192.37 536.326 1190.87 535.74 1188.98 535.74C1187.69 535.74 1186.55 536.017 1185.55 536.571C1184.55 537.125 1183.75 537.924 1183.17 538.968C1182.59 540.001 1182.3 541.232 1182.3 542.659ZM1215.19 533.455V535.931H1203.47V533.455H1215.19ZM1207.13 527.574H1209.99V551.592C1209.99 552.615 1210.17 553.419 1210.52 554.005C1210.87 554.58 1211.33 554.99 1211.9 555.235C1212.46 555.47 1213.06 555.587 1213.7 555.587C1214.07 555.587 1214.39 555.566 1214.66 555.523C1214.93 555.47 1215.16 555.417 1215.36 555.363L1215.97 557.936C1215.69 558.043 1215.35 558.138 1214.95 558.224C1214.54 558.32 1214.04 558.368 1213.45 558.368C1212.4 558.368 1211.39 558.138 1210.42 557.68C1209.47 557.222 1208.68 556.54 1208.06 555.635C1207.44 554.729 1207.13 553.605 1207.13 552.263V527.574ZM1228.5 558.559C1227.02 558.559 1225.67 558.272 1224.44 557.696C1223.22 557.11 1222.24 556.269 1221.52 555.172C1220.79 554.064 1220.43 552.721 1220.43 551.145C1220.43 549.93 1220.66 548.907 1221.12 548.076C1221.58 547.245 1222.23 546.564 1223.07 546.031C1223.91 545.498 1224.91 545.077 1226.06 544.768C1227.21 544.46 1228.48 544.22 1229.86 544.049C1231.23 543.879 1232.4 543.73 1233.34 543.602C1234.3 543.474 1235.03 543.272 1235.53 542.995C1236.03 542.718 1236.28 542.27 1236.28 541.652V541.077C1236.28 539.404 1235.78 538.089 1234.78 537.13C1233.79 536.161 1232.36 535.676 1230.5 535.676C1228.73 535.676 1227.29 536.065 1226.17 536.842C1225.06 537.62 1224.28 538.536 1223.84 539.591L1221.14 538.616C1221.69 537.274 1222.46 536.203 1223.44 535.404C1224.42 534.594 1225.51 534.014 1226.73 533.662C1227.94 533.3 1229.17 533.119 1230.42 533.119C1231.36 533.119 1232.33 533.241 1233.34 533.487C1234.37 533.732 1235.32 534.158 1236.19 534.765C1237.06 535.362 1237.77 536.198 1238.31 537.274C1238.86 538.339 1239.13 539.692 1239.13 541.333V558H1236.28V554.117H1236.11C1235.77 554.841 1235.26 555.544 1234.59 556.226C1233.92 556.908 1233.08 557.467 1232.07 557.904C1231.05 558.341 1229.87 558.559 1228.5 558.559ZM1228.89 555.955C1230.4 555.955 1231.71 555.619 1232.82 554.948C1233.92 554.277 1234.78 553.387 1235.37 552.279C1235.98 551.161 1236.28 549.93 1236.28 548.588V545.04C1236.07 545.243 1235.71 545.424 1235.21 545.583C1234.72 545.743 1234.15 545.887 1233.5 546.015C1232.86 546.132 1232.23 546.233 1231.59 546.319C1230.95 546.404 1230.37 546.478 1229.86 546.542C1228.48 546.713 1227.29 546.979 1226.31 547.341C1225.33 547.703 1224.58 548.204 1224.06 548.843C1223.54 549.472 1223.28 550.282 1223.28 551.272C1223.28 552.764 1223.81 553.92 1224.87 554.74C1225.94 555.55 1227.28 555.955 1228.89 555.955ZM1246.7 558V533.455H1249.46V537.226H1249.67C1250.16 535.99 1251.01 534.994 1252.22 534.238C1253.45 533.471 1254.83 533.087 1256.38 533.087C1256.61 533.087 1256.88 533.092 1257.16 533.103C1257.45 533.114 1257.69 533.124 1257.88 533.135V536.027C1257.75 536.006 1257.53 535.974 1257.21 535.931C1256.89 535.889 1256.54 535.868 1256.17 535.868C1254.89 535.868 1253.75 536.139 1252.75 536.683C1251.76 537.215 1250.98 537.956 1250.4 538.904C1249.83 539.852 1249.54 540.933 1249.54 542.148V558H1246.7Z" fill="white"/>
<path d="M725 698.56V651.44C725.002 649.675 724.664 647.926 724.006 646.295C723.348 644.663 722.383 643.181 721.165 641.933C719.948 640.684 718.503 639.695 716.912 639.02C715.322 638.345 713.617 637.998 711.896 638L725 698.56ZM725 698.56C725.002 700.325 724.664 702.074 724.006 703.705C723.348 705.337 722.383 706.819 721.165 708.067C719.948 709.316 718.503 710.305 716.912 710.98C715.322 711.655 713.617 712.002 711.896 712H664.104M725 698.56L664.104 712M664.104 712C662.383 712.002 660.678 711.655 659.088 710.98M664.104 712L659.088 710.98M659.088 710.98C657.497 710.305 656.052 709.316 654.835 708.067M659.088 710.98L654.835 708.067M654.835 708.067C653.617 706.819 652.652 705.337 651.994 703.705M654.835 708.067L651.994 703.705M651.994 703.705C651.336 702.074 650.998 700.325 651 698.56L651.994 703.705ZM664.104 638.5H664.104L711.896 638.5L711.896 638.5C713.55 638.498 715.188 638.831 716.717 639.48C718.246 640.129 719.636 641.081 720.807 642.282C721.979 643.483 722.908 644.91 723.542 646.482C724.176 648.053 724.502 649.738 724.5 651.44V651.44V698.56V698.56C724.502 700.262 724.176 701.947 723.542 703.518C722.908 705.09 721.979 706.517 720.807 707.718C719.636 708.919 718.246 709.871 716.717 710.52C715.188 711.169 713.55 711.502 711.896 711.5H711.896H664.104H664.104C662.45 711.502 660.812 711.169 659.283 710.52C657.754 709.871 656.364 708.919 655.193 707.718C654.021 706.517 653.092 705.09 652.458 703.518C651.824 701.947 651.498 700.262 651.5 698.56V698.56L651.5 651.44L651.5 651.44C651.498 649.738 651.824 648.053 652.458 646.482C653.092 644.91 654.021 643.483 655.193 642.282C656.364 641.081 657.754 640.129 659.283 639.48C660.812 638.831 662.45 638.498 664.104 638.5Z" fill="#F7DF1E" stroke="#3FF1E6"/>
<path d="M700.835 695.902C702.325 698.336 704.265 700.125 707.695 700.125C710.576 700.125 712.416 698.685 712.416 696.695C712.416 694.31 710.525 693.466 707.354 692.079L705.616 691.333C700.598 689.195 697.264 686.517 697.264 680.855C697.264 675.64 701.238 671.67 707.448 671.67C711.869 671.67 715.048 673.209 717.338 677.238L711.923 680.714C710.731 678.577 709.445 677.734 707.448 677.734C705.411 677.734 704.12 679.026 704.12 680.714C704.12 682.8 705.412 683.645 708.396 684.937L710.134 685.682C716.042 688.215 719.378 690.798 719.378 696.606C719.378 702.866 714.46 706.296 707.855 706.296C701.398 706.296 697.225 703.219 695.184 699.185L700.835 695.902ZM676.27 696.505C677.363 698.443 678.356 700.081 680.746 700.081C683.03 700.081 684.471 699.187 684.471 695.712V672.067H691.425V695.806C691.425 703.006 687.204 706.283 681.042 706.283C675.474 706.283 672.25 703.402 670.61 699.931L676.27 696.505Z" fill="black"/>
<path d="M887 698.56V651.44C887.002 649.675 886.664 647.926 886.006 646.295C885.348 644.663 884.383 643.181 883.165 641.933C881.948 640.684 880.503 639.695 878.912 639.02C877.322 638.345 875.617 637.998 873.896 638L887 698.56ZM887 698.56C887.002 700.325 886.664 702.074 886.006 703.705C885.348 705.337 884.383 706.819 883.165 708.067C881.948 709.316 880.503 710.305 878.912 710.98C877.322 711.655 875.617 712.002 873.896 712H826.104M887 698.56L826.104 712M826.104 712C824.383 712.002 822.678 711.655 821.088 710.98M826.104 712L821.088 710.98M821.088 710.98C819.497 710.305 818.052 709.316 816.835 708.067M821.088 710.98L816.835 708.067M816.835 708.067C815.617 706.819 814.652 705.337 813.994 703.705M816.835 708.067L813.994 703.705M813.994 703.705C813.336 702.074 812.998 700.325 813 698.56L813.994 703.705ZM826.104 638.5H826.104L873.896 638.5L873.896 638.5C875.55 638.498 877.188 638.831 878.717 639.48C880.246 640.129 881.636 641.081 882.807 642.282C883.979 643.483 884.908 644.91 885.542 646.482C886.176 648.053 886.502 649.738 886.5 651.44V651.44V698.56V698.56C886.502 700.262 886.176 701.947 885.542 703.518C884.908 705.09 883.979 706.517 882.807 707.718C881.636 708.919 880.246 709.871 878.717 710.52C877.188 711.169 875.55 711.502 873.896 711.5H873.896H826.104H826.104C824.45 711.502 822.812 711.169 821.283 710.52C819.754 709.871 818.364 708.919 817.193 707.718C816.021 706.517 815.092 705.09 814.458 703.518C813.824 701.947 813.498 700.262 813.5 698.56V698.56L813.5 651.44L813.5 651.44C813.498 649.738 813.824 648.053 814.458 646.482C815.092 644.91 816.021 643.483 817.193 642.282C818.364 641.081 819.754 640.129 821.283 639.48C822.812 638.831 824.45 638.498 826.104 638.5Z" fill="#F0F0F0" stroke="#3FF1E6"/>
<path d="M849.835 702.75C849.092 702.75 848.354 702.555 847.702 702.18L840.913 698.16C839.899 697.593 840.394 697.393 840.728 697.277C842.08 696.804 842.355 696.697 843.798 695.877C843.95 695.791 844.148 695.821 844.303 695.913L849.519 699.008C849.708 699.11 849.975 699.11 850.15 699.008L870.487 687.269C870.675 687.162 870.797 686.943 870.797 686.719V663.251C870.797 663.017 870.675 662.808 870.483 662.691L850.154 650.962C849.965 650.85 849.716 650.85 849.527 650.962L829.203 662.691C829.006 662.803 828.88 663.022 828.88 663.246V686.714C828.88 686.938 829.002 687.152 829.196 687.259L834.765 690.476C837.789 691.988 839.637 690.206 839.637 688.414V665.252C839.637 664.921 839.896 664.666 840.227 664.666H842.803C843.124 664.666 843.389 664.921 843.389 665.252V688.424C843.389 692.456 841.19 694.772 837.366 694.772C836.19 694.772 835.264 694.772 832.678 693.5L827.343 690.425C826.024 689.661 825.21 688.236 825.21 686.714V663.246C825.21 661.719 826.024 660.294 827.343 659.54L847.7 647.796C848.988 647.068 850.699 647.068 851.977 647.796L872.309 659.545C873.622 660.304 874.442 661.724 874.442 663.251V686.719C874.442 688.241 873.622 689.661 872.309 690.425L851.977 702.169C851.325 702.546 850.587 702.739 849.833 702.739" fill="#689F63"/>
<path d="M856.117 686.579C847.219 686.579 845.353 682.494 845.353 679.068C845.353 678.743 845.616 678.483 845.942 678.483H848.569C848.859 678.483 849.103 678.694 849.149 678.981C849.546 681.658 850.727 683.008 856.108 683.008C860.394 683.008 862.217 682.039 862.217 679.766C862.217 678.458 861.698 677.486 855.039 676.834C849.47 676.284 846.029 675.058 846.029 670.603C846.029 666.5 849.49 664.057 855.289 664.057C861.799 664.057 865.027 666.317 865.434 671.173C865.449 671.341 865.388 671.504 865.276 671.626C865.164 671.744 865.007 671.815 864.844 671.815H862.202C861.927 671.815 861.688 671.621 861.632 671.357C860.995 668.541 859.458 667.64 855.278 667.64C850.6 667.64 850.055 669.269 850.055 670.491C850.055 671.973 850.697 672.405 857.009 673.24C863.261 674.07 866.228 675.241 866.228 679.634C866.228 684.063 862.533 686.603 856.088 686.603L856.117 686.579Z" fill="#689F63"/>
<path d="M1049 698.56V651.44C1049 649.675 1048.66 647.926 1048.01 646.295C1047.35 644.663 1046.38 643.181 1045.17 641.933C1043.95 640.684 1042.5 639.695 1040.91 639.02C1039.32 638.345 1037.62 637.998 1035.9 638L1049 698.56ZM1049 698.56C1049 700.325 1048.66 702.074 1048.01 703.705C1047.35 705.337 1046.38 706.819 1045.17 708.067C1043.95 709.316 1042.5 710.305 1040.91 710.98C1039.32 711.655 1037.62 712.002 1035.9 712H988.104M1049 698.56L988.104 712M988.104 712C986.383 712.002 984.678 711.655 983.088 710.98M988.104 712L983.088 710.98M983.088 710.98C981.497 710.305 980.052 709.316 978.835 708.067M983.088 710.98L978.835 708.067M978.835 708.067C977.617 706.819 976.652 705.337 975.994 703.705M978.835 708.067L975.994 703.705M975.994 703.705C975.336 702.074 974.998 700.325 975 698.56L975.994 703.705ZM988.104 638.5H988.104L1035.9 638.5L1035.9 638.5C1037.55 638.498 1039.19 638.831 1040.72 639.48C1042.25 640.129 1043.64 641.081 1044.81 642.282C1045.98 643.483 1046.91 644.91 1047.54 646.482C1048.18 648.053 1048.5 649.738 1048.5 651.44V651.44V698.56V698.56C1048.5 700.262 1048.18 701.947 1047.54 703.518C1046.91 705.09 1045.98 706.517 1044.81 707.718C1043.64 708.919 1042.25 709.871 1040.72 710.52C1039.19 711.169 1037.55 711.502 1035.9 711.5H1035.9H988.104H988.104C986.45 711.502 984.812 711.169 983.283 710.52C981.754 709.871 980.364 708.919 979.193 707.718C978.021 706.517 977.092 705.09 976.458 703.518C975.824 701.947 975.498 700.262 975.5 698.56V698.56L975.5 651.44L975.5 651.44C975.498 649.738 975.824 648.053 976.458 646.482C977.092 644.91 978.021 643.483 979.193 642.282C980.364 641.081 981.754 640.129 983.283 639.48C984.812 638.831 986.45 638.498 988.104 638.5Z" fill="#000B1D" stroke="#3FF1E6"/>
<path d="M986.106 670.391C985.988 670.391 985.959 670.332 986.018 670.244L986.638 669.446C986.697 669.358 986.845 669.299 986.963 669.299H997.505C997.623 669.299 997.652 669.387 997.593 669.476L997.091 670.244C997.032 670.332 996.885 670.421 996.796 670.421L986.106 670.391Z" fill="#2DBCAF"/>
<path d="M981.647 673.108C981.529 673.108 981.5 673.049 981.559 672.96L982.179 672.163C982.238 672.074 982.386 672.015 982.504 672.015H995.969C996.087 672.015 996.146 672.104 996.117 672.192L995.881 672.901C995.851 673.019 995.733 673.078 995.615 673.078L981.647 673.108Z" fill="#2DBCAF"/>
<path d="M988.794 675.825C988.675 675.825 988.646 675.736 988.705 675.647L989.118 674.909C989.177 674.821 989.296 674.732 989.414 674.732H995.32C995.438 674.732 995.497 674.821 995.497 674.939L995.438 675.647C995.438 675.765 995.32 675.854 995.231 675.854L988.794 675.825Z" fill="#2DBCAF"/>
<path d="M1019.45 669.86C1017.58 670.332 1016.31 670.687 1014.48 671.159C1014.04 671.277 1014.01 671.307 1013.63 670.864C1013.18 670.362 1012.86 670.037 1012.24 669.742C1010.38 668.826 1008.58 669.092 1006.9 670.185C1004.89 671.484 1003.85 673.403 1003.88 675.795C1003.91 678.158 1005.54 680.106 1007.87 680.431C1009.88 680.697 1011.56 679.988 1012.89 678.482C1013.16 678.158 1013.39 677.803 1013.69 677.39C1012.62 677.39 1011.29 677.39 1007.99 677.39C1007.37 677.39 1007.22 677.006 1007.43 676.504C1007.81 675.588 1008.52 674.053 1008.93 673.285C1009.02 673.108 1009.23 672.813 1009.67 672.813C1011.18 672.813 1016.73 672.813 1020.42 672.813C1020.36 673.61 1020.36 674.407 1020.24 675.205C1019.92 677.331 1019.12 679.28 1017.82 680.992C1015.69 683.798 1012.92 685.54 1009.41 686.012C1006.51 686.396 1003.82 685.835 1001.46 684.063C999.276 682.41 998.036 680.225 997.711 677.508C997.327 674.289 998.272 671.395 1000.22 668.856C1002.32 666.109 1005.09 664.367 1008.49 663.747C1011.27 663.245 1013.92 663.57 1016.31 665.194C1017.88 666.228 1019 667.645 1019.74 669.358C1019.92 669.623 1019.8 669.771 1019.45 669.86Z" fill="#2DBCAF"/>
<path d="M1029.22 686.19C1026.53 686.13 1024.08 685.363 1022.01 683.591C1020.27 682.085 1019.18 680.166 1018.82 677.892C1018.29 674.555 1019.21 671.602 1021.22 668.974C1023.37 666.139 1025.97 664.663 1029.49 664.042C1032.5 663.511 1035.33 663.806 1037.9 665.548C1040.23 667.143 1041.68 669.299 1042.06 672.133C1042.57 676.12 1041.42 679.368 1038.67 682.144C1036.72 684.122 1034.33 685.363 1031.58 685.924C1030.78 686.071 1029.99 686.101 1029.22 686.19ZM1036.25 674.26C1036.22 673.876 1036.22 673.58 1036.16 673.285C1035.63 670.362 1032.94 668.708 1030.13 669.358C1027.39 669.978 1025.62 671.72 1024.97 674.496C1024.44 676.799 1025.56 679.132 1027.68 680.077C1029.31 680.786 1030.93 680.697 1032.5 679.9C1034.83 678.689 1036.1 676.799 1036.25 674.26Z" fill="#2DBCAF"/>
<g clip-path="url(#clip1_45_2)">
<path d="M1211 698.56V651.44C1211 649.675 1210.66 647.926 1210.01 646.295C1209.35 644.663 1208.38 643.181 1207.17 641.933C1205.95 640.684 1204.5 639.695 1202.91 639.02C1201.32 638.345 1199.62 637.998 1197.9 638L1211 698.56ZM1211 698.56C1211 700.325 1210.66 702.074 1210.01 703.705C1209.35 705.337 1208.38 706.819 1207.17 708.067C1205.95 709.316 1204.5 710.305 1202.91 710.98C1201.32 711.655 1199.62 712.002 1197.9 712H1150.1M1211 698.56L1150.1 712M1150.1 712C1148.38 712.002 1146.68 711.655 1145.09 710.98M1150.1 712L1145.09 710.98M1145.09 710.98C1143.5 710.305 1142.05 709.316 1140.83 708.067M1145.09 710.98L1140.83 708.067M1140.83 708.067C1139.62 706.819 1138.65 705.337 1137.99 703.705M1140.83 708.067L1137.99 703.705M1137.99 703.705C1137.34 702.074 1137 700.325 1137 698.56L1137.99 703.705ZM1150.1 638.5H1150.1L1197.9 638.5L1197.9 638.5C1199.55 638.498 1201.19 638.831 1202.72 639.48C1204.25 640.129 1205.64 641.081 1206.81 642.282C1207.98 643.483 1208.91 644.91 1209.54 646.482C1210.18 648.053 1210.5 649.738 1210.5 651.44V651.44V698.56V698.56C1210.5 700.262 1210.18 701.947 1209.54 703.518C1208.91 705.09 1207.98 706.517 1206.81 707.718C1205.64 708.919 1204.25 709.871 1202.72 710.52C1201.19 711.169 1199.55 711.502 1197.9 711.5H1197.9H1150.1H1150.1C1148.45 711.502 1146.81 711.169 1145.28 710.52C1143.75 709.871 1142.36 708.919 1141.19 707.718C1140.02 706.517 1139.09 705.09 1138.46 703.518C1137.82 701.947 1137.5 700.262 1137.5 698.56V698.56L1137.5 651.44L1137.5 651.44C1137.5 649.738 1137.82 648.053 1138.46 646.482C1139.09 644.91 1140.02 643.483 1141.19 642.282C1142.36 641.081 1143.75 640.129 1145.28 639.48C1146.81 638.831 1148.45 638.498 1150.1 638.5Z" fill="#000B1D" stroke="#3FF1E6"/>
<path d="M1173.9 650.21C1161.07 650.21 1161.87 655.772 1161.87 655.772L1161.88 661.535H1174.12V663.265H1157.02C1157.02 663.265 1148.81 662.334 1148.81 675.277C1148.81 688.219 1155.98 687.76 1155.98 687.76H1160.25V681.754C1160.25 681.754 1160.02 674.59 1167.3 674.59C1174.58 674.59 1179.44 674.59 1179.44 674.59C1179.44 674.59 1186.26 674.7 1186.26 667.998C1186.26 661.296 1186.26 656.916 1186.26 656.916C1186.26 656.916 1187.3 650.21 1173.9 650.21ZM1167.15 654.085C1168.36 654.085 1169.35 655.069 1169.35 656.287C1169.35 657.505 1168.36 658.489 1167.15 658.489C1165.93 658.489 1164.94 657.505 1164.94 656.287C1164.94 655.069 1165.93 654.085 1167.15 654.085Z" fill="url(#paint1_linear_45_2)"/>
<path d="M1174.26 700.473C1187.09 700.473 1186.29 694.91 1186.29 694.91L1186.27 689.148H1174.03V687.418H1191.13C1191.13 687.418 1199.34 688.348 1199.34 675.406C1199.34 662.464 1192.18 662.923 1192.18 662.923H1187.9V668.929C1187.9 668.929 1188.13 676.093 1180.85 676.093C1173.57 676.093 1168.71 676.093 1168.71 676.093C1168.71 676.093 1161.89 675.982 1161.89 682.685C1161.89 689.387 1161.89 693.766 1161.89 693.766C1161.89 693.766 1160.86 700.473 1174.26 700.473ZM1181.01 696.598C1179.79 696.598 1178.81 695.613 1178.81 694.396C1178.81 693.178 1179.79 692.194 1181.01 692.194C1182.23 692.194 1183.21 693.178 1183.21 694.396C1183.21 695.613 1182.23 696.598 1181.01 696.598Z" fill="url(#paint2_linear_45_2)"/>
</g>
<path d="M180.575 95.7987L192.441 112.412H169.527V83.9324H192.441L180.575 95.7987ZM179.511 96.8626L171.041 105.333V110.898H189.536L179.511 96.8626ZM209.023 112.412V83.9324H210.537V110.898H230.382V112.412H209.023ZM245.409 83.9324L255.516 99.1541L265.541 83.9324H267.341L256.252 100.75V112.412H254.738V100.75L243.608 83.9324H245.409ZM281.999 112.412V83.9324H283.595L303.482 103.246V83.9324H304.996V112.412H303.482V105.374L283.513 85.8965V112.412H281.999ZM342.282 83.9324V85.4464H331.52V112.412H330.047V85.4464H319.286V83.9324H342.282ZM367.661 83.9324H369.257L380.959 112.412H379.323L375.476 103H361.441L357.554 112.412H355.958L367.661 83.9324ZM362.055 101.527H374.862L368.438 85.8965L362.055 101.527ZM412.271 84.8735C413.908 85.6373 415.19 86.7694 416.118 88.2698C417.073 89.7701 417.55 91.4341 417.55 93.2618C417.55 95.3896 416.895 97.2991 415.586 98.9904C414.304 100.654 412.653 101.759 410.635 102.305L417.877 112.412H416.077L409.08 102.591L407.77 102.632H397.5V112.412H395.986V83.9324H406.829C408.03 83.9324 409.053 84.0142 409.898 84.1779C410.771 84.3143 411.562 84.5462 412.271 84.8735ZM408.18 101.118C409.598 101.118 410.908 100.764 412.108 100.054C413.308 99.345 414.263 98.3902 414.972 97.19C415.681 95.9897 416.036 94.6803 416.036 93.2618C416.036 91.6796 415.613 90.2475 414.767 88.9654C413.949 87.6833 412.803 86.7285 411.33 86.1011C410.266 85.6646 408.766 85.4464 406.829 85.4464H397.5V101.118H408.18ZM170.713 140.932H191.95V142.446H172.227V154.395H188.186V155.909H172.227V169.412H170.713V140.932ZM217.82 140.319C219.948 140.319 221.912 140.851 223.712 141.914C225.513 142.951 226.931 144.37 227.968 146.17C229.032 147.97 229.564 149.934 229.564 152.062V158.282C229.564 160.41 229.032 162.374 227.968 164.174C226.931 165.974 225.513 167.407 223.712 168.47C221.912 169.507 219.948 170.025 217.82 170.025C215.692 170.025 213.728 169.507 211.928 168.47C210.127 167.407 208.695 165.974 207.631 164.174C206.595 162.374 206.077 160.41 206.077 158.282V152.062C206.077 149.934 206.595 147.97 207.631 146.17C208.695 144.37 210.127 142.951 211.928 141.914C213.728 140.851 215.692 140.319 217.82 140.319ZM207.591 158.282C207.591 160.137 208.041 161.855 208.941 163.438C209.868 164.992 211.109 166.234 212.664 167.161C214.247 168.061 215.965 168.511 217.82 168.511C219.675 168.511 221.38 168.061 222.935 167.161C224.517 166.234 225.758 164.992 226.658 163.438C227.586 161.855 228.05 160.137 228.05 158.282V152.062C228.05 150.207 227.586 148.502 226.658 146.947C225.758 145.365 224.517 144.124 222.935 143.224C221.38 142.296 219.675 141.833 217.82 141.833C215.965 141.833 214.247 142.296 212.664 143.224C211.109 144.124 209.868 145.365 208.941 146.947C208.041 148.502 207.591 150.207 207.591 152.062V158.282ZM243.977 140.932H245.491V158.527C245.491 160.328 245.941 161.992 246.841 163.519C247.741 165.047 248.955 166.261 250.483 167.161C252.01 168.061 253.674 168.511 255.475 168.511C257.275 168.511 258.939 168.061 260.467 167.161C261.994 166.261 263.208 165.047 264.108 163.519C265.009 161.992 265.459 160.328 265.459 158.527V140.932H266.973V158.527C266.973 160.601 266.454 162.524 265.418 164.297C264.381 166.043 262.976 167.434 261.203 168.47C259.457 169.507 257.548 170.025 255.475 170.025C253.401 170.025 251.478 169.507 249.705 168.47C247.959 167.434 246.568 166.043 245.531 164.297C244.495 162.524 243.977 160.601 243.977 158.527V140.932ZM281.999 169.412V140.932H283.595L303.482 160.246V140.932H304.996V169.412H303.482V162.374L283.513 142.896V169.412H281.999ZM330.497 140.932C332.57 140.932 334.48 141.451 336.226 142.487C337.999 143.524 339.404 144.929 340.44 146.702C341.477 148.448 341.995 150.357 341.995 152.43V157.914C341.995 159.987 341.477 161.91 340.44 163.683C339.404 165.429 337.999 166.82 336.226 167.857C334.48 168.893 332.57 169.412 330.497 169.412H319.981V140.932H330.497ZM340.481 152.43C340.481 150.63 340.031 148.966 339.131 147.438C338.231 145.911 337.003 144.697 335.448 143.797C333.921 142.896 332.257 142.446 330.456 142.446H321.495V167.898H330.456C332.257 167.898 333.921 167.448 335.448 166.547C337.003 165.647 338.231 164.433 339.131 162.906C340.031 161.378 340.481 159.714 340.481 157.914V152.43ZM367.661 140.932H369.257L380.959 169.412H379.323L375.476 160H361.441L357.554 169.412H355.958L367.661 140.932ZM362.055 158.527H374.862L368.438 142.896L362.055 158.527ZM417.591 140.932V142.446H406.829V169.412H405.356V142.446H394.595V140.932H417.591ZM452.995 140.932V142.446H444.484V167.898H452.995V169.412H434.541V167.898H443.011V142.446H434.541V140.932H452.995ZM481.402 140.319C483.53 140.319 485.494 140.851 487.294 141.914C489.095 142.951 490.513 144.37 491.55 146.17C492.614 147.97 493.145 149.934 493.145 152.062V158.282C493.145 160.41 492.614 162.374 491.55 164.174C490.513 165.974 489.095 167.407 487.294 168.47C485.494 169.507 483.53 170.025 481.402 170.025C479.274 170.025 477.31 169.507 475.51 168.47C473.709 167.407 472.277 165.974 471.213 164.174C470.177 162.374 469.658 160.41 469.658 158.282V152.062C469.658 149.934 470.177 147.97 471.213 146.17C472.277 144.37 473.709 142.951 475.51 141.914C477.31 140.851 479.274 140.319 481.402 140.319ZM471.172 158.282C471.172 160.137 471.622 161.855 472.523 163.438C473.45 164.992 474.691 166.234 476.246 167.161C477.828 168.061 479.547 168.511 481.402 168.511C483.257 168.511 484.962 168.061 486.517 167.161C488.099 166.234 489.34 164.992 490.24 163.438C491.168 161.855 491.631 160.137 491.631 158.282V152.062C491.631 150.207 491.168 148.502 490.24 146.947C489.34 145.365 488.099 144.124 486.517 143.224C484.962 142.296 483.257 141.833 481.402 141.833C479.547 141.833 477.828 142.296 476.246 143.224C474.691 144.124 473.45 145.365 472.523 146.947C471.622 148.502 471.172 150.207 471.172 152.062V158.282ZM507.927 169.412V140.932H509.522L529.409 160.246V140.932H530.923V169.412H529.409V162.374L509.441 142.896V169.412H507.927Z" fill="white"/>
<path d="M85.8038 120.357L153.406 215H22.8638V52.7547H153.406L85.8038 120.357ZM79.7429 126.418L31.4889 174.672V206.375H136.855L79.7429 126.418Z" fill="white"/>
<path d="M1712.58 42L1842.5 154.125H1907.46L2003.54 42L2090.15 94.6852L2220.06 59.5617L2206.53 254.092H2293.14L2318.85 379.726L2259.31 518.869L2379.75 570.203L2427.11 925.49H2171.34L2137.51 1011.95H1950.76L1864.15 951.157L1665.22 1041.67L1600.26 976.825V807.962L1535.3 717.451L1600.26 570.203V422.955L1492 379.726V154.125L1712.58 42Z" stroke="white" stroke-width="5.2241"/>
<path d="M1728.73 76.333L1849.55 179.371H1911.89L2001.42 76.7445L2082.2 126.25L2202.33 94.918L2190.06 275.574L2270.99 275.996L2294.92 393.429L2240.15 523.331L2350.28 570.716L2392.95 898.674L2155.6 898.779L2123.11 978.692L1949.1 979.437L1868.88 923.056L1684.99 1006.34L1625.03 945.787V789.218L1565.07 702.501L1624.58 566.401L1624.14 430.302L1524.21 389.47V180.294L1728.73 76.333Z" stroke="white" stroke-width="5.2241"/>
<path d="M1744.87 110.668L1856.6 204.62H1916.33L1999.3 111.491L2074.25 157.817L2184.61 130.277L2173.59 297.059L2248.85 297.904L2270.99 407.134L2221 527.795L2320.81 571.232L2358.79 871.859L2139.86 872.071L2108.71 945.439L1947.43 946.929L1873.62 894.957L1704.76 971.009L1649.79 914.751V770.477L1594.83 687.553L1648.91 562.602L1648.02 437.652L1556.41 399.216V206.466L1744.87 110.668Z" stroke="white" stroke-width="5.2241"/>
<path d="M1761.01 145.003L1863.65 229.869H1920.77L1997.18 146.238L2066.29 189.384L2166.88 165.635L2157.12 318.543L2226.7 319.81L2247.06 420.839L2201.84 532.259L2291.34 571.747L2324.63 845.045L2124.11 845.362L2094.31 912.184L1945.77 914.42L1878.35 866.857L1724.53 935.68L1674.56 883.715V751.736L1624.59 672.605L1673.23 558.803L1671.9 445.001L1588.62 408.962V232.638L1761.01 145.003Z" stroke="white" stroke-width="5.2241"/>
<path d="M1777.15 179.337L1870.71 255.116H1925.21L1995.06 180.983L2058.34 220.949L2149.15 200.992L2140.65 340.025L2204.55 341.716L2223.13 434.542L2182.68 536.721L2261.88 572.26L2290.47 818.228L2108.37 818.651L2079.91 878.929L1944.11 881.909L1883.08 838.756L1744.29 900.349L1699.32 852.678V732.993L1654.35 657.655L1697.55 555.002L1695.78 452.349L1620.83 418.707V258.808L1777.15 179.337Z" stroke="white" stroke-width="5.2241"/>
<path d="M1793.29 213.672L1877.76 280.364H1929.65L1992.94 215.729L2050.39 252.515L2131.42 236.35L2124.17 361.509L2182.41 363.622L2199.2 448.247L2163.53 541.185L2232.41 572.775L2256.31 791.414L2092.63 791.942L2065.51 845.675L1942.44 849.4L1887.81 810.656L1764.06 865.02L1724.09 821.642V714.251L1684.12 642.706L1721.87 551.202L1719.65 459.698L1653.03 428.453V284.979L1793.29 213.672Z" stroke="white" stroke-width="5.2241"/>
<path d="M1809.43 248.005L1884.81 305.611H1934.09L1990.82 250.474L2042.44 284.08L2113.69 271.706L2107.7 382.992L2160.26 385.527L2175.27 461.95L2144.37 545.647L2202.94 573.288L2222.16 764.597L2076.88 765.231L2051.11 812.419L1940.78 816.889L1892.54 782.554L1783.83 829.69L1748.85 790.604V695.508L1713.88 627.756L1746.19 547.401L1743.53 467.046L1685.24 438.197V311.149L1809.43 248.005Z" stroke="white" stroke-width="5.2241"/>
<path d="M1825.58 282.34L1891.86 330.86H1938.53L1988.7 285.22L2034.49 315.647L2095.96 307.065L2091.23 404.476L2138.11 407.434L2151.34 475.655L2125.21 550.111L2173.47 573.804L2188 737.783L2061.14 738.522L2036.72 779.165L1939.11 784.381L1897.28 754.455L1803.6 794.361L1773.62 759.568V676.767L1743.64 612.808L1770.51 543.602L1767.41 474.395L1717.44 447.944V337.321L1825.58 282.34Z" stroke="white" stroke-width="5.2241"/>
<path d="M1841.72 316.673L1898.91 356.106H1942.97L1986.58 319.965L2026.54 347.212L2078.24 342.421L2074.76 425.958L2115.97 429.339L2127.41 489.358L2106.06 554.573L2144 574.317L2153.84 710.966L2045.4 711.811L2022.32 745.909L1937.45 751.87L1902.01 726.353L1823.37 759.03L1798.38 728.53V658.023L1773.4 597.857L1794.84 539.8L1791.29 481.743L1749.65 457.688V363.49L1841.72 316.673Z" stroke="white" stroke-width="5.2241"/>
<path d="M1857.86 351.008L1905.97 381.355H1947.41L1984.46 354.711L2018.59 378.778L2060.51 377.779L2058.29 447.443L2093.82 451.246L2103.48 503.063L2086.9 559.037L2114.53 574.832L2119.68 684.151L2029.65 685.102L2007.92 712.655L1935.79 719.36L1906.74 698.254L1843.14 723.701L1823.15 697.494V639.281L1803.16 582.909L1819.16 536L1815.17 489.092L1781.86 467.434V389.662L1857.86 351.008Z" stroke="white" stroke-width="5.2241"/>
<path d="M1874 385.344L1913.02 406.604H1951.85L1982.33 389.458L2010.64 410.346L2042.78 413.138L2041.82 468.927L2071.67 473.153L2079.55 516.768L2067.75 563.501L2085.06 575.347L2085.52 657.337L2013.91 658.393L1993.52 679.401L1934.12 686.852L1911.47 670.155L1862.91 688.373L1847.92 666.459V620.54L1832.92 567.961L1843.48 532.201L1839.05 496.442L1814.06 477.181V415.834L1874 385.344Z" stroke="white" stroke-width="5.2241"/>
<path d="M1890.14 419.677L1920.07 431.85H1956.29L1980.21 424.203L2002.69 441.91L2025.05 448.494L2025.35 490.409L2049.53 495.058L2055.62 530.471L2048.59 567.963L2055.59 575.861L2051.36 630.52L1998.16 631.682L1979.12 646.145L1932.46 654.341L1916.21 642.053L1882.67 653.042L1872.68 635.421V601.797L1862.69 553.011L1867.8 528.4L1862.92 503.789L1846.27 486.925V442.003L1890.14 419.677Z" stroke="white" stroke-width="5.2241"/>
<path d="M-125.416 397L4.4985 509.125H69.4557L165.538 397L252.148 449.685L382.062 414.562L368.53 609.092H455.139L480.852 734.726L421.307 873.869L541.749 925.203L589.114 1280.49H333.345L299.513 1366.95H112.761L26.1509 1306.16L-172.781 1396.67L-237.738 1331.82V1162.96L-302.695 1072.45L-237.738 925.203V777.955L-346 734.726V509.125L-125.416 397Z" stroke="white" stroke-width="5.2241"/>
<path d="M-109.274 431.333L11.5504 534.371H73.8947L163.418 431.744L244.197 481.25L364.334 449.918L352.059 630.574L432.993 630.996L456.921 748.429L402.151 878.331L512.28 925.716L554.954 1253.67L317.601 1253.78L285.113 1333.69L111.097 1334.44L30.8831 1278.06L-153.012 1361.34L-212.973 1300.79V1144.22L-272.933 1057.5L-213.416 921.401L-213.86 785.302L-313.794 744.47V535.294L-109.274 431.333Z" stroke="white" stroke-width="5.2241"/>
<path d="M-93.1322 465.668L18.6027 559.62H78.3341L161.298 466.491L236.246 512.817L346.606 485.277L335.588 652.059L410.846 652.904L432.991 762.134L382.995 882.795L482.812 926.232L520.794 1226.86L301.857 1227.07L270.714 1300.44L109.433 1301.93L35.6157 1249.96L-133.243 1326.01L-188.207 1269.75V1125.48L-243.171 1042.55L-189.094 917.602L-189.981 792.652L-281.587 754.216V561.466L-93.1322 465.668Z" stroke="white" stroke-width="5.2241"/>
<path d="M-76.9905 500.003L25.6546 584.869H82.7731L159.177 501.238L228.295 544.384L328.878 520.635L319.117 673.543L388.7 674.81L409.06 775.839L363.839 887.259L453.343 926.747L486.635 1200.04L286.114 1200.36L256.314 1267.18L107.769 1269.42L40.3479 1221.86L-113.475 1290.68L-163.442 1238.72V1106.74L-213.409 1027.6L-164.772 913.803L-166.103 800.001L-249.381 763.962V587.638L-76.9905 500.003Z" stroke="white" stroke-width="5.2241"/>
<path d="M-60.8486 534.337L32.7068 610.116H87.2123L157.057 535.983L220.344 575.949L311.15 555.992L302.646 695.025L366.553 696.716L385.13 789.542L344.683 891.721L423.875 927.26L452.475 1173.23L270.37 1173.65L241.915 1233.93L106.105 1236.91L45.0803 1193.76L-93.706 1255.35L-138.676 1207.68V1087.99L-183.647 1012.65L-140.45 910.002L-142.224 807.349L-217.175 773.707V613.808L-60.8486 534.337Z" stroke="white" stroke-width="5.2241"/>
<path d="M-44.7069 568.672L39.7586 635.364H91.6512L154.937 570.729L212.393 607.515L293.421 591.35L286.174 716.509L344.406 718.622L361.2 803.247L325.527 896.185L394.406 927.775L418.315 1146.41L254.626 1146.94L227.515 1200.67L104.441 1204.4L49.8124 1165.66L-73.9375 1220.02L-113.911 1176.64V1069.25L-153.885 997.706L-116.129 906.202L-118.346 814.698L-184.969 783.453V639.979L-44.7069 568.672Z" stroke="white" stroke-width="5.2241"/>
<path d="M-28.5652 603.005L46.8105 660.611H96.0902L152.816 605.474L204.442 639.08L275.693 626.706L269.703 737.992L322.26 740.527L337.269 816.95L306.371 900.647L364.938 928.288L384.155 1119.6L238.883 1120.23L213.115 1167.42L102.777 1171.89L54.5445 1137.55L-54.1691 1184.69L-89.146 1145.6V1050.51L-124.123 982.756L-91.807 902.401L-94.468 822.046L-152.763 793.197V666.149L-28.5652 603.005Z" stroke="white" stroke-width="5.2241"/>
<path d="M-12.4235 637.34L53.8624 685.86H100.529L150.696 640.22L196.49 670.647L257.964 662.065L253.232 759.476L300.113 762.434L313.338 830.655L287.215 905.111L335.469 928.804L349.995 1092.78L223.139 1093.52L198.715 1134.17L101.113 1139.38L59.2767 1109.46L-34.4006 1149.36L-64.3808 1114.57V1031.77L-94.3611 967.808L-67.4853 898.602L-70.5898 829.395L-120.557 802.944V692.321L-12.4235 637.34Z" stroke="white" stroke-width="5.2241"/>
<path d="M3.71815 671.673L60.9142 711.106H104.968L148.575 674.965L188.539 702.212L240.236 697.421L236.761 780.958L277.966 784.339L289.408 844.358L268.059 909.573L306 929.317L315.835 1065.97L207.395 1066.81L184.316 1100.91L99.449 1106.87L64.0089 1081.35L-14.6321 1114.03L-39.6156 1083.53V1013.02L-64.5992 952.857L-43.1636 894.8L-46.7116 836.743L-88.3508 812.688V718.49L3.71815 671.673Z" stroke="white" stroke-width="5.2241"/>
<path d="M19.8603 706.008L67.9666 736.355H109.408L146.455 709.711L180.588 733.778L222.508 732.779L220.29 802.443L255.82 806.246L265.478 858.063L248.903 914.037L276.532 929.832L281.676 1039.15L191.652 1040.1L169.916 1067.66L97.7855 1074.36L68.7415 1053.25L5.13688 1078.7L-14.85 1052.49V994.281L-34.8368 937.909L-18.8414 891L-22.8329 844.092L-56.1443 822.434V744.662L19.8603 706.008Z" stroke="white" stroke-width="5.2241"/>
<path d="M36.0017 740.344L75.0182 761.604H113.846L144.335 744.458L172.637 765.346L204.779 768.138L203.818 823.927L233.673 828.153L241.547 871.768L229.746 918.501L247.063 930.347L247.516 1012.34L175.908 1013.39L155.516 1034.4L96.1212 1041.85L73.4734 1025.15L24.9051 1043.37L9.91498 1021.46V975.54L-5.07515 922.961L5.48003 887.201L1.04508 851.442L-23.9385 832.181V770.834L36.0017 740.344Z" stroke="white" stroke-width="5.2241"/>
<path d="M52.1434 774.677L82.0701 786.85H118.285L142.214 779.203L164.686 796.91L187.051 803.494L187.347 845.409L211.526 850.058L217.616 885.471L210.59 922.963L217.594 930.861L213.356 985.52L160.164 986.682L141.117 1001.15L94.4572 1009.34L78.2055 997.053L44.6736 1008.04L34.6802 990.421V956.797L24.6868 908.011L29.8017 883.4L24.9233 858.789L8.26758 841.925V797.003L52.1434 774.677Z" stroke="white" stroke-width="5.2241"/>
</g>
<defs>
<linearGradient id="paint0_linear_45_2" x1="937.5" y1="-1.77766e-05" x2="1192" y2="758" gradientUnits="userSpaceOnUse">
<stop stop-color="#BC0F0F" stop-opacity="0.5"/>
<stop offset="0.39" stop-opacity="0.5"/>
<stop offset="0.79" stop-color="#035853" stop-opacity="0.5"/>
</linearGradient>
<linearGradient id="paint1_linear_45_2" x1="1153.67" y1="654.603" x2="1178.65" y2="679.671" gradientUnits="userSpaceOnUse">
<stop stop-color="#387EB8"/>
<stop offset="1" stop-color="#366994"/>
</linearGradient>
<linearGradient id="paint2_linear_45_2" x1="1169.04" y1="670.55" x2="1195.87" y2="696.257" gradientUnits="userSpaceOnUse">
<stop stop-color="#FFE052"/>
<stop offset="1" stop-color="#FFC331"/>
</linearGradient>
<clipPath id="clip0_45_2">
<rect width="1875" height="800" fill="white"/>
</clipPath>
<clipPath id="clip1_45_2">
<rect width="74" height="74" fill="white" transform="translate(1137 638)"/>
</clipPath>
</defs>
</svg>
